{
.appVersion = "3039";
.formatVersion = 3;
axes = (
{
name = Weight;
tag = wght;
}
);
customParameters = (
{
name = fsType;
value = (
);
},
{
name = "Use Typo Metrics";
value = 1;
}
);
date = "2022-08-31 02:17:19 +0000";
familyName = "Delicious Handrawn";
featurePrefixes = (
{
automatic = 1;
code = "languagesystem DFLT dflt;
languagesystem DFLT MAH;

languagesystem latn dflt;
languagesystem latn AZE;
languagesystem latn CRT;
languagesystem latn KAZ;
languagesystem latn TAT;
languagesystem latn TRK;
languagesystem latn ROM;
languagesystem latn MOL;
languagesystem latn MAH;
languagesystem latn NLD;
";
name = Languagesystems;
}
);
features = (
{
automatic = 1;
code = "feature locl;
";
tag = aalt;
},
{
automatic = 1;
code = "lookup ccmp_Other_1 {
	@CombiningTopAccents = [acutecomb brevecomb caroncomb circumflexcomb commaturnedabovecomb dieresiscomb dotaccentcomb gravecomb hungarumlautcomb macroncomb ringcomb tildecomb];
	@CombiningNonTopAccents = [cedillacomb ogonekcomb];
	sub [i j]' @CombiningTopAccents by [idotless jdotless];
	sub [i j]' @CombiningNonTopAccents @CombiningTopAccents by [idotless jdotless];
} ccmp_Other_1;
";
tag = ccmp;
},
{
automatic = 1;
code = "lookup locl_noScript_0 {
	language MAH;
	sub commaaccentcomb by commaaccentcomb.loclMAH;
} locl_noScript_0;

lookup locl_latn_0 {
	script latn;
	language AZE;
	sub i by idotaccent;
	language CRT;
	sub i by idotaccent;
	language KAZ;
	sub i by idotaccent;
	language TAT;
	sub i by idotaccent;
	language TRK;
	sub i by idotaccent;
} locl_latn_0;

lookup locl_latn_1 {
	script latn;
	language ROM;
	sub Scedilla by Scommaaccent;
	sub scedilla by scommaaccent;
	sub Tcedilla by Tcommaaccent;
	sub tcedilla by tcommaaccent;
	language MOL;
	sub Scedilla by Scommaaccent;
	sub scedilla by scommaaccent;
	sub Tcedilla by Tcommaaccent;
	sub tcedilla by tcommaaccent;
} locl_latn_1;

lookup locl_latn_2 {
	script latn;
	language MAH;
	sub Lcommaaccent by Lcommaaccent.loclMAH;
	sub Ncommaaccent by Ncommaaccent.loclMAH;

glyphs = (
{
glyphname = A;
kernLeft = A;
kernRight = A;
lastChange = "2022-09-01 02:05:07 +0000";
layers = (
{
anchors = (
{
name = bottom;
pos = (141,0);
},
{
name = ogonek;
pos = (238,109);
},
{
name = top;
pos = (159,613);
}
);
layerId = m01;
shapes = (
{
closed = 1;
nodes = (
(149,483,o),
(148,480,o),
(148,478,c),
(140,448,o),
(134,418,o),
(130,387,c),
(127,360,o),
(124,333,o),
(121,306,c),
(120,298,o),
(120,297,o),
(129,298,c),
(141,299,o),
(154,301,o),
(166,302,c),
(173,302,o),
(175,305,o),
(174,311,c),
(171,329,o),
(170,346,o),
(167,363,c),
(165,382,o),
(162,401,o),
(161,420,c),
(159,442,o),
(156,464,o),
(152,487,c)
);
},
{
closed = 1;
nodes = (
(47,171,o),
(49,190,o),
(51,210,c),
(51,216,o),
(50,221,o),
(42,223,c),
(25,227,o),
(17,254,o),
(34,269,c),
(39,274,o),
(44,277,o),
(50,279,c),
(58,281,o),
(60,286,o),
(61,293,c),
(63,312,o),
(65,332,o),
(68,351,c),
(75,399,o),
(84,447,o),
(93,495,c),
(99,521,o),
(103,547,o),
(112,573,c),
(115,581,o),
(118,589,o),
(123,596,c),
(139,623,o),
(172,623,o),
(188,596,c),
(197,583,o),
(201,568,o),
(204,553,c),
(212,515,o),
(217,476,o),
(223,437,c),
(228,396,o),
(231,355,o),
(235,313,c),
(236,308,o),
(238,303,o),
(243,300,c),
(254,291,o),
(256,280,o),
(246,270,c),
(241,265,o),
(240,259,o),
(241,253,c),
(243,229,o),
(245,205,o),
(247,181,c),
(249,158,o),
(251,135,o),
(256,112,c),
(258,102,o),
(253,94,o),
(245,91,c),
(238,87,o),
(229,89,o),
(222,96,c),
(215,102,o),
(211,111,o),
(208,120,c),
(200,143,o),
(196,167,o),
(192,191,c),
(189,209,o),
(186,227,o),
(183,245,c),
(182,250,o),
(181,253,o),
(175,252,c),
(158,248,o),
(140,244,o),
(123,240,c),
(118,239,o),
(116,236,o),
(116,231,c),
(113,198,o),
(109,166,o),
(106,133,c),
(105,125,o),
(105,117,o),
(105,109,c),
(103,96,o),
(97,87,o),
(85,83,c),
(73,79,o),
(63,84,o),
(55,92,c),
(49,98,o),
(48,105,o),
(48,113,c),
(47,125,o),
(47,138,o),
(47,152,c)
);
}
);
width = 281;
}
);
unicode = 65;
},
{
glyphname = AE;
kernLeft = A;
kernRight = E;
lastChange = "2022-09-01 02:50:12 +0000";
layers = (
{
layerId = m01;
shapes = (
{
closed = 1;
nodes = (
(174,302,o),
(175,305,o),
(175,311,c),
(172,329,o),
(170,346,o),
(168,363,c),
(166,382,o),
(163,401,o),
(161,420,c),
(160,442,o),
(157,464,o),
(153,487,c),
(150,483,o),
(149,480,o),
(149,478,c),
(141,448,o),
(135,418,o),
(131,387,c),
(128,360,o),
(125,333,o),
(122,306,c),
(121,298,o),
(121,297,o),
(130,298,c),
(142,299,o),
(155,301,o),
(167,302,c)
);
},
{
closed = 1;
nodes = (
(379,252,o),
(391,244,o),
(391,232,c),
(390,228,o),
(390,224,o),
(388,220,c),
(386,211,o),
(382,203,o),
(376,195,c),
(355,163,o),
(329,136,o),
(297,114,c),
(283,105,o),
(269,103,o),
(257,105,c),
(256,98,o),
(252,94,o),
(246,91,c),
(239,87,o),
(230,89,o),
(223,96,c),
(216,102,o),
(212,111,o),
(209,120,c),
(201,143,o),
(197,167,o),
(193,191,c),
(189,209,o),
(187,227,o),
(184,245,c),
(183,250,o),
(182,253,o),
(176,252,c),
(159,248,o),
(141,244,o),
(124,240,c),
(119,239,o),
(117,236,o),
(117,231,c),
(114,198,o),
(110,166,o),
(107,133,c),
(106,125,o),
(106,117,o),
(106,109,c),
(104,96,o),
(98,87,o),
(86,83,c),
(73,79,o),
(64,84,o),
(56,92,c),
(50,98,o),
(49,105,o),
(49,113,c),
(48,125,o),
(47,138,o),
(48,152,c),
(48,171,o),
(50,190,o),
(51,210,c),
(52,216,o),
(51,221,o),
(43,223,c),
(25,227,o),
(17,254,o),
(35,269,c),
(40,274,o),
(45,277,o),
(51,279,c),
(59,281,o),
(61,286,o),
(61,293,c),
(64,312,o),
(66,332,o),
(69,351,c),
(76,399,o),
(84,447,o),
(94,495,c),
(100,521,o),
(104,547,o),
(113,573,c),
(116,581,o),
(119,589,o),
(123,596,c),
(140,623,o),
(173,623,o),
(189,596,c),
(193,590,o),
(196,584,o),
(198,577,c),
(203,580,o),
(208,581,o),
(213,582,c),
(245,587,o),
(277,593,o),
(309,594,c),
(324,594,o),
(339,594,o),
(353,591,c),
(364,588,o),
(373,583,o),
(381,574,c),
(388,566,o),
(389,558,o),
(384,550,c),
(379,543,o),
(371,540,o),
(361,544,c),
(350,548,o),
(338,547,o),
(326,546,c),
(302,542,o),
(279,537,o),
(256,532,c),
(250,531,o),
(247,529,o),
(247,522,c),
(250,470,o),
(247,417,o),
(249,365,c),
(250,354,o),
(250,354,o),
(260,356,c),
(276,359,o),
(293,358,o),
(309,359,c),
(321,359,o),
(333,359,o),
(346,358,c),
(357,358,o),
(363,353,o),
(365,344,c),
(366,336,o),
(362,329,o),
(352,324,c),
(340,318,o),
(325,317,o),
(312,314,c),
(294,311,o),
(277,308,o),
(260,306,c),
(253,305,o),
(252,302,o),
(252,295,c),
(252,293,o),
(253,290,o),
(253,288,c),
(253,286,o),
(253,284,o),
(253,283,c),
(256,251,o),
(259,219,o),
(266,188,c),
(271,166,o),
(270,165,o),
(291,178,c),
(315,193,o),
(336,213,o),
(354,235,c),
(358,240,o),
(362,244,o),
(368,247,c)
);
}
);
width = 416;
}
);
unicode = 198;
},
{
glyphname = B;
lastChange = "2022-09-01 02:06:14 +0000";
layers = (
{
anchors = (
{
name = bottom;
pos = (163,0);
},
{
name = center;
pos = (163,400);
},
{
name = top;
pos = (141,610);
}
);
layerId = m01;
shapes = (
{
closed = 1;
nodes = (
(117,393,o),
(118,398,o),
(121,402,c),
(139,425,o),
(154,451,o),
(166,478,c),
(172,492,o),
(178,507,o),
(178,522,c),
(178,541,o),
(167,553,o),
(149,554,c),
(134,554,o),
(120,549,o),
(107,542,c),
(106,541,o),
(103,540,o),
(104,537,c),
(108,530,o),
(106,524,o),
(100,519,c),
(98,517,o),
(99,512,o),
(100,509,c),
(102,489,o),
(103,469,o),
(105,450,c),
(106,430,o),
(107,411,o),
(111,390,c)
);
},
{
closed = 1;
nodes = (
(136,154,o),
(144,158,o),
(152,162,c),
(183,177,o),
(209,197,o),
(225,228,c),
(235,246,o),
(241,266,o),
(239,287,c),
(238,303,o),
(232,310,o),
(216,315,c),
(201,319,o),
(186,318,o),
(172,316,c),
(154,315,o),
(137,308,o),
(119,306,c),
(114,306,o),
(115,302,o),
(115,298,c),
(118,270,o),
(119,242,o),
(120,214,c),
(121,194,o),
(122,173,o),
(126,150,c)
);
},
{
closed = 1;
nodes = (
(197,374,o),
(211,373,o),
(225,368,c),
(243,362,o),
(261,355,o),
(275,341,c),
(297,316,o),
(305,288,o),
(300,256,c),
(294,218,o),
(277,185,o),
(251,158,c),
(202,107,o),
(141,84,o),
(71,81,c),
(58,81,o),
(46,85,o),
(36,94,c),
(27,102,o),
(24,113,o),
(25,124,c),
(27,139,o),
(42,146,o),
(54,136,c),
(65,127,o),
(75,133,o),
(86,136,c),
(89,137,o),
(88,140,o),
(87,142,c),
(83,188,o),
(68,231,o),
(62,276,c),
(55,322,o),
(48,368,o),
(45,414,c),
(43,439,o),
(41,463,o),
(40,487,c),
(40,494,o),
(41,500,o),
(41,506,c),
(42,518,o),
(45,529,o),
(42,540,c),
(40,553,o),
(45,565,o),
(53,573,c),
(87,608,o),
(127,625,o),
(176,612,c),
(210,603,o),
(236,572,o),
(240,537,c),
(243,515,o),
(238,494,o),
(231,473,c),
(222,445,o),
(207,419,o),
(192,394,c),
(188,389,o),
(185,383,o),
(181,377,c)
);
}
);
width = 326;
}
);
unicode = 66;
},
{
glyphname = C;
kernLeft = C;
kernRight = C;
lastChange = "2022-09-01 02:03:25 +0000";
layers = (
{
anchors = (
{
name = bottom;
pos = (155,114);
},
{
name = top;
pos = (140,583);
}
);
layerId = m01;
shapes = (
{
closed = 1;
nodes = (
(25,400,o),
(33,451,o),
(54,499,c),
(62,520,o),
(73,539,o),
(88,556,c),
(100,569,o),
(113,580,o),
(129,586,c),
(156,598,o),
(194,590,o),
(213,557,c),
(224,537,o),
(227,516,o),
(218,494,c),
(217,491,o),
(216,488,o),
(214,486,c),
(209,480,o),
(202,480,o),
(198,487,c),
(197,490,o),
(196,493,o),
(195,496,c),
(190,515,o),
(175,523,o),
(158,529,c),
(152,531,o),
(147,526,o),
(143,523,c),
(134,515,o),
(127,505,o),
(121,495,c),
(109,474,o),
(101,451,o),
(96,428,c),
(83,364,o),
(84,302,o),
(103,239,c),
(108,220,o),
(117,202,o),
(130,186,c),
(136,179,o),
(143,173,o),
(151,168,c),
(168,157,o),
(181,161,o),
(194,175,c),
(203,184,o),
(209,195,o),
(215,205,c),
(218,210,o),
(221,214,o),
(224,218,c),
(230,224,o),
(238,226,o),
(245,222,c),
(252,218,o),
(257,211,o),
(255,203,c),
(247,172,o),
(236,143,o),
(209,123,c),
(186,105,o),
(160,102,o),
(133,113,c),
(105,123,o),
(84,142,o),
(68,166,c),
(51,191,o),
(42,218,o),
(36,247,c),
(28,280,o),
(25,313,o),
(25,347,c)
);
}
);
width = 260;
}
);
unicode = 67;
},
{
glyphname = D;
kernLeft = D;
kernRight = D;
lastChange = "2022-09-01 02:11:56 +0000";
layers = (
{
anchors = (
{
name = bottom;
pos = (165,0);
},
{
name = center;
pos = (165,400);
},
{
name = top;
pos = (146,606);
}
);
layerId = m01;
shapes = (
{
closed = 1;
nodes = (
(111,138,o),
(116,143,o),
(121,147,c),
(147,169,o),
(167,196,o),
(186,225,c),
(211,263,o),
(226,306,o),
(235,350,c),
(244,394,o),
(244,438,o),
(226,481,c),
(219,497,o),
(210,512,o),
(198,524,c),
(160,562,o),
(115,547,o),
(89,521,c),
(86,517,o),
(84,514,o),
(84,509,c),
(84,500,o),
(84,491,o),
(85,481,c),
(91,434,o),
(94,386,o),
(97,339,c),
(99,316,o),
(101,294,o),
(102,271,c),
(103,230,o),
(103,190,o),
(103,149,c),
(103,145,o),
(102,140,o),
(104,135,c)
);
},
{
closed = 1;
nodes = (
(303,348,o),
(289,291,o),
(260,238,c),
(232,188,o),
(196,145,o),
(150,111,c),
(138,102,o),
(126,95,o),
(112,91,c),
(107,90,o),
(102,89,o),
(97,88,c),
(75,86,o),
(51,105,o),
(49,128,c),
(49,134,o),
(50,140,o),
(55,143,c),
(61,145,o),
(60,149,o),
(59,153,c),
(55,170,o),
(52,188,o),
(49,206,c),
(45,229,o),
(41,253,o),
(39,277,c),
(34,342,o),
(30,408,o),
(25,474,c),
(25,486,o),
(25,498,o),
(25,510,c),
(25,525,o),
(30,537,o),
(38,550,c),
(59,583,o),
(89,601,o),
(127,608,c),
(166,615,o),
(200,603,o),
(230,579,c),
(273,543,o),
(295,495,o),
(302,439,c),
(303,433,o),
(303,427,o),
(304,420,c),
(304,416,o),
(304,413,o),
(304,409,c)
);
}
);
width = 329;
}
);
unicode = 68;
},
{
glyphname = Eth;
kernLeft = D;
kernRight = D;
lastChange = "2022-09-01 02:50:27 +0000";
layers = (
{
layerId = m01;
shapes = (
{
closed = 1;
nodes = (
(244,394,o),
(244,438,o),
(226,481,c),
(219,497,o),
(210,512,o),
(197,524,c),
(159,562,o),
(114,547,o),
(88,521,c),
(85,517,o),
(83,514,o),
(84,509,c),
(84,500,o),
(84,491,o),
(85,481,c),
(89,443,o),
(92,404,o),
(95,366,c),
(100,367,o),
(106,367,o),
(111,368,c),
(130,371,o),
(183,370,o),
(188,366,c),
(200,358,o),
(201,347,o),
(191,337,c),
(186,332,o),
(126,320,o),
(120,319,c),
(113,317,o),
(106,315,o),
(99,314,c),
(100,299,o),
(101,285,o),
(101,271,c),
(103,230,o),
(103,190,o),
(102,149,c),
(102,145,o),
(102,140,o),
(104,135,c),
(111,138,o),
(116,143,o),
(120,147,c),
(147,169,o),
(167,196,o),
(185,225,c),
(210,263,o),
(226,306,o),
(235,350,c)
);
},
{
closed = 1;
nodes = (
(304,416,o),
(304,413,o),
(304,409,c),
(303,348,o),
(289,291,o),
(259,238,c),
(232,188,o),
(195,145,o),
(149,111,c),
(138,102,o),
(126,95,o),
(112,91,c),
(107,90,o),
(102,89,o),
(97,88,c),
(74,86,o),
(51,105,o),
(49,128,c),
(48,134,o),
(49,140,o),
(55,143,c),
(60,145,o),
(60,149,o),
(59,153,c),
(54,170,o),
(52,188,o),
(49,206,c),
(44,229,o),
(40,253,o),
(39,277,c),
(38,284,o),
(38,291,o),
(37,299,c),
(16,294,o),
(-8,288,o),
(-12,289,c),
(-30,294,o),
(-38,320,o),
(-21,336,c),
(-16,340,o),
(-10,344,o),
(-4,345,c),
(-1,347,o),
(12,350,o),
(33,355,c),
(30,395,o),
(28,434,o),
(25,474,c),
(24,486,o),
(25,498,o),
(25,510,c),
(25,525,o),
(30,537,o),
(38,550,c),
(59,583,o),
(89,601,o),
(127,608,c),
(165,615,o),
(200,603,o),
(229,579,c),
(273,543,o),
(295,495,o),
(302,439,c),
(302,433,o),
(303,427,o),
(304,420,c)
);
}
);
width = 329;
}
);
unicode = 208;
},
{
glyphname = E;
kernLeft = E;
kernRight = E;
lastChange = "2022-09-01 02:11:58 +0000";
layers = (
{
anchors = (
{
name = bottom;
pos = (115,113);
},
{
name = ogonek;
pos = (116,126);
},
{
name = top;
pos = (134,586);
},
{
name = topleft;
pos = (20,800);
}
);
layerId = m01;
shapes = (
{
closed = 1;
nodes = (
(33,392,o),
(35,431,o),
(34,470,c),
(33,485,o),
(35,500,o),
(36,515,c),
(36,522,o),
(36,527,o),
(31,533,c),
(21,545,o),
(24,562,o),
(37,571,c),
(44,576,o),
(53,581,o),
(62,582,c),
(94,587,o),
(126,593,o),
(158,594,c),
(173,594,o),
(188,594,o),
(202,591,c),
(213,588,o),
(222,583,o),
(230,574,c),
(237,566,o),
(238,558,o),
(233,550,c),
(228,543,o),
(220,540,o),
(210,544,c),
(199,548,o),
(187,547,o),
(175,546,c),
(151,542,o),
(128,537,o),
(105,532,c),
(99,531,o),
(96,529,o),
(96,522,c),
(99,470,o),
(96,417,o),
(98,365,c),
(99,354,o),
(99,354,o),
(109,356,c),
(125,359,o),
(142,358,o),
(158,359,c),
(170,359,o),
(182,359,o),
(195,358,c),
(206,358,o),
(212,353,o),
(214,344,c),
(215,336,o),
(211,329,o),
(201,324,c),
(189,318,o),
(174,317,o),
(161,314,c),
(143,311,o),
(126,308,o),
(109,306,c),
(102,305,o),
(101,302,o),
(101,295,c),
(104,259,o),
(108,223,o),
(115,188,c),
(120,166,o),
(119,165,o),
(140,178,c),
(164,193,o),
(185,213,o),
(203,235,c),
(207,240,o),
(211,244,o),
(217,247,c),
(228,252,o),
(240,244,o),
(240,232,c),
(239,228,o),
(239,224,o),
(237,220,c),
(235,211,o),
(231,203,o),
(225,195,c),
(204,163,o),
(178,136,o),
(146,114,c),
(116,95,o),
(86,105,o),
(71,131,c),
(58,152,o),
(54,175,o),
(49,199,c),
(43,234,o),
(40,271,o),
(38,307,c),
(37,322,o),
(37,337,o),
(36,353,c)
);
}
);
width = 265;
}
);
unicode = 69;
},
{
glyphname = F;
lastChange = "2022-09-01 02:12:00 +0000";
layers = (
{
anchors = (
{
name = bottom;
pos = (161,0);
},
{
name = top;
pos = (161,800);
}
);
layerId = m01;
shapes = (
{
closed = 1;
nodes = (
(107,382,o),
(107,382,o),
(118,384,c),
(153,391,o),
(188,392,o),
(223,388,c),
(227,388,o),
(230,387,o),
(233,386,c),
(248,378,o),
(250,361,o),
(237,350,c),
(228,342,o),
(216,338,o),
(203,336,c),
(176,332,o),
(148,328,o),
(120,323,c),
(111,322,o),
(110,322,o),
(111,312,c),
(113,285,o),
(115,258,o),
(117,232,c),
(119,205,o),
(121,178,o),
(124,151,c),
(125,138,o),
(126,125,o),
(132,113,c),
(135,105,o),
(132,95,o),
(125,89,c),
(117,83,o),
(106,83,o),
(98,88,c),
(91,94,o),
(87,102,o),
(83,110,c),
(75,134,o),
(70,159,o),
(65,185,c),
(57,225,o),
(52,265,o),
(49,306,c),
(45,356,o),
(43,405,o),
(42,454,c),
(41,479,o),
(39,503,o),
(40,527,c),
(40,530,o),
(40,534,o),
(37,537,c),
(16,559,o),
(23,585,o),
(52,595,c),
(64,599,o),
(77,602,o),
(89,604,c),
(125,609,o),
(161,613,o),
(198,613,c),
(218,614,o),
(238,613,o),
(257,607,c),
(270,604,o),
(282,597,o),
(291,585,c),
(295,579,o),
(297,573,o),
(296,565,c),
(293,554,o),
(282,545,o),
(271,549,c),
(244,558,o),
(217,552,o),
(191,551,c),
(165,550,o),
(140,547,o),
(114,545,c),
(103,544,o),
(103,544,o),
(103,533,c),
(103,510,o),
(105,417,o),
(106,393,c)
);
}
);
width = 281;
}
);
unicode = 70;
},
{
glyphname = G;
kernLeft = G;
kernRight = G;
lastChange = "2022-09-01 02:12:02 +0000";
layers = (
{
anchors = (
{
name = bottom;
pos = (103,103);
},
{
name = top;
pos = (189,599);
}
);
layerId = m01;
shapes = (
{
closed = 1;
nodes = (
(185,350,o),
(175,348,o),
(166,345,c),
(155,342,o),
(149,344,o),
(143,352,c),
(137,360,o),
(137,371,o),
(142,379,c),
(145,385,o),
(151,389,o),
(157,392,c),
(166,396,o),
(175,398,o),
(184,399,c),
(210,402,o),
(237,406,o),
(263,406,c),
(283,406,o),
(303,407,o),
(323,402,c),
(331,401,o),
(339,398,o),
(347,393,c),
(353,388,o),
(355,382,o),
(353,376,c),
(351,370,o),
(345,366,o),
(337,367,c),
(318,369,o),
(299,368,o),
(279,367,c),
(277,366,o),
(274,366,o),
(272,366,c),
(259,363,o),
(260,365,o),
(260,352,c),
(258,320,o),
(256,289,o),
(253,257,c),
(250,234,o),
(244,210,o),
(240,187,c),
(238,167,o),
(234,147,o),
(231,127,c),
(231,126,o),
(231,124,o),
(231,122,c),
(228,112,o),
(222,106,o),
(214,105,c),
(205,105,o),
(197,110,o),
(194,120,c),
(191,132,o),
(192,145,o),
(191,157,c),
(190,162,o),
(191,166,o),
(190,171,c),
(182,157,o),
(174,143,o),
(165,131,c),
(156,119,o),
(146,109,o),
(133,102,c),
(114,90,o),
(85,92,o),
(67,112,c),
(57,124,o),
(49,136,o),
(44,151,c),
(36,172,o),
(31,195,o),
(29,218,c),
(23,266,o),
(25,314,o),
(31,362,c),
(37,407,o),
(49,449,o),
(66,491,c),
(78,518,o),
(93,543,o),
(112,566,c),
(124,579,o),
(138,590,o),
(155,598,c),
(178,608,o),
(212,606,o),
(233,578,c),
(244,563,o),
(254,548,o),
(257,529,c),
(258,524,o),
(258,519,o),
(256,514,c),
(253,506,o),
(247,504,o),
(241,511,c),
(238,514,o),
(235,518,o),
(232,522,c),
(225,531,o),
(217,539,o),
(207,544,c),
(196,551,o),
(187,549,o),
(177,542,c),
(162,530,o),
(151,515,o),
(141,499,c),
(123,469,o),
(111,437,o),
(103,403,c),
(93,364,o),
(89,325,o),
(88,285,c),
(88,253,o),
(89,220,o),
(98,188,c),
(100,178,o),
(103,169,o),
(108,160,c),
(112,152,o),
(113,152,o),
(120,158,c),
(133,169,o),
(141,183,o),
(149,198,c),
(160,220,o),
(168,244,o),
(175,267,c),
(182,289,o),
(188,311,o),
(193,333,c),
(195,339,o),
(196,345,o),
(196,353,c)
);
}
);
width = 349;
}
);
unicode = 71;
},
{
glyphname = H;
kernLeft = H;
kernRight = H;
lastChange = "2022-09-01 02:07:31 +0000";
layers = (
{
anchors = (
{
name = bottom;
pos = (139,0);
},
{
name = center;
pos = (139,400);
},
{
name = top;
pos = (159,581);
},
{
name = topleft;
pos = (20,800);
}
);
layerId = m01;
shapes = (
{
closed = 1;
nodes = (
(165,335,o),
(142,327,o),
(120,319,c),
(112,316,o),
(103,312,o),
(95,309,c),
(89,308,o),
(87,305,o),
(87,298,c),
(88,263,o),
(89,229,o),
(92,194,c),
(94,172,o),
(95,151,o),
(98,130,c),
(99,121,o),
(94,114,o),
(87,112,c),
(81,110,o),
(73,114,o),
(68,121,c),
(65,127,o),
(63,133,o),
(62,139,c),
(53,172,o),
(48,206,o),
(44,240,c),
(41,256,o),
(39,272,o),
(37,288,c),
(36,295,o),
(35,302,o),
(30,308,c),
(24,315,o),
(24,324,o),
(28,332,c),
(30,336,o),
(31,340,o),
(30,345,c),
(24,400,o),
(25,454,o),
(26,509,c),
(27,526,o),
(28,542,o),
(30,559,c),
(32,568,o),
(36,577,o),
(43,584,c),
(56,597,o),
(76,593,o),
(83,575,c),
(87,567,o),
(87,558,o),
(87,549,c),
(87,515,o),
(88,480,o),
(87,446,c),
(87,422,o),
(89,399,o),
(88,375,c),
(88,367,o),
(89,366,o),
(97,368,c),
(124,377,o),
(152,382,o),
(180,387,c),
(190,389,o),
(190,389,o),
(190,398,c),
(189,424,o),
(188,450,o),
(190,476,c),
(192,499,o),
(193,523,o),
(200,545,c),
(202,553,o),
(205,560,o),
(209,566,c),
(215,573,o),
(221,577,o),
(230,576,c),
(239,575,o),
(244,569,o),
(247,561,c),
(252,546,o),
(253,530,o),
(253,515,c),
(252,476,o),
(251,437,o),
(248,398,c),
(248,393,o),
(247,387,o),
(250,382,c),
(253,378,o),
(253,373,o),
(251,370,c),
(243,358,o),
(245,344,o),
(244,331,c),
(242,290,o),
(240,248,o),
(238,206,c),
(238,188,o),
(238,169,o),
(238,151,c),
(238,143,o),
(239,135,o),
(241,127,c),
(243,118,o),
(240,112,o),
(233,108,c),
(227,105,o),
(221,106,o),
(214,112,c),
(206,118,o),
(204,127,o),
(201,136,c),
(196,153,o),
(195,171,o),
(194,189,c),
(191,232,o),
(193,275,o),
(190,318,c),
(189,325,o),
(190,333,o),
(190,342,c)
);
}
);
width = 278;
}
);
unicode = 72;
},
{
glyphname = Hbar;
kernLeft = H;
kernRight = H;
lastChange = "2022-09-01 02:50:45 +0000";
layers = (
{
layerId = m01;
shapes = (
{
closed = 1;
nodes = (
(191,389,o),
(191,389,o),
(191,398,c),
(190,422,o),
(189,446,o),
(191,470,c),
(157,465,o),
(118,458,o),
(88,451,c),
(88,450,o),
(88,448,o),
(88,446,c),
(88,422,o),
(90,399,o),
(89,375,c),
(89,367,o),
(90,366,o),
(97,368,c),
(125,377,o),
(153,382,o),
(181,387,c)
);
},
{
closed = 1;
nodes = (
(252,453,o),
(251,425,o),
(249,398,c),
(249,393,o),
(248,387,o),
(251,382,c),
(254,378,o),
(254,373,o),
(252,370,c),
(244,358,o),
(246,344,o),
(245,331,c),
(242,290,o),
(241,248,o),
(239,206,c),
(238,188,o),
(239,169,o),
(239,151,c),
(239,143,o),
(240,135,o),
(241,127,c),
(244,118,o),
(241,112,o),
(234,108,c),
(228,105,o),
(222,106,o),
(214,112,c),
(207,118,o),
(204,127,o),
(202,136,c),
(197,153,o),
(196,171,o),
(195,189,c),
(192,232,o),
(194,275,o),
(191,318,c),
(190,325,o),
(191,333,o),
(191,342,c),
(166,335,o),
(143,327,o),
(121,319,c),
(113,316,o),
(104,312,o),
(96,309,c),
(90,308,o),
(88,305,o),
(88,298,c),
(88,263,o),
(90,229,o),
(93,194,c),
(95,172,o),
(96,151,o),
(99,130,c),
(100,121,o),
(95,114,o),
(87,112,c),
(82,110,o),
(74,114,o),
(69,121,c),
(66,127,o),
(64,133,o),
(62,139,c),
(54,172,o),
(49,206,o),
(44,240,c),
(42,256,o),
(40,272,o),
(38,288,c),
(37,295,o),
(36,302,o),
(31,308,c),
(25,315,o),
(24,324,o),
(29,332,c),
(31,336,o),
(32,340,o),
(31,345,c),
(28,376,o),
(26,406,o),
(26,436,c),
(22,436,o),
(19,435,o),
(18,436,c),
(0,441,o),
(-8,467,o),
(9,483,c),
(14,487,o),
(20,490,o),
(26,492,c),
(26,492,o),
(26,492,o),
(27,492,c),
(27,498,o),
(27,503,o),
(27,509,c),
(28,526,o),
(28,542,o),
(31,559,c),
(33,568,o),
(37,577,o),
(44,584,c),
(57,597,o),
(77,593,o),
(84,575,c),
(88,567,o),
(88,558,o),
(88,549,c),
(88,534,o),
(88,518,o),
(88,503,c),
(124,508,o),
(163,511,o),
(194,512,c),
(195,524,o),
(197,535,o),
(201,545,c),
(203,553,o),
(206,560,o),
(210,566,c),
(215,573,o),
(222,577,o),
(231,576,c),
(240,575,o),
(245,569,o),
(248,561,c),
(253,546,o),
(254,530,o),
(253,515,c),
(253,514,o),
(253,514,o),
(253,513,c),
(258,513,o),
(261,513,o),
(262,512,c),
(274,504,o),
(275,493,o),
(265,483,c),
(264,482,o),
(260,481,o),
(253,480,c)
);
}
);
width = 287;
}
);
unicode = 294;
},
{
glyphname = I;
kernLeft = I;
kernRight = I;
lastChange = "2022-09-01 02:09:59 +0000";
layers = (
{
anchors = (
{
name = bottom;
pos = (60,0);
},
{
name = ogonek;
pos = (79,114);
},
{
name = top;
pos = (63,603);
},
{
name = topleft;
pos = (20,800);
}
);
layerId = m01;
shapes = (
{
closed = 1;
nodes = (
(83,445,o),
(81,388,o),
(82,332,c),
(83,292,o),
(83,252,o),
(85,213,c),
(86,188,o),
(86,163,o),
(89,139,c),
(90,132,o),
(91,124,o),
(93,117,c),
(96,107,o),
(95,102,o),
(87,98,c),
(79,93,o),
(69,95,o),
(64,103,c),
(57,113,o),
(53,125,o),
(51,136,c),
(45,173,o),
(41,210,o),
(38,247,c),
(35,295,o),
(32,342,o),
(29,390,c),
(26,440,o),
(22,489,o),
(29,539,c),
(31,552,o),
(35,565,o),
(38,578,c),
(39,583,o),
(42,588,o),
(45,593,c),
(49,599,o),
(54,603,o),
(63,603,c),
(71,602,o),
(76,596,o),
(78,589,c),
(83,575,o),
(84,561,o),
(84,546,c),
(85,532,o),
(87,517,o),
(85,508,c)
);
}
);
width = 120;
}
);
unicode = 73;
},
{
glyphname = J;
kernLeft = J;
kernRight = J;
lastChange = "2022-09-01 02:10:32 +0000";
layers = (
{
anchors = (
{
name = bottom;
pos = (129,0);
},
{
name = top;
pos = (187,585);
}
);
layerId = m01;
shapes = (
{
closed = 1;
nodes = (
(171,440,o),
(167,482,o),
(162,524,c),
(160,540,o),
(159,556,o),
(159,571,c),
(159,576,o),
(159,581,o),
(161,585,c),
(168,602,o),
(187,606,o),
(199,593,c),
(205,586,o),
(210,578,o),
(213,570,c),
(224,536,o),
(228,501,o),
(231,466,c),
(235,413,o),
(234,359,o),
(229,305,c),
(225,273,o),
(220,241,o),
(211,210,c),
(203,185,o),
(193,161,o),
(177,140,c),
(159,116,o),
(136,102,o),
(107,98,c),
(75,93,o),
(45,110,o),
(34,143,c),
(31,150,o),
(29,158,o),
(27,166,c),
(26,169,o),
(25,173,o),
(25,176,c),
(26,181,o),
(28,184,o),
(33,186,c),
(38,187,o),
(42,185,o),
(44,182,c),
(48,175,o),
(51,168,o),
(55,161,c),
(56,159,o),
(57,156,o),
(58,153,c),
(70,130,o),
(93,125,o),
(114,141,c),
(122,147,o),
(128,155,o),
(132,164,c),
(143,187,o),
(149,212,o),
(154,237,c),
(160,262,o),
(164,286,o),
(166,311,c),
(169,333,o),
(171,355,o),
(170,378,c),
(170,384,o),
(170,391,o),
(170,398,c)
);
}
);
width = 258;
}
);
unicode = 74;
},
{
glyphname = K;
kernLeft = K;
kernRight = K;
lastChange = "2022-09-01 02:14:06 +0000";
layers = (
{
anchors = (
{
name = bottom;
pos = (149,126);
},
{
name = top;
pos = (160,558);
}
);
layerId = m01;
shapes = (
{
closed = 1;
nodes = (
(94,393,o),
(97,397,o),
(100,401,c),
(128,431,o),
(157,461,o),
(184,493,c),
(200,511,o),
(215,529,o),
(230,547,c),
(234,552,o),
(238,558,o),
(244,561,c),
(251,566,o),
(258,566,o),
(265,562,c),
(271,558,o),
(273,551,o),
(272,544,c),
(271,539,o),
(269,534,o),
(267,530,c),
(252,499,o),
(233,472,o),
(211,446,c),
(187,419,o),
(162,392,o),
(137,367,c),
(130,360,o),
(124,354,o),
(118,348,c),
(111,341,o),
(111,341,o),
(118,335,c),
(124,328,o),
(131,322,o),
(139,316,c),
(162,297,o),
(185,278,o),
(211,261,c),
(227,250,o),
(242,236,o),
(258,225,c),
(267,219,o),
(269,210,o),
(267,202,c),
(263,193,o),
(256,190,o),
(246,189,c),
(242,189,o),
(238,189,o),
(234,190,c),
(201,198,o),
(170,210,o),
(143,232,c),
(126,246,o),
(109,260,o),
(91,273,c),
(88,271,o),
(89,268,o),
(89,265,c),
(89,227,o),
(89,189,o),
(90,151,c),
(90,141,o),
(90,132,o),
(92,122,c),
(95,110,o),
(91,102,o),
(83,98,c),
(75,93,o),
(64,95,o),
(56,101,c),
(50,107,o),
(46,115,o),
(43,123,c),
(38,139,o),
(36,156,o),
(34,173,c),
(28,221,o),
(26,269,o),
(26,317,c),
(25,397,o),
(24,477,o),
(26,557,c),
(26,564,o),
(27,572,o),
(28,579,c),
(32,594,o),
(45,604,o),
(60,603,c),
(75,601,o),
(87,589,o),
(86,573,c),
(85,541,o),
(88,509,o),
(88,477,c),
(87,449,o),
(87,421,o),
(87,391,c)
);
}
);
width = 277;
}
);
unicode = 75;
},
{
glyphname = L;
kernLeft = L;
kernRight = L;
lastChange = "2022-09-01 02:14:08 +0000";
layers = (
{
anchors = (
{
name = bottom;
pos = (132,104);
},
{
name = center;
pos = (181,400);
},
{
name = top;
pos = (104,613);
},
{
name = topright;
pos = (234,597);
}
);
layerId = m01;
shapes = (
{
closed = 1;
nodes = (
(26,286,o),
(25,330,o),
(25,373,c),
(25,416,o),
(24,458,o),
(25,501,c),
(25,523,o),
(25,544,o),
(27,566,c),
(28,573,o),
(29,580,o),
(31,586,c),
(33,592,o),
(35,597,o),
(40,602,c),
(52,614,o),
(71,611,o),
(80,596,c),
(85,589,o),
(86,580,o),
(87,571,c),
(89,521,o),
(88,472,o),
(85,422,c),
(85,417,o),
(84,412,o),
(84,407,c),
(83,363,o),
(82,318,o),
(80,274,c),
(79,241,o),
(79,208,o),
(80,174,c),
(80,157,o),
(81,157,o),
(97,160,c),
(124,166,o),
(150,173,o),
(177,177,c),
(204,181,o),
(231,184,o),
(257,183,c),
(272,183,o),
(287,183,o),
(302,183,c),
(310,183,o),
(318,182,o),
(324,178,c),
(333,174,o),
(337,164,o),
(335,156,c),
(334,149,o),
(327,143,o),
(322,146,c),
(308,153,o),
(296,147,o),
(283,145,c),
(270,143,o),
(257,138,o),
(244,133,c),
(204,119,o),
(162,110,o),
(120,101,c),
(104,98,o),
(89,94,o),
(73,90,c),
(68,89,o),
(62,88,o),
(57,89,c),
(36,91,o),
(24,105,o),
(25,125,c),
(26,148,o),
(28,170,o),
(27,193,c),
(27,209,o),
(27,226,o),
(27,248,c)
);
}
);
width = 341;
}
);
unicode = 76;
},
{
glyphname = Lslash;
kernLeft = L;
kernRight = L;
lastChange = "2022-09-01 04:15:46 +0000";
layers = (
{
layerId = m01;
shapes = (
{
closed = 1;
nodes = (
(341,174,o),
(345,164,o),
(344,156,c),
(342,149,o),
(335,143,o),
(330,146,c),
(316,153,o),
(304,147,o),
(291,145,c),
(278,143,o),
(265,138,o),
(252,133,c),
(212,119,o),
(170,110,o),
(128,101,c),
(113,98,o),
(97,94,o),
(81,90,c),
(76,89,o),
(70,88,o),
(65,89,c),
(44,91,o),
(32,105,o),
(33,125,c),
(34,148,o),
(36,170,o),
(35,193,c),
(35,209,o),
(35,226,o),
(35,248,c),
(35,265,o),
(34,283,o),
(34,302,c),
(26,293,o),
(19,285,o),
(16,283,c),
(-1,276,o),
(-24,292,o),
(-20,315,c),
(-19,321,o),
(-16,328,o),
(-12,333,c),
(0,348,o),
(16,365,o),
(33,382,c),
(33,422,o),
(33,462,o),
(33,501,c),
(33,523,o),
(33,544,o),
(35,566,c),
(36,573,o),
(37,580,o),
(39,586,c),
(41,592,o),
(43,597,o),
(48,602,c),
(60,614,o),
(80,611,o),
(88,596,c),
(93,589,o),
(94,580,o),
(95,571,c),
(97,527,o),
(96,483,o),
(94,439,c),
(129,470,o),
(159,493,o),
(162,493,c),
(177,493,o),
(184,486,o),
(182,472,c),
(182,466,o),
(133,418,o),
(91,373,c),
(91,340,o),
(89,307,o),
(88,274,c),
(87,241,o),
(87,208,o),
(88,174,c),
(88,157,o),
(89,157,o),
(105,160,c),
(132,166,o),
(158,173,o),
(185,177,c),
(212,181,o),
(239,184,o),
(266,183,c),
(281,183,o),
(295,183,o),
(310,183,c),
(318,183,o),
(326,182,o),
(333,178,c)
);
}
);
width = 369;
}
);
unicode = 321;
},
{
glyphname = M;
kernLeft = M;
kernRight = M;
lastChange = "2022-09-01 02:14:13 +0000";
layers = (
{
anchors = (
{
name = bottom;
pos = (172,289);
},
{
name = top;
pos = (204,572);
}
);
layerId = m01;
shapes = (
{
closed = 1;
nodes = (
(285,473,o),
(280,463,o),
(275,453,c),
(259,425,o),
(245,396,o),
(231,366,c),
(220,343,o),
(209,319,o),
(198,294,c),
(193,283,o),
(184,277,o),
(172,276,c),
(160,275,o),
(151,281,o),
(144,291,c),
(139,298,o),
(136,307,o),
(134,315,c),
(123,352,o),
(110,388,o),
(102,425,c),
(101,429,o),
(99,433,o),
(96,437,c),
(96,430,o),
(95,423,o),
(94,417,c),
(92,372,o),
(90,327,o),
(88,282,c),
(86,249,o),
(82,216,o),
(77,183,c),
(76,172,o),
(75,162,o),
(73,151,c),
(72,144,o),
(69,138,o),
(61,136,c),
(54,133,o),
(45,136,o),
(41,144,c),
(37,149,o),
(37,155,o),
(35,161,c),
(29,199,o),
(24,238,o),
(25,277,c),
(26,319,o),
(28,362,o),
(31,404,c),
(34,433,o),
(35,461,o),
(37,490,c),
(39,513,o),
(42,537,o),
(48,560,c),
(49,567,o),
(51,574,o),
(55,580,c),
(63,593,o),
(75,598,o),
(90,594,c),
(110,589,o),
(120,576,o),
(126,558,c),
(144,510,o),
(156,460,o),
(171,411,c),
(174,400,o),
(177,388,o),
(181,377,c),
(187,379,o),
(187,384,o),
(189,388,c),
(209,421,o),
(224,456,o),
(243,490,c),
(256,513,o),
(270,536,o),
(285,558,c),
(288,563,o),
(291,569,o),
(293,574,c),
(296,586,o),
(308,595,o),
(319,596,c),
(331,597,o),
(344,590,o),
(349,579,c),
(353,572,o),
(354,563,o),
(355,555,c),
(357,532,o),
(357,508,o),
(358,484,c),
(358,426,o),
(356,369,o),
(351,311,c),
(349,291,o),
(350,270,o),
(349,249,c),
(347,206,o),
(347,163,o),
(347,120,c),
(347,110,o),
(342,104,o),
(335,102,c),
(328,101,o),
(320,104,o),
(316,112,c),
(312,120,o),
(310,129,o),
(309,137,c),
(306,157,o),
(306,178,o),
(304,198,c),
(301,235,o),
(301,272,o),
(298,309,c),
(293,364,o),
(293,419,o),
(294,474,c),
(294,476,o),
(294,478,o),
(293,484,c)
);
}
);
width = 383;
}
);
unicode = 77;
},
{
glyphname = N;
kernLeft = N;
kernRight = N;
lastChange = "2022-09-01 02:09:22 +0000";
layers = (
{
anchors = (
{
name = bottom;
pos = (157,132);
},
{
name = top;
pos = (151,593);
}
);
layerId = m01;
shapes = (
{
closed = 1;
nodes = (
(84,359,o),
(85,346,o),
(85,332,c),
(84,302,o),
(85,273,o),
(83,244,c),
(81,202,o),
(80,161,o),
(82,120,c),
(82,119,o),
(82,118,o),
(82,117,c),
(82,109,o),
(80,103,o),
(75,102,c),
(69,101,o),
(63,105,o),
(60,114,c),
(56,132,o),
(54,151,o),
(51,169,c),
(48,188,o),
(45,207,o),
(42,226,c),
(39,244,o),
(38,262,o),
(36,279,c),
(33,308,o),
(31,336,o),
(30,364,c),
(26,416,o),
(25,469,o),
(25,522,c),
(25,539,o),
(27,556,o),
(32,573,c),
(33,577,o),
(34,581,o),
(37,584,c),
(45,598,o),
(63,600,o),
(74,588,c),
(80,582,o),
(86,574,o),
(89,565,c),
(106,524,o),
(119,483,o),
(132,441,c),
(146,395,o),
(163,350,o),
(182,307,c),
(194,277,o),
(208,248,o),
(225,220,c),
(228,216,o),
(229,211,o),
(235,208,c),
(236,225,o),
(237,241,o),
(237,256,c),
(237,282,o),
(237,308,o),
(236,334,c),
(234,381,o),
(235,428,o),
(235,475,c),
(235,502,o),
(235,528,o),
(233,554,c),
(233,560,o),
(233,565,o),
(227,568,c),
(221,571,o),
(223,579,o),
(228,582,c),
(237,587,o),
(249,586,o),
(253,575,c),
(257,567,o),
(259,558,o),
(261,550,c),
(272,503,o),
(274,455,o),
(277,407,c),
(279,358,o),
(283,310,o),
(287,261,c),
(288,232,o),
(290,204,o),
(289,176,c),
(288,162,o),
(287,149,o),
(283,136,c),
(277,113,o),
(253,104,o),
(232,115,c),
(223,120,o),
(216,128,o),
(209,137,c),
(189,159,o),
(173,184,o),
(158,210,c),
(139,247,o),
(122,285,o),
(107,323,c),
(101,339,o),
(96,354,o),
(90,370,c),
(89,371,o),
(89,373,o),
(86,373,c)
);
}
);
width = 314;
}
);
unicode = 78;
},
{
glyphname = O;
kernLeft = O;
kernRight = O;
lastChange = "2022-09-01 02:14:17 +0000";
layers = (
{
anchors = (
{
name = bottom;
pos = (160,0);
},
{
name = center;
pos = (160,400);
},
{
name = ogonek;
pos = (195,103);
},
{
name = top;
pos = (164,619);
},
{
name = topleft;
pos = (20,800);
},
{
name = topright;
pos = (299,800);
}
);
layerId = m01;
shapes = (
{
closed = 1;
nodes = (
(139,551,o),
(138,547,o),
(137,544,c),
(132,533,o),
(127,523,o),
(123,512,c),
(100,457,o),
(90,399,o),
(88,340,c),
(87,313,o),
(88,286,o),
(92,258,c),
(95,232,o),
(101,206,o),
(111,182,c),
(115,172,o),
(120,162,o),
(127,154,c),
(141,137,o),
(159,133,o),
(178,144,c),
(195,154,o),
(207,170,o),
(215,187,c),
(223,206,o),
(229,225,o),
(233,245,c),
(240,282,o),
(240,319,o),
(235,357,c),
(231,384,o),
(224,410,o),
(217,436,c),
(209,464,o),
(200,491,o),
(188,517,c),
(183,529,o),
(177,541,o),
(167,550,c),
(165,552,o),
(163,554,o),
(161,552,c),
(154,545,o),
(149,550,o),
(144,553,c)
);
},
{
closed = 1;
nodes = (
(25,369,o),
(30,407,o),
(37,444,c),
(44,479,o),
(54,513,o),
(69,545,c),
(76,560,o),
(84,573,o),
(96,584,c),
(100,588,o),
(105,592,o),
(110,595,c),
(119,598,o),
(126,604,o),
(132,611,c),
(141,619,o),
(153,622,o),
(164,619,c),
(189,614,o),
(209,602,o),
(224,581,c),
(238,561,o),
(248,539,o),
(257,517,c),
(284,448,o),
(297,377,o),
(293,303,c),
(290,262,o),
(283,221,o),
(269,183,c),
(259,153,o),
(243,127,o),
(219,107,c),
(190,83,o),
(158,70,o),
(121,83,c),
(101,89,o),
(86,103,o),
(74,120,c),
(57,143,o),
(48,169,o),
(40,196,c),
(29,236,o),
(25,278,o),
(25,320,c),
(25,324,o),
(25,327,o),
(25,331,c)
);
}
);
width = 319;
}
);
unicode = 79;
},
{
glyphname = Oslash;
kernLeft = O;
kernRight = O;
lastChange = "2022-09-01 04:16:10 +0000";
layers = (
{
layerId = m01;
shapes = (
{
closed = 1;
nodes = (
(247,282,o),
(247,319,o),
(242,357,c),
(240,375,o),
(236,394,o),
(231,412,c),
(190,341,o),
(140,257,o),
(111,203,c),
(113,196,o),
(116,189,o),
(119,182,c),
(123,172,o),
(128,162,o),
(134,154,c),
(148,137,o),
(166,133,o),
(185,144,c),
(203,154,o),
(214,170,o),
(223,187,c),
(231,206,o),
(236,225,o),
(240,245,c)
);
},
{
closed = 1;
nodes = (
(95,319,o),
(95,297,o),
(98,276,c),
(136,339,o),
(181,410,o),
(216,464,c),
(211,482,o),
(204,500,o),
(196,517,c),
(190,529,o),
(185,541,o),
(175,550,c),
(173,552,o),
(171,554,o),
(168,552,c),
(162,545,o),
(156,550,o),
(151,553,c),
(147,551,o),
(146,547,o),
(144,544,c),
(139,533,o),
(135,523,o),
(130,512,c),
(107,457,o),
(98,399,o),
(95,340,c)
);
},
{
closed = 1;
nodes = (
(295,428,o),
(304,367,o),
(300,303,c),
(298,262,o),
(291,221,o),
(277,183,c),
(266,153,o),
(251,127,o),
(227,107,c),
(198,83,o),
(166,70,o),
(128,83,c),
(108,89,o),
(93,103,o),
(81,120,c),
(79,123,o),
(78,125,o),
(76,128,c),
(71,116,o),
(65,105,o),
(62,103,c),
(48,91,o),
(22,101,o),
(20,124,c),
(19,131,o),
(20,137,o),
(23,143,c),
(28,155,o),
(37,172,o),
(49,193,c),
(49,194,o),
(48,195,o),
(48,196,c),
(37,236,o),
(33,278,o),
(33,320,c),
(33,324,o),
(33,327,o),
(32,331,c),
(33,369,o),
(37,407,o),
(45,444,c),
(52,479,o),
(62,513,o),
(77,545,c),
(83,560,o),
(92,573,o),
(104,584,c),
(108,588,o),
(112,592,o),
(118,595,c),
(126,598,o),
(133,604,o),
(140,611,c),
(149,619,o),
(160,622,o),
(172,619,c),
(197,614,o),
(217,602,o),
(232,581,c),
(243,564,o),
(252,547,o),
(259,529,c),
(269,543,o),
(275,552,o),
(276,552,c),
(290,556,o),
(299,551,o),
(301,537,c),
(301,535,o),
(291,516,o),
(275,488,c)
);
}
);
width = 326;
}
);
unicode = 216;
},
{
glyphname = OE;
kernLeft = O;
kernRight = E;
lastChange = "2022-09-01 04:16:16 +0000";
layers = (
{
layerId = m01;
shapes = (
{
closed = 1;
nodes = (
(240,282,o),
(240,319,o),
(235,357,c),
(232,384,o),
(225,410,o),
(217,436,c),
(210,464,o),
(201,491,o),
(189,517,c),
(183,529,o),
(178,541,o),
(168,550,c),
(166,552,o),
(164,554,o),
(161,552,c),
(155,545,o),
(149,550,o),
(144,553,c),
(140,551,o),
(139,547,o),
(137,544,c),
(132,533,o),
(128,523,o),
(123,512,c),
(100,457,o),
(91,399,o),
(88,340,c),
(87,313,o),
(89,286,o),
(93,258,c),
(96,232,o),
(101,206,o),
(112,182,c),
(116,172,o),
(121,162,o),
(127,154,c),
(141,137,o),
(159,133,o),
(179,144,c),
(196,154,o),
(207,170,o),
(216,187,c),
(224,206,o),
(229,225,o),
(233,245,c)
);
},
{
closed = 1;
nodes = (
(431,252,o),
(443,244,o),
(443,232,c),
(443,228,o),
(442,224,o),
(441,220,c),
(438,211,o),
(434,203,o),
(428,195,c),
(407,163,o),
(381,136,o),
(349,114,c),
(319,95,o),
(290,105,o),
(274,131,c),
(268,140,o),
(264,150,o),
(261,161,c),
(251,140,o),
(238,122,o),
(220,107,c),
(191,83,o),
(159,70,o),
(121,83,c),
(101,89,o),
(86,103,o),
(74,120,c),
(58,143,o),
(48,169,o),
(41,196,c),
(30,236,o),
(26,278,o),
(26,320,c),
(26,324,o),
(26,327,o),
(25,331,c),
(26,369,o),
(30,407,o),
(38,444,c),
(45,479,o),
(55,513,o),
(70,545,c),
(76,560,o),
(85,573,o),
(97,584,c),
(101,588,o),
(105,592,o),
(111,595,c),
(119,598,o),
(126,604,o),
(133,611,c),
(142,619,o),
(153,622,o),
(165,619,c),
(190,614,o),
(210,602,o),
(225,581,c),
(228,576,o),
(231,571,o),
(234,566,c),
(236,567,o),
(238,569,o),
(240,571,c),
(247,576,o),
(256,581,o),
(265,582,c),
(297,587,o),
(329,593,o),
(362,594,c),
(376,594,o),
(391,594,o),
(405,591,c),
(416,588,o),
(426,583,o),
(433,574,c),
(440,566,o),
(441,558,o),
(436,550,c),
(431,543,o),
(423,540,o),
(413,544,c),
(402,548,o),
(390,547,o),
(378,546,c),
(354,542,o),
(331,537,o),
(308,532,c),
(302,531,o),
(299,529,o),
(299,522,c),
(302,470,o),
(299,417,o),
(301,365,c),
(302,354,o),
(302,354,o),
(312,356,c),
(328,359,o),
(345,358,o),
(361,359,c),
(373,359,o),
(386,359,o),
(398,358,c),
(409,358,o),
(415,353,o),
(417,344,c),
(418,336,o),
(414,329,o),
(405,324,c),
(392,318,o),
(378,317,o),
(364,314,c),
(347,311,o),
(329,308,o),
(312,306,c),
(305,305,o),
(304,302,o),
(304,295,c),
(307,259,o),
(311,223,o),
(319,188,c),
(324,166,o),
(322,165,o),
(343,178,c),
(367,193,o),
(388,213,o),
(406,235,c),
(410,240,o),
(414,244,o),
(420,247,c)
);
}
);
width = 468;
}
);
unicode = 338;
},
{
glyphname = P;
lastChange = "2022-09-01 02:10:18 +0000";
layers = (
{
anchors = (
{
name = bottom;
pos = (159,0);
},
{
name = top;
pos = (159,632);
}
);
layerId = m01;
shapes = (
{
closed = 1;
nodes = (
(101,392,o),
(100,365,o),
(99,338,c),
(99,325,o),
(99,312,o),
(98,300,c),
(98,298,o),
(98,295,o),
(100,293,c),
(103,292,o),
(105,294,o),
(107,296,c),
(119,305,o),
(131,314,o),
(143,323,c),
(163,337,o),
(180,354,o),
(195,374,c),
(212,396,o),
(223,422,o),
(230,450,c),
(233,460,o),
(235,471,o),
(235,481,c),
(235,493,o),
(234,504,o),
(229,515,c),
(210,559,o),
(159,577,o),
(112,548,c),
(107,545,o),
(105,541,o),
(106,536,c),
(106,530,o),
(106,524,o),
(106,518,c),
(107,485,o),
(104,452,o),
(103,433,c)
);
},
{
closed = 1;
nodes = (
(294,452,o),
(286,422,o),
(274,393,c),
(253,343,o),
(218,304,o),
(175,272,c),
(152,255,o),
(129,240,o),
(103,231,c),
(98,229,o),
(97,226,o),
(97,221,c),
(97,178,o),
(95,167,o),
(96,125,c),
(97,117,o),
(99,109,o),
(98,101,c),
(98,87,o),
(92,79,o),
(82,78,c),
(72,77,o),
(61,85,o),
(58,96,c),
(53,112,o),
(50,129,o),
(47,145,c),
(42,176,o),
(40,175,o),
(37,206,c),
(37,209,o),
(37,212,o),
(37,214,c),
(38,223,o),
(37,230,o),
(31,238,c),
(21,249,o),
(23,259,o),
(34,267,c),
(38,270,o),
(38,273,o),
(38,276,c),
(39,302,o),
(40,327,o),
(40,353,c),
(42,392,o),
(43,430,o),
(45,469,c),
(46,494,o),
(51,519,o),
(55,543,c),
(56,546,o),
(57,549,o),
(56,552,c),
(54,568,o),
(63,579,o),
(74,588,c),
(96,606,o),
(121,617,o),
(149,621,c),
(167,624,o),
(184,621,o),
(201,614,c),
(253,596,o),
(283,560,o),
(293,506,c),
(294,499,o),
(293,492,o),
(293,484,c)
);
}
);
width = 298;
}
);
unicode = 80;
},
{
glyphname = Thorn;
kernLeft = P;
kernRight = P;
lastChange = "2022-09-01 04:16:26 +0000";
layers = (
{
layerId = m01;
shapes = (
{
closed = 1;
nodes = (
(99,229,o),
(108,240,o),
(118,251,c),
(141,276,o),
(158,304,o),
(169,336,c),
(178,359,o),
(181,383,o),
(178,407,c),
(172,452,o),
(133,465,o),
(98,449,c),
(88,444,o),
(84,438,o),
(84,427,c),
(85,370,o),
(84,313,o),
(85,256,c),
(85,244,o),
(85,233,o),
(85,219,c)
);
},
{
closed = 1;
nodes = (
(110,515,o),
(135,517,o),
(159,510,c),
(181,503,o),
(198,491,o),
(211,472,c),
(224,453,o),
(231,433,o),
(233,410,c),
(237,353,o),
(224,300,o),
(188,255,c),
(162,223,o),
(133,197,o),
(99,175,c),
(90,170,o),
(87,164,o),
(88,154,c),
(91,135,o),
(89,115,o),
(92,96,c),
(92,93,o),
(92,89,o),
(91,86,c),
(89,79,o),
(84,74,o),
(78,73,c),
(71,73,o),
(66,76,o),
(63,81,c),
(60,87,o),
(58,92,o),
(57,98,c),
(54,116,o),
(51,134,o),
(49,153,c),
(48,158,o),
(47,162,o),
(41,165,c),
(36,167,o),
(34,171,o),
(33,176,c),
(31,182,o),
(32,188,o),
(38,192,c),
(43,195,o),
(44,199,o),
(43,204,c),
(39,240,o),
(36,276,o),
(32,311,c),
(28,344,o),
(26,376,o),
(25,408,c),
(24,415,o),
(25,422,o),
(25,428,c),
(25,459,o),
(24,491,o),
(25,522,c),
(26,546,o),
(28,569,o),
(30,593,c),
(30,598,o),
(31,602,o),
(33,606,c),
(39,619,o),
(51,626,o),
(64,623,c),
(76,620,o),
(85,609,o),
(84,595,c),
(83,571,o),
(84,546,o),
(84,522,c),
(84,517,o),
(84,512,o),
(85,506,c)
);
}
);
width = 259;
}
);
unicode = 222;
},
{
glyphname = Q;
lastChange = "2022-09-01 02:13:53 +0000";
layers = (
{
anchors = (
{
name = bottom;
pos = (180,0);
},
{
name = top;
pos = (180,800);
}
);
layerId = m01;
shapes = (
{
closed = 1;
nodes = (
(232,253,o),
(233,253,o),
(234,255,c),
(238,263,o),
(242,271,o),
(245,279,c),
(266,336,o),
(272,394,o),
(262,454,c),
(260,466,o),
(257,478,o),
(252,489,c),
(245,502,o),
(240,516,o),
(227,524,c),
(218,530,o),
(209,529,o),
(200,528,c),
(192,528,o),
(190,522,o),
(186,517,c),
(180,507,o),
(171,504,o),
(161,509,c),
(154,513,o),
(150,511,o),
(146,505,c),
(144,502,o),
(141,498,o),
(139,495,c),
(121,469,o),
(110,440,o),
(101,410,c),
(89,371,o),
(85,332,o),
(88,292,c),
(91,261,o),
(97,232,o),
(112,204,c),
(117,195,o),
(123,185,o),
(132,178,c),
(144,169,o),
(153,168,o),
(166,175,c),
(172,179,o),
(177,183,o),
(182,188,c),
(199,202,o),
(199,202,o),
(184,218,c),
(173,228,o),
(162,238,o),
(154,250,c),
(146,261,o),
(147,276,o),
(155,285,c),
(163,293,o),
(175,295,o),
(187,289,c),
(197,284,o),
(204,276,o),
(212,268,c),
(218,262,o),
(223,256,o),
(231,251,c)
);
},
{
closed = 1;
nodes = (
(233,149,o),
(223,139,o),
(212,131,c),
(196,119,o),
(178,110,o),
(158,108,c),
(131,106,o),
(108,115,o),
(88,133,c),
(72,148,o),
(60,166,o),
(51,186,c),
(28,239,o),
(22,293,o),
(26,350,c),
(29,392,o),
(39,431,o),
(54,470,c),
(66,501,o),
(83,530,o),
(107,553,c),
(122,568,o),
(139,578,o),
(161,577,c),
(164,576,o),
(167,578,o),
(170,580,c),
(201,599,o),
(231,595,o),
(261,577,c),
(279,566,o),
(291,549,o),
(301,530,c),
(314,506,o),
(321,480,o),
(325,452,c),
(332,409,o),
(331,365,o),
(321,321,c),
(313,285,o),
(299,251,o),
(281,218,c),
(272,201,o),
(272,201,o),
(285,186,c),
(297,171,o),
(310,157,o),
(323,143,c),
(326,138,o),
(330,134,o),
(333,129,c),
(336,123,o),
(336,117,o),
(331,111,c),
(327,106,o),
(320,105,o),
(314,107,c),
(309,109,o),
(304,112,o),
(299,115,c),
(284,125,o),
(269,137,o),
(255,149,c),
(251,153,o),
(247,156,o),
(243,160,c)
);
}
);
width = 360;
}
);
unicode = 81;
},
{
glyphname = R;
kernLeft = R;
kernRight = R;
lastChange = "2022-09-01 02:14:31 +0000";
layers = (
{
anchors = (
{
name = bottom;
pos = (156,125);
},
{
name = top;
pos = (180,630);
}
);
layerId = m01;
shapes = (
{
closed = 1;
nodes = (
(93,278,o),
(95,281,o),
(99,283,c),
(123,299,o),
(145,318,o),
(164,339,c),
(186,363,o),
(205,389,o),
(219,418,c),
(233,447,o),
(242,476,o),
(238,508,c),
(235,530,o),
(222,558,o),
(190,564,c),
(178,566,o),
(166,567,o),
(155,564,c),
(131,559,o),
(109,550,o),
(88,539,c),
(82,535,o),
(80,532,o),
(80,526,c),
(81,509,o),
(81,493,o),
(81,477,c),
(81,429,o),
(83,382,o),
(84,335,c),
(85,316,o),
(86,297,o),
(87,278,c)
);
},
{
closed = 1;
nodes = (
(163,245,o),
(173,241,o),
(183,238,c),
(211,228,o),
(238,216,o),
(263,201,c),
(281,191,o),
(298,179,o),
(314,168,c),
(320,163,o),
(326,158,o),
(329,152,c),
(335,142,o),
(337,132,o),
(331,122,c),
(323,112,o),
(313,110,o),
(301,112,c),
(295,114,o),
(288,116,o),
(282,120,c),
(260,136,o),
(238,151,o),
(213,163,c),
(177,180,o),
(139,195,o),
(100,202,c),
(97,202,o),
(94,203,o),
(91,202,c),
(91,190,o),
(91,177,o),
(92,165,c),
(93,146,o),
(94,126,o),
(95,107,c),
(96,95,o),
(93,90,o),
(86,87,c),
(77,84,o),
(69,87,o),
(63,96,c),
(54,109,o),
(51,123,o),
(49,138,c),
(43,169,o),
(39,201,o),
(35,232,c),
(30,267,o),
(28,302,o),
(27,337,c),
(25,387,o),
(24,438,o),
(25,489,c),
(25,506,o),
(27,524,o),
(29,542,c),
(30,555,o),
(36,565,o),
(49,569,c),
(52,570,o),
(54,571,o),
(55,573,c),
(83,598,o),
(116,611,o),
(152,619,c),
(200,630,o),
(248,611,o),
(276,569,c),
(291,545,o),
(297,518,o),
(296,490,c),
(296,456,o),
(286,425,o),
(272,395,c),
(246,341,o),
(208,298,o),
(163,260,c),
(159,257,o),
(155,255,o),
(152,249,c)
);
}
);
width = 340;
}
);
unicode = 82;
},
{
glyphname = S;
kernLeft = S;
kernRight = S;
lastChange = "2022-09-01 02:14:24 +0000";
layers = (
{
anchors = (
{
name = bottom;
pos = (167,101);
},
{
name = top;
pos = (166,623);
}
);
layerId = m01;
shapes = (
{
closed = 1;
nodes = (
(80,392,o),
(102,352,o),
(146,323,c),
(167,309,o),
(191,299,o),
(214,289,c),
(236,280,o),
(259,269,o),
(278,254,c),
(288,247,o),
(296,238,o),
(301,227,c),
(311,205,o),
(308,184,o),
(296,164,c),
(285,144,o),
(268,130,o),
(249,117,c),
(224,101,o),
(197,89,o),
(167,88,c),
(153,87,o),
(139,89,o),
(126,95,c),
(103,107,o),
(95,130,o),
(105,153,c),
(110,164,o),
(118,173,o),
(127,181,c),
(135,188,o),
(143,189,o),
(149,183,c),
(156,178,o),
(157,170,o),
(153,161,c),
(152,158,o),
(150,154,o),
(148,151,c),
(145,144,o),
(146,143,o),
(153,143,c),
(167,142,o),
(180,144,o),
(192,149,c),
(211,157,o),
(229,167,o),
(243,183,c),
(256,198,o),
(256,204,o),
(239,215,c),
(224,226,o),
(206,233,o),
(189,241,c),
(163,252,o),
(137,263,o),
(114,279,c),
(83,299,o),
(59,325,o),
(43,359,c),
(33,380,o),
(27,404,o),
(25,428,c),
(23,463,o),
(27,498,o),
(41,531,c),
(54,563,o),
(74,590,o),
(104,607,c),
(137,627,o),
(182,632,o),
(222,593,c),
(255,563,o),
(275,524,o),
(287,481,c),
(290,470,o),
(290,458,o),
(289,446,c),
(288,439,o),
(285,432,o),
(278,429,c),
(270,426,o),
(263,429,o),
(257,435,c),
(254,438,o),
(251,443,o),
(249,447,c),
(242,458,o),
(237,471,o),
(231,483,c),
(222,503,o),
(212,523,o),
(198,540,c),
(192,547,o),
(186,554,o),
(178,559,c),
(165,569,o),
(151,570,o),
(136,563,c),
(125,557,o),
(115,549,o),
(108,538,c),
(92,518,o),
(84,494,o),
(81,469,c),
(80,461,o),
(78,453,o),
(79,447,c)
);
}
);
width = 312;
}
);
unicode = 83;
},
{
glyphname = Germandbls;
lastChange = "2022-08-31 22:34:03 +0000";
layers = (
{
layerId = m01;
shapes = (
{
closed = 1;
nodes = (
(101,221,o),
(110,227,o),
(118,233,c),
(133,244,o),
(148,255,o),
(161,268,c),
(165,273,o),
(169,278,o),
(172,283,c),
(175,288,o),
(174,292,o),
(169,294,c),
(162,297,o),
(155,297,o),
(148,296,c),
(142,295,o),
(137,294,o),
(131,294,c),
(109,294,o),
(95,316,o),
(101,336,c),
(103,341,o),
(105,346,o),
(108,351,c),
(121,371,o),
(134,392,o),
(146,413,c),
(159,434,o),
(169,456,o),
(175,481,c),
(181,507,o),
(178,532,o),
(159,553,c),
(147,567,o),
(141,566,o),
(131,551,c),
(128,547,o),
(126,542,o),
(123,537,c),
(115,521,o),
(110,504,o),
(105,486,c),
(84,410,o),
(80,333,o),
(87,254,c),
(88,241,o),
(88,227,o),
(92,212,c)
);
},
{
closed = 1;
nodes = (
(189,350,o),
(198,345,o),
(206,340,c),
(232,323,o),
(239,291,o),
(228,265,c),
(222,251,o),
(214,240,o),
(204,229,c),
(183,208,o),
(160,190,o),
(136,175,c),
(122,166,o),
(117,165,o),
(99,164,c),
(100,151,o),
(102,139,o),
(104,126,c),
(104,123,o),
(105,119,o),
(105,116,c),
(106,104,o),
(102,97,o),
(93,93,c),
(84,90,o),
(72,92,o),
(66,99,c),
(59,108,o),
(53,117,o),
(49,128,c),
(42,152,o),
(37,177,o),
(33,201,c),
(26,252,o),
(24,304,o),
(26,355,c),
(29,402,o),
(34,448,o),
(46,493,c),
(53,519,o),
(61,545,o),
(74,569,c),
(80,581,o),
(87,592,o),
(97,601,c),
(122,625,o),
(150,629,o),
(180,611,c),
(207,595,o),
(223,570,o),
(232,540,c),
(240,510,o),
(237,481,o),
(228,453,c),
(220,425,o),
(206,399,o),
(191,374,c),
(187,367,o),
(183,360,o),
(179,352,c)
);
}
);
width = 262;
}
);
unicode = 7838;
},
{
glyphname = T;
kernLeft = T;
kernRight = T;
lastChange = "2022-09-01 02:13:45 +0000";
layers = (
{
anchors = (
{
name = bottom;
pos = (236,104);
},
{
name = center;
pos = (218,400);
},
{
name = top;
pos = (212,621);
}
);
layerId = m01;
shapes = (
{
closed = 1;
nodes = (
(235,404,o),
(236,364,o),
(239,324,c),
(241,298,o),
(242,273,o),
(244,247,c),
(246,209,o),
(248,172,o),
(251,135,c),
(252,128,o),
(254,122,o),
(255,115,c),
(256,108,o),
(253,100,o),
(247,96,c),
(241,92,o),
(233,93,o),
(226,98,c),
(220,103,o),
(216,109,o),
(213,117,c),
(205,135,o),
(201,155,o),
(198,175,c),
(189,231,o),
(184,288,o),
(181,345,c),
(180,365,o),
(178,386,o),
(177,406,c),
(176,441,o),
(175,476,o),
(175,510,c),
(175,525,o),
(176,540,o),
(178,554,c),
(180,563,o),
(179,564,o),
(171,564,c),
(136,563,o),
(100,562,o),
(66,557,c),
(59,556,o),
(53,555,o),
(46,556,c),
(36,558,o),
(29,564,o),
(26,574,c),
(23,584,o),
(28,594,o),
(37,600,c),
(42,604,o),
(48,606,o),
(54,607,c),
(91,616,o),
(128,620,o),
(166,621,c),
(198,621,o),
(230,619,o),
(262,616,c),
(301,612,o),
(340,608,o),
(377,596,c),
(383,594,o),
(389,592,o),
(395,589,c),
(407,584,o),
(412,575,o),
(410,565,c),
(408,555,o),
(400,549,o),
(388,549,c),
(362,549,o),
(337,549,o),
(311,553,c),
(288,556,o),
(264,558,o),
(240,561,c),
(232,562,o),
(232,561,o),
(232,553,c),
(230,535,o),
(232,516,o),
(232,498,c),
(232,480,o),
(232,462,o),
(232,444,c)
);
}
);
width = 325;
}
);
unicode = 84;
},
{
glyphname = U;
kernLeft = U;
kernRight = U;
lastChange = "2022-09-01 02:13:16 +0000";
layers = (
{
anchors = (
{
name = bottom;
pos = (200,0);
},
{
name = ogonek;
pos = (215,136);
},
{
name = top;
pos = (213,604);
},
{
name = topright;
pos = (380,800);
}
);
layerId = m01;
shapes = (
{
closed = 1;
nodes = (
(25,487,o),
(26,517,o),
(31,547,c),
(35,567,o),
(40,587,o),
(51,605,c),
(55,612,o),
(60,618,o),
(66,623,c),
(73,627,o),
(81,629,o),
(88,624,c),
(96,620,o),
(98,613,o),
(98,605,c),
(96,583,o),
(94,562,o),
(92,540,c),
(90,506,o),
(87,472,o),
(88,438,c),
(89,389,o),
(95,342,o),
(108,295,c),
(114,271,o),
(124,247,o),
(135,225,c),
(143,209,o),
(154,195,o),
(166,183,c),
(168,180,o),
(170,178,o),
(173,177,c),
(183,169,o),
(191,168,o),
(202,176,c),
(215,185,o),
(225,196,o),
(234,209,c),
(253,236,o),
(269,266,o),
(282,298,c),
(299,340,o),
(311,383,o),
(317,428,c),
(321,453,o),
(321,478,o),
(323,503,c),
(325,532,o),
(327,561,o),
(323,590,c),
(323,595,o),
(324,599,o),
(326,604,c),
(332,622,o),
(353,622,o),
(363,611,c),
(370,604,o),
(373,595,o),
(375,585,c),
(375,584,o),
(375,582,o),
(375,580,c),
(375,508,o),
(376,435,o),
(360,364,c),
(355,340,o),
(348,318,o),
(340,295,c),
(329,258,o),
(313,223,o),
(294,190,c),
(282,171,o),
(268,152,o),
(251,136,c),
(229,115,o),
(203,104,o),
(172,109,c),
(162,111,o),
(153,114,o),
(145,120,c),
(123,133,o),
(107,152,o),
(93,174,c),
(68,212,o),
(52,255,o),
(42,300,c),
(30,352,o),
(25,404,o),
(25,451,c)
);
}
);
width = 400;
}
);
unicode = 85;
},
{
glyphname = V;
lastChange = "2022-09-01 02:13:37 +0000";
layers = (
{
anchors = (
{
name = bottom;
pos = (172,0);
},
{
name = top;
pos = (172,800);
}
);
layerId = m01;
shapes = (
{
closed = 1;
nodes = (
(166,195,o),
(171,211,o),
(176,228,c),
(194,290,o),
(209,353,o),
(224,416,c),
(234,458,o),
(250,499,o),
(261,541,c),
(265,554,o),
(270,568,o),
(274,581,c),
(276,587,o),
(279,592,o),
(281,597,c),
(287,607,o),
(298,612,o),
(306,609,c),
(315,606,o),
(321,593,o),
(319,583,c),
(304,524,o),
(298,463,o),
(286,402,c),
(280,373,o),
(272,345,o),
(264,316,c),
(251,262,o),
(237,209,o),
(219,157,c),
(213,140,o),
(206,123,o),
(198,106,c),
(195,100,o),
(191,94,o),
(187,89,c),
(170,71,o),
(145,71,o),
(129,89,c),
(121,98,o),
(116,109,o),
(112,120,c),
(102,147,o),
(91,174,o),
(83,202,c),
(75,233,o),
(67,265,o),
(60,297,c),
(46,366,o),
(36,436,o),
(28,506,c),
(25,532,o),
(23,559,o),
(27,586,c),
(28,594,o),
(30,602,o),
(34,609,c),
(41,621,o),
(55,625,o),
(66,622,c),
(76,619,o),
(85,611,o),
(86,596,c),
(86,594,o),
(86,592,o),
(86,590,c),
(86,543,o),
(92,496,o),
(98,450,c),
(102,420,o),
(107,391,o),
(112,361,c),
(122,304,o),
(134,247,o),
(153,192,c),
(154,188,o),
(155,183,o),
(159,178,c)
);
}
);
width = 324;
}
);
unicode = 86;
},
{
glyphname = W;
kernLeft = W;
kernRight = W;
lastChange = "2022-09-01 02:12:38 +0000";
layers = (
{
anchors = (
{
name = bottom;
pos = (260,0);
},
{
name = top;
pos = (258,541);
}
);
layerId = m01;
shapes = (
{
closed = 1;
nodes = (
(253,256,o),
(252,245,o),
(251,234,c),
(249,205,o),
(242,178,o),
(233,150,c),
(228,136,o),
(222,123,o),
(213,111,c),
(193,84,o),
(162,84,o),
(140,105,c),
(128,116,o),
(120,129,o),
(113,143,c),
(90,190,o),
(77,240,o),
(64,290,c),
(52,336,o),
(43,382,o),
(35,428,c),
(30,456,o),
(26,484,o),
(25,512,c),
(25,525,o),
(27,538,o),
(32,551,c),
(37,561,o),
(45,567,o),
(55,566,c),
(65,565,o),
(71,559,o),
(75,551,c),
(80,539,o),
(82,526,o),
(84,513,c),
(90,479,o),
(96,445,o),
(103,410,c),
(109,378,o),
(116,345,o),
(123,313,c),
(129,284,o),
(136,256,o),
(146,229,c),
(153,210,o),
(159,192,o),
(169,175,c),
(170,173,o),
(170,171,o),
(173,170,c),
(177,178,o),
(179,186,o),
(180,194,c),
(191,245,o),
(199,296,o),
(205,348,c),
(208,378,o),
(210,408,o),
(214,437,c),
(216,449,o),
(217,461,o),
(220,472,c),
(222,480,o),
(226,487,o),
(231,492,c),
(244,503,o),
(266,501,o),
(276,488,c),
(285,478,o),
(288,465,o),
(289,453,c),
(295,408,o),
(303,363,o),
(311,319,c),
(317,286,o),
(325,254,o),
(336,223,c),
(343,203,o),
(351,184,o),
(364,168,c),
(369,161,o),
(370,161,o),
(376,168,c),
(387,184,o),
(394,202,o),
(399,220,c),
(412,262,o),
(420,305,o),
(425,348,c),
(428,377,o),
(430,407,o),
(432,436,c),
(433,461,o),
(431,485,o),
(429,510,c),
(427,536,o),
(427,561,o),
(430,587,c),
(432,602,o),
(442,610,o),
(457,608,c),
(462,607,o),
(466,604,o),
(469,600,c),
(474,594,o),
(477,586,o),
(479,579,c),
(489,546,o),
(493,511,o),
(494,477,c),
(496,397,o),
(488,318,o),
(470,240,c),
(463,211,o),
(454,182,o),
(440,155,c),
(433,140,o),
(424,127,o),
(412,116,c),
(385,90,o),
(352,91,o),
(326,117,c),
(316,127,o),
(308,137,o),
(301,149,c),
(282,182,o),
(271,218,o),
(261,254,c),
(260,258,o),
(259,262,o),
(258,267,c)
);
}
);
width = 519;
}
);
unicode = 87;
},
{
glyphname = X;
lastChange = "2022-09-01 02:13:54 +0000";
layers = (
{
anchors = (
{
name = bottom;
pos = (198,0);
},
{
name = top;
pos = (198,800);
}
);
layerId = m01;
shapes = (
{
closed = 1;
nodes = (
(162,264,o),
(146,237,o),
(130,209,c),
(114,180,o),
(97,151,o),
(82,121,c),
(78,114,o),
(74,107,o),
(68,101,c),
(59,94,o),
(50,91,o),
(40,96,c),
(30,100,o),
(25,110,o),
(25,122,c),
(26,130,o),
(29,137,o),
(32,144,c),
(44,168,o),
(57,192,o),
(70,215,c),
(94,257,o),
(118,298,o),
(142,340,c),
(146,347,o),
(146,352,o),
(143,358,c),
(126,392,o),
(109,425,o),
(93,459,c),
(83,482,o),
(72,506,o),
(63,530,c),
(61,535,o),
(58,541,o),
(58,546,c),
(56,560,o),
(65,572,o),
(78,575,c),
(91,578,o),
(103,571,o),
(108,558,c),
(115,543,o),
(122,528,o),
(129,513,c),
(144,481,o),
(160,449,o),
(175,417,c),
(176,414,o),
(177,410,o),
(181,407,c),
(188,418,o),
(195,430,o),
(202,441,c),
(221,472,o),
(239,504,o),
(260,535,c),
(277,560,o),
(295,584,o),
(317,605,c),
(322,610,o),
(328,615,o),
(334,617,c),
(343,622,o),
(352,622,o),
(361,616,c),
(370,610,o),
(372,600,o),
(371,589,c),
(370,581,o),
(365,576,o),
(357,575,c),
(351,575,o),
(349,572,o),
(346,569,c),
(337,555,o),
(328,542,o),
(320,528,c),
(304,500,o),
(285,474,o),
(270,446,c),
(256,422,o),
(240,399,o),
(227,374,c),
(223,367,o),
(219,360,o),
(214,353,c),
(211,350,o),
(211,346,o),
(214,342,c),
(228,317,o),
(242,293,o),
(259,270,c),
(275,247,o),
(292,223,o),
(308,199,c),
(320,182,o),
(330,164,o),
(341,147,c),
(344,143,o),
(346,139,o),
(348,135,c),
(351,126,o),
(349,119,o),
(341,113,c),
(335,108,o),
(329,108,o),
(320,113,c),
(312,118,o),
(305,125,o),
(298,132,c),
(278,154,o),
(257,177,o),
(239,202,c),
(221,226,o),
(204,252,o),
(187,277,c),
(184,282,o),
(183,287,o),
(178,291,c)
);
}
);
width = 366;
}
);
unicode = 88;
},
{
glyphname = Y;
kernLeft = Y;
kernRight = Y;
lastChange = "2022-09-01 02:14:43 +0000";
layers = (
{
anchors = (
{
name = bottom;
pos = (177,0);
},
{
name = top;
pos = (166,595);
},
{
name = topleft;
pos = (20,800);
}
);
layerId = m01;
shapes = (
{
closed = 1;
nodes = (
(173,378,o),
(173,383,o),
(175,387,c),
(195,444,o),
(218,499,o),
(246,553,c),
(253,567,o),
(262,582,o),
(271,595,c),
(276,603,o),
(281,610,o),
(289,615,c),
(293,619,o),
(298,621,o),
(303,622,c),
(319,625,o),
(331,613,o),
(329,597,c),
(327,586,o),
(321,576,o),
(316,566,c),
(286,508,o),
(258,450,o),
(237,389,c),
(214,327,o),
(195,264,o),
(177,200,c),
(170,178,o),
(163,156,o),
(157,134,c),
(156,128,o),
(155,122,o),
(156,115,c),
(157,106,o),
(153,98,o),
(147,95,c),
(138,92,o),
(126,94,o),
(119,100,c),
(112,108,o),
(109,118,o),
(109,128,c),
(109,148,o),
(113,167,o),
(117,186,c),
(125,224,o),
(135,262,o),
(147,300,c),
(149,307,o),
(149,311,o),
(143,317,c),
(125,333,o),
(114,353,o),
(103,373,c),
(82,414,o),
(63,456,o),
(48,499,c),
(40,520,o),
(33,542,o),
(26,564,c),
(22,577,o),
(28,590,o),
(40,596,c),
(52,601,o),
(65,597,o),
(73,586,c),
(77,579,o),
(80,571,o),
(83,564,c),
(99,528,o),
(112,490,o),
(128,454,c),
(139,428,o),
(152,403,o),
(166,379,c),
(166,377,o),
(168,376,o),
(169,374,c)
);
}
);
width = 274;
}
);
unicode = 89;
},
{
glyphname = Z;
kernLeft = Z;
kernRight = Z;
lastChange = "2022-09-01 02:15:01 +0000";
layers = (
{
anchors = (
{
name = bottom;
pos = (214,0);
},
{
name = center;
pos = (214,400);
},
{
name = top;
pos = (240,617);
}
);
layerId = m01;
shapes = (
{
closed = 1;
nodes = (
(123,172,o),
(128,173,o),
(133,174,c),
(192,183,o),
(252,186,o),
(312,186,c),
(323,186,o),
(334,183,o),
(344,180,c),
(347,179,o),
(350,178,o),
(352,176,c),
(362,170,o),
(367,162,o),
(365,150,c),
(364,141,o),
(356,135,o),
(345,132,c),
(319,126,o),
(294,124,o),
(268,123,c),
(241,121,o),
(214,121,o),
(187,118,c),
(152,113,o),
(117,108,o),
(83,100,c),
(74,98,o),
(64,96,o),
(54,98,c),
(33,103,o),
(21,121,o),
(26,142,c),
(28,150,o),
(32,158,o),
(36,165,c),
(62,206,o),
(91,246,o),
(121,284,c),
(157,331,o),
(194,375,o),
(230,422,c),
(260,459,o),
(290,497,o),
(317,537,c),
(320,541,o),
(323,544,o),
(324,551,c),
(309,548,o),
(295,546,o),
(281,544,c),
(229,535,o),
(177,522,o),
(126,511,c),
(112,508,o),
(99,505,o),
(86,503,c),
(78,501,o),
(71,503,o),
(65,507,c),
(48,516,o),
(47,539,o),
(61,551,c),
(65,554,o),
(68,556,o),
(72,557,c),
(101,565,o),
(130,575,o),
(158,582,c),
(191,591,o),
(225,598,o),
(259,603,c),
(282,608,o),
(306,612,o),
(329,615,c),
(343,617,o),
(356,618,o),
(370,614,c),
(392,608,o),
(405,589,o),
(401,566,c),
(400,555,o),
(396,545,o),
(390,536,c),
(371,502,o),
(348,470,o),
(323,439,c),
(302,412,o),
(281,385,o),
(259,358,c),
(233,325,o),
(207,293,o),
(181,260,c),
(161,234,o),
(142,207,o),
(122,181,c),
(120,179,o),
(117,176,o),
(117,172,c)
);
}
);
width = 377;
}
);
unicode = 90;
},
{
glyphname = a;
kernLeft = a;
kernRight = a;
lastChange = "2022-09-01 02:20:53 +0000";
layers = (
{
anchors = (
{
name = bottom;
pos = (132,0);
},
{
name = ogonek;
pos = (189,109);
},
{
name = top;
pos = (136,422);
}
);
layerId = m01;
shapes = (
{
closed = 1;
nodes = (
(131,169,o),
(145,183,o),
(155,201,c),
(158,206,o),
(154,215,o),
(148,219,c),
(142,223,o),
(139,218,o),
(135,216,c),
(134,214,o),
(132,213,o),
(131,211,c),
(119,194,o),
(113,176,o),
(117,154,c)
);
},
{
closed = 1;
nodes = (
(168,134,o),
(165,127,o),
(161,122,c),
(152,109,o),
(142,97,o),
(127,91,c),
(102,79,o),
(73,91,o),
(63,117,c),
(44,166,o),
(53,212,o),
(85,253,c),
(103,275,o),
(128,285,o),
(157,279,c),
(159,279,o),
(160,278,o),
(162,278,c),
(165,285,o),
(162,291,o),
(161,297,c),
(157,316,o),
(153,334,o),
(146,351,c),
(135,374,o),
(130,375,o),
(111,359,c),
(96,346,o),
(83,331,o),
(73,314,c),
(70,310,o),
(68,306,o),
(68,301,c),
(68,291,o),
(64,285,o),
(54,282,c),
(47,280,o),
(37,284,o),
(32,291,c),
(26,300,o),
(24,309,o),
(26,320,c),
(29,340,o),
(38,359,o),
(49,375,c),
(61,392,o),
(75,407,o),
(93,419,c),
(121,437,o),
(158,436,o),
(184,407,c),
(195,395,o),
(201,381,o),
(207,366,c),
(217,339,o),
(223,310,o),
(227,281,c),
(232,241,o),
(235,202,o),
(238,162,c),
(239,151,o),
(239,139,o),
(238,127,c),
(236,100,o),
(211,87,o),
(189,101,c),
(180,107,o),
(177,116,o),
(176,126,c),
(175,130,o),
(176,134,o),
(174,139,c)
);
}
);
width = 264;
}
);
unicode = 97;
},
{
glyphname = ae;
kernLeft = a;
kernRight = e;
lastChange = "2022-09-01 04:17:51 +0000";
layers = (
{
layerId = m01;
shapes = (
{
closed = 1;
nodes = (
(157,206,o),
(153,215,o),
(147,219,c),
(142,223,o),
(138,218,o),
(135,216,c),
(133,214,o),
(132,213,o),
(130,211,c),
(118,194,o),
(113,176,o),
(116,154,c),
(130,169,o),
(144,183,o),
(154,201,c)
);
},
{
closed = 1;
nodes = (
(244,268,o),
(243,265,o),
(245,263,c),
(248,261,o),
(250,262,o),
(252,263,c),
(273,274,o),
(287,291,o),
(295,312,c),
(295,314,o),
(295,317,o),
(295,317,c),
(295,323,o),
(294,328,o),
(290,330,c),
(286,332,o),
(282,330,o),
(279,327,c),
(275,325,o),
(272,322,o),
(269,319,c),
(257,304,o),
(250,287,o),
(244,270,c)
);
},
{
closed = 1;
nodes = (
(237,210,o),
(235,209,o),
(234,206,c),
(235,196,o),
(236,186,o),
(237,177,c),
(238,171,o),
(240,166,o),
(242,160,c),
(246,148,o),
(250,147,o),
(261,154,c),
(269,159,o),
(276,165,o),
(284,172,c),
(291,179,o),
(299,185,o),
(307,191,c),
(310,193,o),
(312,195,o),
(315,196,c),
(328,201,o),
(339,193,o),
(340,179,c),
(340,173,o),
(338,166,o),
(336,160,c),
(325,126,o),
(304,100,o),
(268,89,c),
(249,83,o),
(231,86,o),
(215,97,c),
(207,94,o),
(197,95,o),
(188,101,c),
(179,107,o),
(176,116,o),
(175,126,c),
(175,130,o),
(176,134,o),
(173,139,c),
(167,134,o),
(165,127,o),
(161,122,c),
(151,109,o),
(142,97,o),
(127,91,c),
(101,79,o),
(72,91,o),
(62,117,c),
(43,166,o),
(52,212,o),
(85,253,c),
(102,275,o),
(127,285,o),
(156,279,c),
(158,279,o),
(160,278,o),
(162,278,c),
(164,285,o),
(161,291,o),
(160,297,c),
(157,316,o),
(153,334,o),
(145,351,c),
(135,374,o),
(129,375,o),
(111,359,c),
(96,346,o),
(82,331,o),
(72,314,c),
(70,310,o),
(68,306,o),
(68,301,c),
(68,291,o),
(63,285,o),
(53,282,c),
(46,280,o),
(36,284,o),
(31,291,c),
(25,300,o),
(24,309,o),
(25,320,c),
(28,340,o),
(37,359,o),
(48,375,c),
(60,392,o),
(74,407,o),
(92,419,c),
(120,437,o),
(158,436,o),
(184,407,c),
(194,395,o),
(201,381,o),
(206,366,c),
(209,358,o),
(212,350,o),
(215,341,c),
(223,352,o),
(232,362,o),
(243,370,c),
(254,378,o),
(266,383,o),
(280,384,c),
(320,387,o),
(352,352,o),
(346,310,c),
(344,302,o),
(342,293,o),
(338,285,c),
(326,262,o),
(310,242,o),
(289,227,c),
(275,217,o),
(259,209,o),
(241,210,c)
);
}
);
width = 372;
}
);
unicode = 230;
},
{
glyphname = b;
lastChange = "2022-09-01 02:16:04 +0000";
layers = (
{
anchors = (
{
name = bottom;
pos = (128,0);
},
{
name = center;
pos = (128,400);
},
{
name = top;
pos = (127,533);
}
);
layerId = m01;
shapes = (
{
closed = 1;
nodes = (
(92,204,o),
(93,204,o),
(93,204,c),
(93,193,o),
(93,183,o),
(93,172,c),
(93,154,o),
(97,151,o),
(115,154,c),
(124,155,o),
(132,160,o),
(138,167,c),
(147,176,o),
(154,187,o),
(158,199,c),
(164,217,o),
(168,235,o),
(167,254,c),
(167,269,o),
(164,283,o),
(157,296,c),
(153,303,o),
(149,309,o),
(143,312,c),
(134,318,o),
(125,317,o),
(120,308,c),
(105,282,o),
(89,256,o),
(91,223,c),
(92,217,o),
(92,210,o),
(92,204,c)
);
},
{
closed = 1;
nodes = (
(93,367,o),
(95,368,o),
(97,369,c),
(126,385,o),
(155,380,o),
(181,362,c),
(205,345,o),
(218,321,o),
(224,294,c),
(237,239,o),
(229,186,o),
(196,139,c),
(178,113,o),
(154,96,o),
(122,91,c),
(111,90,o),
(100,91,o),
(90,94,c),
(85,96,o),
(81,97,o),
(76,93,c),
(57,77,o),
(27,91,o),
(26,117,c),
(24,145,o),
(25,173,o),
(28,200,c),
(31,228,o),
(30,255,o),
(29,283,c),
(29,332,o),
(27,380,o),
(26,429,c),
(25,462,o),
(23,495,o),
(27,529,c),
(29,550,o),
(32,572,o),
(40,592,c),
(43,600,o),
(48,605,o),
(56,608,c),
(68,614,o),
(81,607,o),
(81,593,c),
(84,521,o),
(86,448,o),
(88,376,c),
(89,373,o),
(88,370,o),
(91,366,c)
);
}
);
width = 255;
}
);
unicode = 98;
},
{
glyphname = c;
kernLeft = c;
kernRight = c;
lastChange = "2022-09-01 02:21:43 +0000";
layers = (
{
anchors = (
{
name = bottom;
pos = (93,97);
},
{
name = top;
pos = (108,364);
}
);
layerId = m01;
shapes = (
{
closed = 1;
nodes = (
(24,241,o),
(40,278,o),
(65,311,c),
(78,327,o),
(95,339,o),
(115,346,c),
(132,351,o),
(149,350,o),
(165,340,c),
(172,335,o),
(177,329,o),
(179,321,c),
(184,299,o),
(168,282,o),
(147,287,c),
(135,290,o),
(127,286,o),
(119,278,c),
(91,246,o),
(81,210,o),
(91,169,c),
(97,143,o),
(110,138,o),
(134,150,c),
(142,154,o),
(149,160,o),
(155,168,c),
(157,172,o),
(160,175,o),
(163,178,c),
(167,183,o),
(173,185,o),
(179,182,c),
(186,179,o),
(190,175,o),
(190,167,c),
(191,147,o),
(182,132,o),
(169,118,c),
(152,101,o),
(132,92,o),
(109,87,c),
(90,84,o),
(72,89,o),
(58,103,c),
(40,121,o),
(31,143,o),
(27,167,c),
(25,177,o),
(24,188,o),
(25,197,c)
);
}
);
width = 215;
}
);
unicode = 99;
},
{
glyphname = d;
kernLeft = d;
kernRight = d;
lastChange = "2022-09-01 02:21:45 +0000";
layers = (
{
anchors = (
{
name = bottom;
pos = (139,0);
},
{
name = center;
pos = (139,400);
},
{
name = top;
pos = (139,800);
},
{
name = topright;
pos = (257,596);
}
);
layerId = m01;
shapes = (
{
closed = 1;
nodes = (
(152,292,o),
(145,289,o),
(139,284,c),
(131,279,o),
(125,272,o),
(119,264,c),
(98,237,o),
(86,207,o),
(89,172,c),
(89,164,o),
(89,153,o),
(97,151,c),
(104,149,o),
(110,158,o),
(114,164,c),
(131,188,o),
(142,213,o),
(150,240,c),
(155,257,o),
(158,273,o),
(162,291,c)
);
},
{
closed = 1;
nodes = (
(187,163,o),
(182,152,o),
(175,141,c),
(164,124,o),
(152,110,o),
(135,99,c),
(120,89,o),
(103,84,o),
(85,87,c),
(65,91,o),
(50,103,o),
(40,120,c),
(29,139,o),
(25,159,o),
(25,181,c),
(26,238,o),
(49,285,o),
(89,324,c),
(101,335,o),
(114,346,o),
(131,349,c),
(146,352,o),
(160,351,o),
(174,347,c),
(176,346,o),
(179,345,o),
(183,347,c),
(183,361,o),
(184,377,o),
(183,392,c),
(183,409,o),
(184,426,o),
(185,443,c),
(186,463,o),
(185,482,o),
(185,502,c),
(186,519,o),
(186,537,o),
(188,554,c),
(189,566,o),
(192,578,o),
(199,588,c),
(202,594,o),
(207,599,o),
(215,599,c),
(224,600,o),
(231,596,o),
(235,588,c),
(241,578,o),
(244,567,o),
(245,555,c),
(248,532,o),
(248,509,o),
(247,486,c),
(247,433,o),
(246,379,o),
(245,325,c),
(245,295,o),
(246,265,o),
(245,235,c),
(244,205,o),
(244,174,o),
(247,143,c),
(247,137,o),
(248,130,o),
(250,123,c),
(254,112,o),
(250,102,o),
(240,97,c),
(231,93,o),
(221,96,o),
(214,105,c),
(210,111,o),
(208,118,o),
(206,125,c),
(202,141,o),
(199,158,o),
(195,177,c)
);
}
);
width = 277;
}
);
unicode = 100;
},
{
glyphname = eth;
kernLeft = d;
kernRight = d;
lastChange = "2022-09-01 04:18:04 +0000";
layers = (
{
layerId = m01;
shapes = (
{
closed = 1;
nodes = (
(172,319,o),
(172,321,o),
(172,323,c),
(171,333,o),
(169,334,o),
(160,330,c),
(151,327,o),
(143,324,o),
(136,318,c),
(113,299,o),
(97,274,o),
(89,245,c),
(86,236,o),
(85,225,o),
(90,216,c),
(94,207,o),
(97,204,o),
(107,206,c),
(120,209,o),
(131,216,o),
(139,226,c),
(160,252,o),
(172,282,o),
(172,316,c)
);
},
{
closed = 1;
nodes = (
(154,399,o),
(147,417,o),
(138,437,c),
(131,431,o),
(124,425,o),
(118,419,c),
(111,413,o),
(104,409,o),
(97,404,c),
(94,401,o),
(90,401,o),
(86,401,c),
(77,402,o),
(72,412,o),
(77,420,c),
(82,430,o),
(92,438,o),
(99,446,c),
(105,452,o),
(111,458,o),
(117,463,c),
(122,467,o),
(124,471,o),
(120,477,c),
(115,484,o),
(111,492,o),
(107,500,c),
(105,504,o),
(103,506,o),
(99,508,c),
(90,514,o),
(88,517,o),
(89,525,c),
(91,534,o),
(98,541,o),
(106,543,c),
(113,544,o),
(120,541,o),
(125,537,c),
(136,530,o),
(144,520,o),
(152,510,c),
(161,498,o),
(159,498,o),
(172,508,c),
(184,517,o),
(196,526,o),
(209,533,c),
(212,535,o),
(216,538,o),
(221,537,c),
(227,537,o),
(232,535,o),
(234,529,c),
(236,523,o),
(232,519,o),
(228,516,c),
(213,506,o),
(201,494,o),
(188,482,c),
(176,473,o),
(178,475,o),
(185,464,c),
(208,424,o),
(224,382,o),
(229,336,c),
(237,263,o),
(211,203,o),
(153,159,c),
(132,143,o),
(107,139,o),
(81,146,c),
(47,155,o),
(30,184,o),
(26,214,c),
(20,254,o),
(33,289,o),
(59,320,c),
(71,334,o),
(83,346,o),
(98,356,c),
(118,370,o),
(133,377,o),
(161,379,c)
);
}
);
width = 260;
}
);
unicode = 240;
},
{
glyphname = dcroat;
kernLeft = d;
kernRight = d;
lastChange = "2022-09-01 04:18:04 +0000";
layers = (
{
layerId = m01;
shapes = (
{
closed = 1;
nodes = (
(154,257,o),
(157,273,o),
(162,291,c),
(152,292,o),
(145,289,o),
(138,284,c),
(131,279,o),
(124,272,o),
(119,264,c),
(97,237,o),
(86,207,o),
(88,172,c),
(89,164,o),
(88,153,o),
(97,151,c),
(104,149,o),
(109,158,o),
(114,164,c),
(130,188,o),
(141,213,o),
(149,240,c)
);
},
{
closed = 1;
nodes = (
(317,440,o),
(318,429,o),
(307,420,c),
(303,417,o),
(279,416,o),
(246,412,c),
(246,383,o),
(245,354,o),
(245,325,c),
(244,295,o),
(245,265,o),
(245,235,c),
(244,205,o),
(244,174,o),
(246,143,c),
(247,137,o),
(247,130,o),
(250,123,c),
(254,112,o),
(250,102,o),
(240,97,c),
(231,93,o),
(221,96,o),
(214,105,c),
(210,111,o),
(207,118,o),
(206,125,c),
(202,141,o),
(198,158,o),
(194,177,c),
(187,163,o),
(182,152,o),
(175,141,c),
(164,124,o),
(151,110,o),
(134,99,c),
(119,89,o),
(103,84,o),
(84,87,c),
(64,91,o),
(50,103,o),
(40,120,c),
(29,139,o),
(25,159,o),
(25,181,c),
(26,238,o),
(49,285,o),
(89,324,c),
(101,335,o),
(113,346,o),
(131,349,c),
(145,352,o),
(160,351,o),
(174,347,c),
(176,346,o),
(178,345,o),
(183,347,c),
(183,361,o),
(183,377,o),
(183,392,c),
(183,396,o),
(183,400,o),
(183,405,c),
(181,404,o),
(180,404,o),
(178,404,c),
(173,403,o),
(125,394,o),
(118,396,c),
(100,403,o),
(95,430,o),
(113,444,c),
(119,448,o),
(125,451,o),
(131,452,c),
(149,454,o),
(167,456,o),
(185,457,c),
(185,472,o),
(185,487,o),
(185,502,c),
(185,519,o),
(185,537,o),
(187,554,c),
(189,566,o),
(192,578,o),
(198,588,c),
(202,594,o),
(207,599,o),
(215,599,c),
(224,600,o),
(230,596,o),
(235,588,c),
(241,578,o),
(243,567,o),
(245,555,c),
(247,532,o),
(247,509,o),
(247,486,c),
(247,477,o),
(247,467,o),
(247,457,c),
(281,456,o),
(304,452,o),
(307,450,c)
);
}
);
width = 280;
}
);
unicode = 273;
},
{
glyphname = e;
kernLeft = e;
kernRight = e;
lastChange = "2022-09-01 02:21:48 +0000";
layers = (
{
anchors = (
{
name = bottom;
pos = (97,103);
},
{
name = ogonek;
pos = (130,100);
},
{
name = top;
pos = (134,384);
}
);
layerId = m01;
shapes = (
{
closed = 1;
nodes = (
(150,323,o),
(149,328,o),
(145,330,c),
(141,332,o),
(137,330,o),
(133,327,c),
(130,325,o),
(127,322,o),
(124,319,c),
(112,304,o),
(105,287,o),
(99,270,c),
(98,268,o),
(97,265,o),
(100,263,c),
(102,261,o),
(105,262,o),
(107,263,c),
(127,274,o),
(141,291,o),
(149,312,c),
(150,314,o),
(150,317,o),
(150,317,c)
);
},
{
closed = 1;
nodes = (
(25,249,o),
(38,287,o),
(58,324,c),
(68,342,o),
(81,358,o),
(98,370,c),
(109,378,o),
(121,383,o),
(134,384,c),
(174,387,o),
(206,352,o),
(200,310,c),
(199,302,o),
(196,293,o),
(192,285,c),
(180,262,o),
(165,242,o),
(143,227,c),
(129,217,o),
(114,209,o),
(96,210,c),
(90,210,o),
(89,209,o),
(89,203,c),
(88,188,o),
(91,174,o),
(96,160,c),
(101,148,o),
(104,147,o),
(115,154,c),
(124,159,o),
(131,165,o),
(138,172,c),
(146,179,o),
(154,185,o),
(162,191,c),
(164,193,o),
(167,195,o),
(170,196,c),
(183,201,o),
(194,193,o),
(194,179,c),
(194,173,o),
(193,166,o),
(191,160,c),
(179,126,o),
(159,100,o),
(123,89,c),
(98,82,o),
(76,88,o),
(57,107,c),
(38,126,o),
(31,151,o),
(27,177,c),
(26,187,o),
(26,197,o),
(25,207,c)
);
}
);
width = 226;
}
);
unicode = 101;
},
{
glyphname = f;
lastChange = "2022-09-01 02:17:36 +0000";
layers = (
{
anchors = (
{
name = bottom;
pos = (98,0);
},
{
name = top;
pos = (98,800);
}
);
layerId = m01;
shapes = (
{
closed = 1;
nodes = (
(102,311,o),
(100,297,o),
(98,283,c),
(95,246,o),
(95,208,o),
(95,171,c),
(95,165,o),
(97,162,o),
(104,164,c),
(117,166,o),
(131,167,o),
(145,166,c),
(159,165,o),
(168,156,o),
(167,142,c),
(167,132,o),
(159,127,o),
(152,122,c),
(138,115,o),
(124,111,o),
(110,106,c),
(98,102,o),
(98,102,o),
(99,89,c),
(100,77,o),
(101,65,o),
(100,52,c),
(100,27,o),
(99,1,o),
(98,-24,c),
(98,-29,o),
(98,-33,o),
(96,-37,c),
(91,-45,o),
(85,-50,o),
(75,-49,c),
(67,-49,o),
(59,-42,o),
(56,-32,c),
(54,-23,o),
(51,-13,o),
(50,-4,c),
(46,21,o),
(39,45,o),
(38,71,c),
(37,76,o),
(37,82,o),
(36,87,c),
(36,94,o),
(35,100,o),
(30,106,c),
(23,115,o),
(23,126,o),
(29,136,c),
(32,141,o),
(34,146,o),
(34,151,c),
(32,189,o),
(32,226,o),
(34,263,c),
(35,289,o),
(38,316,o),
(46,342,c),
(51,357,o),
(58,371,o),
(70,381,c),
(87,396,o),
(109,398,o),
(128,385,c),
(136,380,o),
(142,373,o),
(147,365,c),
(158,348,o),
(166,328,o),
(169,308,c),
(170,303,o),
(170,298,o),
(169,293,c),
(169,284,o),
(165,277,o),
(156,274,c),
(147,271,o),
(140,275,o),
(135,281,c),
(131,287,o),
(127,293,o),
(125,299,c),
(120,308,o),
(116,318,o),
(107,326,c)
);
}
);
width = 195;
}
);
unicode = 102;
},
{
glyphname = g;
kernLeft = g;
kernRight = g;
lastChange = "2022-09-01 02:17:50 +0000";
layers = (
{
anchors = (
{
name = bottom;
pos = (125,-22);
},
{
name = top;
pos = (134,368);
}
);
layerId = m01;
shapes = (
{
closed = 1;
nodes = (
(106,195,o),
(110,205,o),
(115,216,c),
(126,243,o),
(133,272,o),
(138,302,c),
(139,312,o),
(135,316,o),
(125,313,c),
(119,311,o),
(115,308,o),
(111,304,c),
(104,296,o),
(100,288,o),
(96,279,c),
(87,256,o),
(87,232,o),
(90,208,c),
(91,201,o),
(92,194,o),
(97,188,c)
);
},
{
closed = 1;
nodes = (
(154,181,o),
(150,173,o),
(146,165,c),
(141,154,o),
(134,143,o),
(125,135,c),
(103,114,o),
(74,115,o),
(53,138,c),
(41,151,o),
(35,168,o),
(31,185,c),
(21,223,o),
(23,262,o),
(37,299,c),
(46,323,o),
(59,345,o),
(81,360,c),
(103,375,o),
(126,380,o),
(151,370,c),
(158,368,o),
(163,367,o),
(170,370,c),
(188,377,o),
(208,365,o),
(212,346,c),
(217,323,o),
(218,300,o),
(219,277,c),
(222,227,o),
(223,177,o),
(221,127,c),
(220,103,o),
(219,78,o),
(211,54,c),
(203,27,o),
(190,3,o),
(169,-16,c),
(161,-23,o),
(152,-28,o),
(142,-30,c),
(116,-35,o),
(88,-15,o),
(84,11,c),
(83,18,o),
(85,24,o),
(91,28,c),
(96,31,o),
(102,32,o),
(108,29,c),
(113,26,o),
(116,23,o),
(120,19,c),
(125,15,o),
(128,16,o),
(132,21,c),
(140,32,o),
(146,45,o),
(149,59,c),
(159,101,o),
(160,145,o),
(158,189,c)
);
}
);
width = 247;
}
);
unicode = 103;
},
{
glyphname = h;
kernLeft = h;
kernRight = h;
lastChange = "2022-09-01 02:18:10 +0000";
layers = (
{
anchors = (
{
name = bottom;
pos = (120,0);
},
{
name = center;
pos = (120,400);
},
{
name = top;
pos = (120,800);
}
);
layerId = m01;
shapes = (
{
closed = 1;
nodes = (
(93,312,o),
(95,322,o),
(98,333,c),
(101,345,o),
(106,356,o),
(115,365,c),
(130,380,o),
(151,384,o),
(170,373,c),
(182,365,o),
(190,354,o),
(195,341,c),
(206,316,o),
(210,289,o),
(213,262,c),
(216,222,o),
(212,183,o),
(208,144,c),
(207,137,o),
(205,130,o),
(200,124,c),
(195,117,o),
(186,113,o),
(178,116,c),
(170,118,o),
(166,124,o),
(165,134,c),
(162,167,o),
(158,200,o),
(153,233,c),
(150,252,o),
(150,271,o),
(146,289,c),
(142,289,o),
(142,286,o),
(141,284,c),
(122,239,o),
(109,192,o),
(105,143,c),
(104,129,o),
(102,114,o),
(100,100,c),
(98,87,o),
(89,78,o),
(76,77,c),
(65,77,o),
(54,86,o),
(52,99,c),
(49,113,o),
(48,126,o),
(47,140,c),
(43,171,o),
(40,203,o),
(37,234,c),
(33,270,o),
(30,306,o),
(28,342,c),
(26,374,o),
(25,405,o),
(25,437,c),
(25,471,o),
(24,506,o),
(31,540,c),
(33,551,o),
(36,561,o),
(42,570,c),
(49,581,o),
(61,587,o),
(72,583,c),
(83,580,o),
(90,570,o),
(90,557,c),
(91,504,o),
(86,451,o),
(87,398,c),
(88,366,o),
(87,334,o),
(87,302,c),
(88,302,o),
(89,302,o),
(90,302,c)
);
}
);
width = 239;
}
);
unicode = 104;
},
{
glyphname = hbar;
kernLeft = h;
kernRight = h;
lastChange = "2022-09-01 04:18:19 +0000";
layers = (
{
layerId = m01;
shapes = (
{
closed = 1;
nodes = (
(217,222,o),
(213,183,o),
(209,144,c),
(208,137,o),
(206,130,o),
(201,124,c),
(196,117,o),
(187,113,o),
(179,116,c),
(171,118,o),
(167,124,o),
(166,134,c),
(163,167,o),
(159,200,o),
(154,233,c),
(151,252,o),
(151,271,o),
(147,289,c),
(143,289,o),
(143,286,o),
(142,284,c),
(123,239,o),
(110,192,o),
(106,143,c),
(105,129,o),
(103,114,o),
(101,100,c),
(99,87,o),
(89,78,o),
(77,77,c),
(66,77,o),
(55,86,o),
(53,99,c),
(50,113,o),
(49,126,o),
(48,140,c),
(44,171,o),
(41,203,o),
(38,234,c),
(34,270,o),
(31,306,o),
(29,342,c),
(28,362,o),
(27,382,o),
(27,401,c),
(10,398,o),
(-14,395,o),
(-19,396,c),
(-37,403,o),
(-42,430,o),
(-24,444,c),
(-18,448,o),
(-12,451,o),
(-6,452,c),
(5,453,o),
(16,454,o),
(26,455,c),
(26,484,o),
(27,512,o),
(32,540,c),
(34,551,o),
(37,561,o),
(43,570,c),
(50,581,o),
(62,587,o),
(73,583,c),
(84,580,o),
(91,570,o),
(91,557,c),
(92,524,o),
(90,491,o),
(89,458,c),
(134,457,o),
(167,452,o),
(170,450,c),
(180,440,o),
(181,429,o),
(170,420,c),
(166,417,o),
(131,415,o),
(88,410,c),
(88,406,o),
(88,402,o),
(88,398,c),
(89,366,o),
(88,334,o),
(88,302,c),
(91,302,l),
(94,312,o),
(96,322,o),
(99,333,c),
(102,345,o),
(107,356,o),
(116,365,c),
(131,380,o),
(152,384,o),
(171,373,c),
(183,365,o),
(191,354,o),
(196,341,c),
(207,316,o),
(211,289,o),
(214,262,c)
);
}
);
width = 240;
}
);
unicode = 295;
},
{
glyphname = i;
kernLeft = i;
kernRight = i;
lastChange = "2022-09-01 02:22:27 +0000";
layers = (
{
anchors = (
{
name = bottom;
pos = (70,99);
}
);
layerId = m01;
shapes = (
{
closed = 1;
nodes = (
(94,130,o),
(91,124,o),
(83,120,c),
(75,116,o),
(67,117,o),
(59,123,c),
(52,129,o),
(49,137,o),
(46,146,c),
(43,158,o),
(41,172,o),
(39,185,c),
(34,229,o),
(30,274,o),
(33,319,c),
(34,329,o),
(35,339,o),
(41,348,c),
(46,357,o),
(53,363,o),
(64,363,c),
(75,362,o),
(82,356,o),
(86,347,c),
(90,339,o),
(92,330,o),
(92,321,c),
(92,292,o),
(92,264,o),
(92,229,c),
(91,218,o),
(90,202,o),
(90,185,c),
(90,170,o),
(90,155,o),
(92,140,c)
);
},
{
closed = 1;
nodes = (
(52,411,o),
(42,412,o),
(32,422,c),
(25,429,o),
(23,442,o),
(28,453,c),
(33,464,o),
(47,473,o),
(60,473,c),
(72,473,o),
(82,466,o),
(86,455,c),
(90,444,o),
(87,432,o),
(77,424,c),
(73,421,o),
(69,419,o),
(65,417,c)
);
}
);
width = 118;
}
);
unicode = 105;
},
{
glyphname = idotless;
kernLeft = i;
kernRight = i;
lastChange = "2022-09-01 04:18:30 +0000";
layers = (
{
anchors = (
{
name = bottom;
pos = (56,0);
},
{
name = ogonek;
pos = (68,131);
},
{
name = top;
pos = (57,363);
}
);
layerId = m01;
shapes = (
{
closed = 1;
nodes = (
(87,130,o),
(84,124,o),
(76,120,c),
(68,116,o),
(60,117,o),
(52,123,c),
(45,129,o),
(42,137,o),
(39,146,c),
(36,158,o),
(34,172,o),
(32,185,c),
(27,229,o),
(23,274,o),
(26,319,c),
(27,329,o),
(28,339,o),
(34,348,c),
(39,357,o),
(46,363,o),
(57,363,c),
(68,362,o),
(75,356,o),
(79,347,c),
(83,339,o),
(85,330,o),
(85,321,c),
(85,292,o),
(85,264,o),
(85,229,c),
(84,218,o),
(83,202,o),
(83,185,c),
(83,170,o),
(83,155,o),
(85,140,c)
);
}
);
width = 111;
}
);
unicode = 305;
},
{
glyphname = j;
kernLeft = j;
kernRight = j;
lastChange = "2022-09-01 02:18:51 +0000";
layers = (
{
layerId = m01;
shapes = (
{
closed = 1;
nodes = (
(116,301,o),
(128,153,o),
(127,85,c),
(126,51,o),
(119,18,o),
(108,-14,c),
(97,-44,o),
(77,-65,o),
(45,-71,c),
(32,-74,o),
(19,-73,o),
(7,-69,c),
(-7,-63,o),
(-17,-52,o),
(-21,-37,c),
(-23,-31,o),
(-24,-24,o),
(-25,-17,c),
(-26,-9,o),
(-22,-3,o),
(-16,-1,c),
(-9,2,o),
(-2,0,o),
(3,-8,c),
(5,-11,o),
(7,-14,o),
(8,-18,c),
(10,-23,o),
(13,-28,o),
(20,-28,c),
(27,-28,o),
(32,-25,o),
(36,-18,c),
(53,12,o),
(62,45,o),
(63,80,c),
(64,88,o),
(63,96,o),
(63,105,c),
(63,128,o),
(59,234,o),
(55,257,c),
(52,274,o),
(49,291,o),
(46,307,c),
(43,316,o),
(42,326,o),
(37,334,c),
(35,339,o),
(34,344,o),
(33,349,c),
(31,366,o),
(39,375,o),
(56,381,c),
(67,385,o),
(83,376,o),
(89,364,c)
);
},
{
closed = 1;
nodes = (
(39,418,o),
(27,429,o),
(27,443,c),
(27,455,o),
(36,465,o),
(49,465,c),
(63,465,o),
(75,454,o),
(75,440,c),
(75,428,o),
(65,419,o),
(53,418,c)
);
}
);
width = 152;
}
);
unicode = 106;
},
{
glyphname = jdotless;
kernLeft = j;
kernRight = j;
lastChange = "2022-09-01 04:18:47 +0000";
layers = (
{
anchors = (
{
name = bottom;
pos = (101,-200);
},
{
name = top;
pos = (106,368);
}
);
layerId = m01;
shapes = (
{
closed = 1;
nodes = (
(166,301,o),
(178,153,o),
(177,85,c),
(176,51,o),
(169,18,o),
(158,-14,c),
(147,-44,o),
(127,-65,o),
(95,-71,c),
(82,-74,o),
(69,-73,o),
(57,-69,c),
(43,-63,o),
(33,-52,o),
(29,-37,c),
(27,-31,o),
(26,-24,o),
(25,-17,c),
(24,-9,o),
(28,-3,o),
(34,-1,c),
(41,2,o),
(48,0,o),
(53,-8,c),
(55,-11,o),
(57,-14,o),
(58,-18,c),
(60,-23,o),
(63,-28,o),
(70,-28,c),
(77,-28,o),
(82,-25,o),
(86,-18,c),
(103,12,o),
(112,45,o),
(113,80,c),
(114,88,o),
(113,96,o),
(113,105,c),
(113,128,o),
(109,234,o),
(105,257,c),
(102,274,o),
(99,291,o),
(96,307,c),
(93,316,o),
(92,326,o),
(87,334,c),
(85,339,o),
(84,344,o),
(83,349,c),
(81,366,o),
(89,375,o),
(106,381,c),
(117,385,o),
(133,376,o),
(139,364,c)
);
}
);
width = 202;
}
);
unicode = 567;
},
{
glyphname = k;
kernLeft = k;
kernRight = k;
lastChange = "2022-09-01 02:22:31 +0000";
layers = (
{
anchors = (
{
name = bottom;
pos = (131,94);
},
{
name = top;
pos = (131,800);
}
);
layerId = m01;
shapes = (
{
closed = 1;
nodes = (
(105,273,o),
(110,280,o),
(115,287,c),
(131,311,o),
(145,336,o),
(159,360,c),
(162,366,o),
(167,371,o),
(172,374,c),
(186,381,o),
(201,373,o),
(203,358,c),
(204,350,o),
(203,343,o),
(200,336,c),
(183,301,o),
(165,267,o),
(140,238,c),
(131,228,o),
(131,230,o),
(139,219,c),
(157,195,o),
(178,175,o),
(204,159,c),
(208,157,o),
(211,154,o),
(216,153,c),
(228,151,o),
(235,143,o),
(236,132,c),
(237,120,o),
(230,109,o),
(220,105,c),
(210,101,o),
(200,101,o),
(190,103,c),
(171,108,o),
(155,116,o),
(140,128,c),
(127,138,o),
(116,150,o),
(103,161,c),
(104,148,o),
(105,136,o),
(106,123,c),
(107,116,o),
(108,109,o),
(110,103,c),
(111,95,o),
(109,88,o),
(102,84,c),
(95,79,o),
(88,80,o),
(82,85,c),
(76,89,o),
(72,94,o),
(69,101,c),
(63,116,o),
(60,133,o),
(57,150,c),
(50,180,o),
(46,211,o),
(43,242,c),
(39,276,o),
(34,310,o),
(32,344,c),
(30,369,o),
(28,394,o),
(28,419,c),
(28,457,o),
(25,496,o),
(25,534,c),
(26,558,o),
(25,581,o),
(28,604,c),
(29,611,o),
(30,616,o),
(34,621,c),
(41,630,o),
(50,635,o),
(62,633,c),
(73,630,o),
(83,622,o),
(84,610,c),
(85,605,o),
(85,600,o),
(85,594,c),
(88,545,o),
(89,496,o),
(90,447,c),
(92,388,o),
(95,329,o),
(97,270,c),
(97,268,o),
(97,267,o),
(100,266,c)
);
}
);
width = 261;
}
);
unicode = 107;
},
{
glyphname = l;
kernLeft = l;
kernRight = l;
lastChange = "2022-09-01 04:19:14 +0000";
layers = (
{
anchors = (
{
name = bottom;
pos = (66,39);
},
{
name = center;
pos = (57,400);
},
{
name = top;
pos = (57,606);
},
{
name = topright;
pos = (94,539);
}
);
layerId = m01;
shapes = (
{
closed = 1;
nodes = (
(88,138,o),
(90,125,o),
(88,111,c),
(88,107,o),
(88,102,o),
(87,97,c),
(86,89,o),
(82,83,o),
(73,81,c),
(64,80,o),
(58,82,o),
(52,89,c),
(46,96,o),
(43,105,o),
(40,114,c),
(36,130,o),
(34,146,o),
(33,162,c),
(28,211,o),
(27,260,o),
(26,309,c),
(25,379,o),
(24,448,o),
(25,518,c),
(25,524,o),
(25,530,o),
(27,536,c),
(31,549,o),
(42,558,o),
(55,558,c),
(68,558,o),
(78,550,o),
(82,536,c),
(83,532,o),
(84,528,o),
(84,524,c),
(87,466,o),
(88,409,o),
(89,351,c),
(89,334,o),
(89,201,o),
(88,151,c)
);
}
);
width = 114;
}
);
unicode = 108;
},
{
glyphname = lslash;
kernLeft = l;
kernRight = l;
lastChange = "2022-09-01 04:19:00 +0000";
layers = (
{
layerId = m01;
shapes = (
{
closed = 1;
nodes = (
(143,350,o),
(119,326,o),
(90,293,c),
(90,245,o),
(90,182,o),
(90,151,c),
(90,138,o),
(92,125,o),
(90,111,c),
(90,107,o),
(89,102,o),
(89,97,c),
(87,89,o),
(83,83,o),
(74,81,c),
(66,80,o),
(59,82,o),
(54,89,c),
(48,96,o),
(44,105,o),
(42,114,c),
(38,130,o),
(36,146,o),
(34,162,c),
(33,181,o),
(31,200,o),
(30,219,c),
(26,215,o),
(22,211,o),
(20,210,c),
(3,203,o),
(-19,219,o),
(-15,242,c),
(-13,249,o),
(-11,255,o),
(-7,260,c),
(4,274,o),
(16,287,o),
(28,299,c),
(28,303,o),
(28,306,o),
(28,309,c),
(27,379,o),
(26,448,o),
(27,518,c),
(27,524,o),
(27,530,o),
(29,536,c),
(33,549,o),
(44,558,o),
(57,558,c),
(70,558,o),
(80,550,o),
(84,536,c),
(85,532,o),
(85,528,o),
(86,524,c),
(89,467,o),
(90,411,o),
(90,355,c),
(108,369,o),
(121,377,o),
(124,377,c),
(138,377,o),
(146,370,o),
(144,356,c)
);
}
);
width = 119;
}
);
unicode = 322;
},
{
glyphname = m;
lastChange = "2022-09-01 02:20:03 +0000";
layers = (
{
anchors = (
{
name = bottom;
pos = (196,134);
},
{
name = top;
pos = (196,362);
}
);
layerId = m01;
shapes = (
{
closed = 1;
nodes = (
(98,271,o),
(100,279,o),
(104,286,c),
(112,306,o),
(124,325,o),
(140,340,c),
(149,348,o),
(158,354,o),
(170,354,c),
(189,354,o),
(200,343,o),
(208,328,c),
(212,320,o),
(213,311,o),
(216,302,c),
(221,305,o),
(222,309,o),
(223,313,c),
(232,330,o),
(242,347,o),
(256,360,c),
(281,382,o),
(316,386,o),
(339,353,c),
(351,336,o),
(356,317,o),
(359,298,c),
(365,260,o),
(368,223,o),
(363,185,c),
(360,167,o),
(359,150,o),
(358,132,c),
(357,127,o),
(358,122,o),
(359,117,c),
(361,107,o),
(355,97,o),
(346,94,c),
(337,90,o),
(328,94,o),
(322,103,c),
(319,109,o),
(317,115,o),
(316,121,c),
(312,148,o),
(307,176,o),
(303,203,c),
(301,221,o),
(301,238,o),
(301,256,c),
(300,271,o),
(297,285,o),
(295,300,c),
(294,304,o),
(293,309,o),
(289,313,c),
(279,308,o),
(273,300,o),
(266,291,c),
(254,273,o),
(244,253,o),
(236,232,c),
(229,213,o),
(223,193,o),
(220,172,c),
(219,165,o),
(219,158,o),
(218,152,c),
(217,137,o),
(209,128,o),
(196,127,c),
(184,125,o),
(174,132,o),
(170,146,c),
(165,161,o),
(165,176,o),
(162,191,c),
(159,216,o),
(158,241,o),
(157,266,c),
(157,268,o),
(157,270,o),
(155,271,c),
(150,268,o),
(149,262,o),
(147,258,c),
(129,213,o),
(119,166,o),
(118,117,c),
(118,110,o),
(117,102,o),
(113,95,c),
(102,78,o),
(80,76,o),
(66,92,c),
(61,98,o),
(58,106,o),
(56,115,c),
(48,145,o),
(42,176,o),
(37,207,c),
(31,244,o),
(26,281,o),
(26,318,c),
(25,331,o),
(25,344,o),
(30,357,c),
(35,367,o),
(46,375,o),
(56,374,c),
(67,374,o),
(76,366,o),
(80,355,c),
(84,344,o),
(83,333,o),
(85,321,c),
(87,304,o),
(89,287,o),
(91,269,c),
(91,267,o),
(92,265,o),
(95,263,c)
);
}
);
width = 391;
}
);
unicode = 109;
},
{
glyphname = n;
kernLeft = n;
kernRight = n;
lastChange = "2022-09-01 02:22:22 +0000";
layers = (
{
anchors = (
{
name = bottom;
pos = (147,124);
},
{
name = top;
pos = (141,345);
}
);
layerId = m01;
shapes = (
{
closed = 1;
nodes = (
(149,257,o),
(144,250,o),
(140,242,c),
(121,209,o),
(110,172,o),
(104,134,c),
(103,125,o),
(100,116,o),
(96,109,c),
(90,99,o),
(81,93,o),
(69,94,c),
(58,94,o),
(50,101,o),
(44,111,c),
(40,119,o),
(39,128,o),
(38,137,c),
(33,172,o),
(28,208,o),
(26,244,c),
(24,268,o),
(26,292,o),
(30,316,c),
(30,320,o),
(32,324,o),
(33,328,c),
(37,339,o),
(45,344,o),
(55,343,c),
(64,342,o),
(72,334,o),
(73,324,c),
(76,303,o),
(78,283,o),
(81,262,c),
(82,258,o),
(81,253,o),
(84,249,c),
(88,251,o),
(88,254,o),
(89,257,c),
(98,275,o),
(106,292,o),
(118,307,c),
(123,314,o),
(128,321,o),
(135,326,c),
(158,345,o),
(188,340,o),
(205,315,c),
(213,301,o),
(217,285,o),
(219,269,c),
(223,242,o),
(226,215,o),
(230,188,c),
(232,172,o),
(235,157,o),
(237,141,c),
(239,135,o),
(241,130,o),
(247,126,c),
(257,121,o),
(259,113,o),
(256,103,c),
(248,80,o),
(225,74,o),
(207,89,c),
(199,96,o),
(194,104,o),
(190,113,c),
(176,138,o),
(169,165,o),
(166,194,c),
(163,215,o),
(162,236,o),
(158,257,c),
(158,259,o),
(157,260,o),
(157,264,c)
);
}
);
width = 282;
}
);
unicode = 110;
},
{
glyphname = o;
kernLeft = o;
kernRight = o;
lastChange = "2022-09-01 02:20:51 +0000";
layers = (
{
anchors = (
{
name = bottom;
pos = (125,0);
},
{
name = center;
pos = (125,400);
},
{
name = ogonek;
pos = (138,102);
},
{
name = top;
pos = (125,372);
},
{
name = topright;
pos = (229,800);
}
);
layerId = m01;
shapes = (
{
closed = 1;
nodes = (
(124,285,o),
(119,284,o),
(114,283,c),
(105,283,o),
(101,278,o),
(98,270,c),
(85,237,o),
(85,205,o),
(95,171,c),
(98,163,o),
(102,156,o),
(108,149,c),
(114,143,o),
(116,142,o),
(122,148,c),
(130,156,o),
(138,164,o),
(143,174,c),
(148,185,o),
(153,196,o),
(156,208,c),
(160,225,o),
(164,242,o),
(160,260,c),
(155,279,o),
(148,285,o),
(129,285,c)
);
},
{
closed = 1;
nodes = (
(222,193,o),
(206,151,o),
(176,113,c),
(165,99,o),
(151,88,o),
(133,83,c),
(115,79,o),
(99,81,o),
(83,89,c),
(71,96,o),
(60,106,o),
(53,118,c),
(30,154,o),
(23,193,o),
(26,234,c),
(29,271,o),
(41,304,o),
(65,332,c),
(75,343,o),
(88,350,o),
(102,353,c),
(115,356,o),
(125,353,o),
(135,345,c),
(138,342,o),
(141,342,o),
(146,342,c),
(170,345,o),
(189,334,o),
(203,315,c),
(219,293,o),
(224,268,o),
(224,235,c)
);
}
);
width = 249;
}
);
unicode = 111;
},
{
glyphname = oslash;
kernLeft = o;
kernRight = o;
lastChange = "2022-09-01 04:19:33 +0000";
layers = (
{
layerId = m01;
shapes = (
{
closed = 1;
nodes = (
(159,215,o),
(161,221,o),
(162,227,c),
(140,205,o),
(118,181,o),
(101,161,c),
(103,157,o),
(106,153,o),
(109,149,c),
(115,143,o),
(118,142,o),
(124,148,c),
(132,156,o),
(139,164,o),
(144,174,c),
(149,185,o),
(155,196,o),
(158,208,c)
);
},
{
closed = 1;
nodes = (
(106,283,o),
(102,278,o),
(99,270,c),
(93,253,o),
(89,237,o),
(89,220,c),
(111,241,o),
(133,261,o),
(152,279,c),
(148,283,o),
(141,285,o),
(130,285,c),
(125,285,o),
(120,284,o),
(115,283,c)
);
},
{
closed = 1;
nodes = (
(230,330,o),
(237,323,o),
(236,309,c),
(235,307,o),
(229,299,o),
(219,288,c),
(224,273,o),
(226,255,o),
(226,235,c),
(223,193,o),
(207,151,o),
(177,113,c),
(166,99,o),
(152,88,o),
(134,83,c),
(116,79,o),
(100,81,o),
(84,89,c),
(75,95,o),
(67,102,o),
(60,110,c),
(54,102,o),
(48,96,o),
(45,95,c),
(28,88,o),
(6,104,o),
(10,127,c),
(11,134,o),
(14,140,o),
(17,145,c),
(22,151,o),
(28,157,o),
(34,163,c),
(27,186,o),
(25,210,o),
(27,234,c),
(30,271,o),
(42,304,o),
(67,332,c),
(77,343,o),
(90,350,o),
(104,353,c),
(116,356,o),
(127,353,o),
(136,345,c),
(140,342,o),
(143,342,o),
(147,342,c),
(170,345,o),
(187,336,o),
(201,320,c),
(209,326,o),
(214,330,o),
(216,330,c)
);
}
);
width = 251;
}
);
unicode = 248;
},
{
glyphname = oe;
kernLeft = o;
kernRight = e;
lastChange = "2022-09-01 04:19:39 +0000";
layers = (
{
layerId = m01;
shapes = (
{
closed = 1;
nodes = (
(148,185,o),
(153,196,o),
(156,208,c),
(160,225,o),
(164,242,o),
(160,260,c),
(155,279,o),
(148,285,o),
(129,285,c),
(124,285,o),
(119,284,o),
(114,283,c),
(105,283,o),
(101,278,o),
(98,270,c),
(85,237,o),
(85,205,o),
(95,171,c),
(98,163,o),
(102,156,o),
(108,149,c),
(114,143,o),
(116,142,o),
(122,148,c),
(130,156,o),
(138,164,o),
(143,174,c)
);
},
{
closed = 1;
nodes = (
(234,268,o),
(233,265,o),
(236,263,c),
(238,261,o),
(241,262,o),
(243,263,c),
(263,274,o),
(278,291,o),
(285,312,c),
(286,314,o),
(286,317,o),
(286,317,c),
(286,323,o),
(285,328,o),
(281,330,c),
(277,332,o),
(273,330,o),
(269,327,c),
(266,325,o),
(263,322,o),
(260,319,c),
(248,304,o),
(241,287,o),
(235,270,c)
);
},
{
closed = 1;
nodes = (
(226,210,o),
(225,209,o),
(225,203,c),
(224,188,o),
(227,174,o),
(232,160,c),
(237,148,o),
(240,147,o),
(251,154,c),
(260,159,o),
(267,165,o),
(274,172,c),
(282,179,o),
(290,185,o),
(298,191,c),
(300,193,o),
(303,195,o),
(306,196,c),
(319,201,o),
(330,193,o),
(330,179,c),
(330,173,o),
(329,166,o),
(327,160,c),
(315,126,o),
(295,100,o),
(259,89,c),
(234,82,o),
(212,88,o),
(193,107,c),
(189,111,o),
(185,116,o),
(182,121,c),
(180,119,o),
(178,116,o),
(176,113,c),
(165,99,o),
(151,88,o),
(133,83,c),
(115,79,o),
(99,81,o),
(83,89,c),
(71,96,o),
(60,106,o),
(53,118,c),
(30,154,o),
(23,193,o),
(26,234,c),
(29,271,o),
(41,304,o),
(65,332,c),
(75,343,o),
(88,350,o),
(103,353,c),
(115,356,o),
(125,353,o),
(135,345,c),
(138,342,o),
(141,342,o),
(146,342,c),
(166,344,o),
(182,338,o),
(195,325,c),
(205,343,o),
(217,358,o),
(234,370,c),
(245,378,o),
(257,383,o),
(270,384,c),
(311,387,o),
(342,352,o),
(336,310,c),
(335,302,o),
(332,293,o),
(328,285,c),
(316,262,o),
(301,242,o),
(279,227,c),
(265,217,o),
(250,209,o),
(232,210,c)
);
}
);
width = 362;
}
);
unicode = 339;
},
{
glyphname = p;
lastChange = "2022-08-31 22:58:00 +0000";
layers = (
{
anchors = (
{
name = bottom;
pos = (128,0);
},
{
name = top;
pos = (145,347);
}
);
layerId = m01;
shapes = (
{
closed = 1;
nodes = (
(118,237,o),
(106,176,o),
(97,114,c),
(105,115,o),
(108,120,o),
(112,123,c),
(155,158,o),
(169,205,o),
(167,259,c),
(166,270,o),
(163,281,o),
(152,292,c)
);
},
{
closed = 1;
nodes = (
(96,321,o),
(100,326,o),
(104,331,c),
(133,363,o),
(176,364,o),
(205,328,c),
(222,307,o),
(230,281,o),
(230,254,c),
(231,199,o),
(217,148,o),
(181,104,c),
(175,97,o),
(168,90,o),
(160,85,c),
(142,73,o),
(123,64,o),
(102,62,c),
(95,61,o),
(94,58,o),
(94,52,c),
(94,35,o),
(94,18,o),
(96,1,c),
(99,-34,o),
(104,-68,o),
(106,-103,c),
(106,-111,o),
(106,-118,o),
(105,-125,c),
(102,-139,o),
(91,-148,o),
(78,-149,c),
(66,-150,o),
(55,-142,o),
(50,-129,c),
(47,-120,o),
(45,-111,o),
(44,-102,c),
(38,-55,o),
(34,-9,o),
(30,37,c),
(27,89,o),
(26,140,o),
(25,192,c),
(24,225,o),
(25,258,o),
(26,291,c),
(27,306,o),
(29,321,o),
(31,336,c),
(33,345,o),
(36,355,o),
(43,362,c),
(59,378,o),
(82,373,o),
(89,352,c),
(91,345,o),
(93,337,o),
(91,329,c),
(90,325,o),
(90,321,o),
(90,317,c),
(91,317,o),
(92,316,o),
(92,316,c)
);
}
);
width = 255;
}
);
unicode = 112;
},
{
glyphname = thorn;
kernLeft = p;
kernRight = p;
lastChange = "2022-09-01 04:19:44 +0000";
layers = (
{
layerId = m01;
shapes = (
{
closed = 1;
nodes = (
(88,194,o),
(93,201,o),
(100,207,c),
(119,223,o),
(135,242,o),
(146,265,c),
(149,272,o),
(152,279,o),
(152,288,c),
(153,303,o),
(144,312,o),
(129,312,c),
(115,313,o),
(102,308,o),
(91,301,c),
(85,297,o),
(82,292,o),
(82,285,c),
(79,254,o),
(80,222,o),
(78,188,c)
);
},
{
closed = 1;
nodes = (
(102,360,o),
(117,362,o),
(133,362,c),
(167,362,o),
(196,337,o),
(203,303,c),
(209,278,o),
(202,255,o),
(189,234,c),
(168,198,o),
(134,175,o),
(99,154,c),
(95,152,o),
(90,150,o),
(85,149,c),
(78,148,o),
(77,144,o),
(77,138,c),
(76,122,o),
(75,105,o),
(75,89,c),
(75,83,o),
(75,77,o),
(73,72,c),
(69,62,o),
(58,60,o),
(51,68,c),
(46,73,o),
(45,79,o),
(44,86,c),
(40,113,o),
(39,140,o),
(37,167,c),
(34,223,o),
(30,279,o),
(27,336,c),
(24,374,o),
(25,413,o),
(31,451,c),
(33,461,o),
(36,469,o),
(45,474,c),
(58,482,o),
(72,478,o),
(78,463,c),
(81,456,o),
(82,449,o),
(83,441,c),
(85,419,o),
(85,397,o),
(85,374,c),
(85,368,o),
(85,362,o),
(85,354,c)
);
}
);
width = 230;
}
);
unicode = 254;
},
{
glyphname = q;
lastChange = "2022-09-01 02:21:35 +0000";
layers = (
{
anchors = (
{
name = bottom;
pos = (133,0);
},
{
name = top;
pos = (133,800);
}
);
layerId = m01;
shapes = (
{
closed = 1;
nodes = (
(108,142,o),
(109,146,o),
(111,149,c),
(118,163,o),
(124,177,o),
(130,191,c),
(142,222,o),
(150,253,o),
(156,285,c),
(158,297,o),
(157,300,o),
(146,305,c),
(138,308,o),
(131,306,o),
(124,302,c),
(114,295,o),
(108,286,o),
(103,275,c),
(81,230,o),
(83,185,o),
(102,138,c)
);
},
{
closed = 1;
nodes = (
(166,119,o),
(163,114,o),
(159,109,c),
(153,98,o),
(145,87,o),
(135,80,c),
(113,63,o),
(87,64,o),
(67,82,c),
(59,90,o),
(52,98,o),
(48,108,c),
(17,175,o),
(16,242,o),
(50,309,c),
(58,324,o),
(68,337,o),
(81,347,c),
(109,369,o),
(139,377,o),
(172,360,c),
(176,358,o),
(179,357,o),
(183,361,c),
(193,372,o),
(205,374,o),
(218,369,c),
(232,364,o),
(238,353,o),
(240,339,c),
(240,336,o),
(240,334,o),
(240,331,c),
(239,276,o),
(238,221,o),
(236,166,c),
(234,106,o),
(230,45,o),
(233,-16,c),
(235,-47,o),
(238,-78,o),
(239,-109,c),
(239,-114,o),
(239,-120,o),
(238,-125,c),
(237,-135,o),
(232,-141,o),
(222,-144,c),
(213,-146,o),
(205,-143,o),
(199,-136,c),
(193,-129,o),
(189,-120,o),
(187,-111,c),
(178,-82,o),
(171,-52,o),
(170,-21,c),
(169,2,o),
(169,24,o),
(169,47,c),
(170,70,o),
(171,93,o),
(171,116,c),
(171,119,o),
(172,122,o),
(170,126,c)
);
}
);
width = 265;
}
);
unicode = 113;
},
{
glyphname = r;
kernLeft = r;
kernRight = r;
lastChange = "2022-09-01 02:22:18 +0000";
layers = (
{
anchors = (
{
name = bottom;
pos = (127,76);
},
{
name = top;
pos = (127,357);
}
);
layerId = m01;
shapes = (
{
closed = 1;
nodes = (
(91,309,o),
(92,314,o),
(94,318,c),
(102,333,o),
(112,348,o),
(127,357,c),
(147,369,o),
(167,372,o),
(188,360,c),
(203,352,o),
(211,334,o),
(208,318,c),
(205,301,o),
(192,295,o),
(177,304,c),
(169,309,o),
(165,309,o),
(158,302,c),
(154,298,o),
(151,293,o),
(148,288,c),
(142,274,o),
(137,260,o),
(133,246,c),
(125,218,o),
(118,190,o),
(114,162,c),
(112,144,o),
(110,127,o),
(110,109,c),
(110,102,o),
(110,95,o),
(107,88,c),
(103,76,o),
(93,68,o),
(80,68,c),
(66,67,o),
(56,73,o),
(50,85,c),
(46,92,o),
(45,100,o),
(44,107,c),
(38,144,o),
(33,181,o),
(29,218,c),
(25,255,o),
(25,293,o),
(26,331,c),
(26,343,o),
(30,352,o),
(40,358,c),
(56,368,o),
(76,360,o),
(81,342,c),
(84,335,o),
(85,328,o),
(85,321,c),
(84,316,o),
(85,311,o),
(85,305,c)
);
}
);
width = 234;
}
);
unicode = 114;
},
{
glyphname = s;
kernLeft = s;
kernRight = s;
lastChange = "2022-09-01 02:22:32 +0000";
layers = (
{
anchors = (
{
name = bottom;
pos = (97,54);
},
{
name = top;
pos = (125,382);
}
);
layerId = m01;
shapes = (
{
closed = 1;
nodes = (
(135,140,o),
(129,142,o),
(123,144,c),
(63,167,o),
(30,211,o),
(25,274,c),
(22,315,o),
(38,351,o),
(72,375,c),
(93,390,o),
(116,396,o),
(141,383,c),
(149,379,o),
(157,373,o),
(162,365,c),
(186,329,o),
(189,291,o),
(174,252,c),
(171,242,o),
(160,236,o),
(151,238,c),
(141,239,o),
(135,247,o),
(134,259,c),
(134,271,o),
(135,283,o),
(133,295,c),
(132,305,o),
(129,314,o),
(123,322,c),
(118,328,o),
(114,329,o),
(108,324,c),
(97,315,o),
(91,303,o),
(88,289,c),
(83,258,o),
(104,224,o),
(129,211,c),
(144,203,o),
(159,198,o),
(176,195,c),
(184,193,o),
(191,190,o),
(199,188,c),
(219,180,o),
(229,160,o),
(224,139,c),
(222,129,o),
(217,120,o),
(209,112,c),
(189,90,o),
(164,76,o),
(138,62,c),
(122,54,o),
(107,47,o),
(89,44,c),
(81,43,o),
(74,44,o),
(66,46,c),
(44,53,o),
(41,75,o),
(47,90,c),
(49,96,o),
(53,102,o),
(57,106,c),
(64,112,o),
(72,115,o),
(79,110,c),
(85,107,o),
(89,108,o),
(94,110,c),
(106,117,o),
(119,123,o),
(132,130,c),
(135,132,o),
(139,134,o),
(141,138,c)
);
}
);
width = 250;
}
);
unicode = 115;
},
{
glyphname = germandbls;
lastChange = "2022-08-31 22:34:03 +0000";
layers = (
{
layerId = m01;
shapes = (
{
closed = 1;
nodes = (
(166,333,o),
(174,330,o),
(182,326,c),
(217,310,o),
(231,280,o),
(220,243,c),
(212,215,o),
(195,193,o),
(171,177,c),
(155,166,o),
(138,156,o),
(119,151,c),
(113,149,o),
(106,149,o),
(99,152,c),
(91,155,o),
(87,161,o),
(86,170,c),
(85,179,o),
(90,185,o),
(97,189,c),
(127,205,o),
(148,228,o),
(164,256,c),
(166,259,o),
(167,262,o),
(168,265,c),
(173,276,o),
(170,283,o),
(158,287,c),
(152,289,o),
(146,289,o),
(140,291,c),
(138,291,o),
(136,291,o),
(133,292,c),
(103,298,o),
(93,320,o),
(107,347,c),
(117,366,o),
(128,383,o),
(137,402,c),
(141,412,o),
(145,422,o),
(147,433,c),
(148,443,o),
(146,450,o),
(141,452,c),
(132,454,o),
(127,449,o),
(122,443,c),
(114,433,o),
(109,421,o),
(104,409,c),
(93,380,o),
(86,349,o),
(82,318,c),
(76,271,o),
(78,224,o),
(83,178,c),
(86,151,o),
(90,125,o),
(95,98,c),
(97,87,o),
(94,79,o),
(84,74,c),
(77,71,o),
(65,74,o),
(59,81,c),
(53,88,o),
(49,97,o),
(46,105,c),
(38,129,o),
(33,154,o),
(30,179,c),
(25,215,o),
(23,252,o),
(26,289,c),
(30,340,o),
(39,391,o),
(60,439,c),
(68,456,o),
(78,471,o),
(92,484,c),
(112,502,o),
(140,506,o),
(163,494,c),
(185,483,o),
(198,458,o),
(194,431,c),
(192,412,o),
(185,394,o),
(177,377,c),
(171,364,o),
(164,350,o),
(157,336,c)
);
}
);
width = 249;
}
);
unicode = 223;
},
{
glyphname = t;
kernLeft = t;
kernRight = t;
lastChange = "2022-09-01 02:23:35 +0000";
layers = (
{
anchors = (
{
name = bottom;
pos = (82,60);
},
{
name = center;
pos = (45,400);
},
{
name = top;
pos = (45,800);
},
{
name = topright;
pos = (124,471);
}
);
layerId = m01;
shapes = (
{
closed = 1;
nodes = (
(90,125,o),
(97,132,o),
(103,141,c),
(119,163,o),
(136,186,o),
(147,211,c),
(148,214,o),
(149,216,o),
(149,219,c),
(150,229,o),
(156,234,o),
(165,236,c),
(175,237,o),
(183,233,o),
(188,225,c),
(193,219,o),
(194,212,o),
(194,204,c),
(192,180,o),
(185,157,o),
(175,136,c),
(162,110,o),
(144,88,o),
(122,71,c),
(112,63,o),
(102,57,o),
(90,54,c),
(67,49,o),
(43,59,o),
(30,79,c),
(22,92,o),
(16,107,o),
(11,122,c),
(0,155,o),
(-4,190,o),
(-9,225,c),
(-16,275,o),
(-20,326,o),
(-20,378,c),
(-20,388,o),
(-20,389,o),
(-31,387,c),
(-43,384,o),
(-55,381,o),
(-67,379,c),
(-75,377,o),
(-83,378,o),
(-91,382,c),
(-107,392,o),
(-109,412,o),
(-96,425,c),
(-90,430,o),
(-83,434,o),
(-76,436,c),
(-60,441,o),
(-45,445,o),
(-29,449,c),
(-18,451,o),
(-18,451,o),
(-17,462,c),
(-16,492,o),
(-12,522,o),
(-4,552,c),
(-1,563,o),
(2,574,o),
(8,584,c),
(13,591,o),
(18,597,o),
(25,601,c),
(34,607,o),
(44,607,o),
(53,602,c),
(62,596,o),
(63,587,o),
(62,577,c),
(60,557,o),
(53,538,o),
(51,518,c),
(49,501,o),
(47,484,o),
(45,467,c),
(45,459,o),
(45,459,o),
(54,459,c),
(71,459,o),
(87,460,o),
(104,460,c),
(119,460,o),
(132,454,o),
(142,443,c),
(147,438,o),
(150,432,o),
(151,426,c),
(153,411,o),
(138,397,o),
(126,402,c),
(124,402,o),
(122,403,o),
(119,402,c),
(100,395,o),
(79,399,o),
(59,396,c),
(56,396,o),
(53,396,o),
(50,396,c),
(44,396,o),
(42,393,o),
(42,388,c),
(43,371,o),
(43,355,o),
(44,338,c),
(46,295,o),
(50,251,o),
(57,208,c),
(60,186,o),
(64,164,o),
(70,142,c),
(72,134,o),
(76,127,o),
(79,117,c)
);
}
);
width = 219;
}
);
unicode = 116;
},
{
glyphname = u;
kernLeft = u;
kernRight = u;
lastChange = "2022-09-01 02:22:03 +0000";
layers = (
{
anchors = (
{
name = bottom;
pos = (139,0);
},
{
name = ogonek;
pos = (220,89);
},
{
name = top;
pos = (140,365);
},
{
name = topright;
pos = (258,800);
}
);
layerId = m01;
shapes = (
{
closed = 1;
nodes = (
(184,140,o),
(180,135,o),
(176,129,c),
(170,120,o),
(162,111,o),
(153,104,c),
(124,83,o),
(93,91,o),
(74,107,c),
(62,117,o),
(53,129,o),
(48,143,c),
(23,199,o),
(20,258,o),
(33,317,c),
(36,330,o),
(41,341,o),
(51,349,c),
(59,356,o),
(68,360,o),
(78,355,c),
(88,351,o),
(92,342,o),
(92,332,c),
(92,324,o),
(92,316,o),
(91,309,c),
(87,281,o),
(88,253,o),
(91,225,c),
(93,205,o),
(96,186,o),
(105,168,c),
(106,167,o),
(107,165,o),
(108,164,c),
(113,154,o),
(116,153,o),
(126,158,c),
(136,164,o),
(144,172,o),
(150,182,c),
(163,199,o),
(169,219,o),
(174,239,c),
(182,271,o),
(184,304,o),
(183,337,c),
(183,350,o),
(188,361,o),
(199,369,c),
(217,381,o),
(244,374,o),
(250,347,c),
(253,332,o),
(253,318,o),
(252,303,c),
(251,257,o),
(249,211,o),
(252,165,c),
(254,142,o),
(252,118,o),
(251,95,c),
(250,85,o),
(245,78,o),
(236,74,c),
(227,71,o),
(217,75,o),
(211,82,c),
(206,88,o),
(203,94,o),
(201,100,c),
(196,115,o),
(192,130,o),
(188,146,c)
);
}
);
width = 278;
}
);
unicode = 117;
},
{
glyphname = v;
lastChange = "2022-09-01 02:20:40 +0000";
layers = (
{
anchors = (
{
name = bottom;
pos = (119,0);
},
{
name = top;
pos = (119,800);
}
);
layerId = m01;
shapes = (
{
closed = 1;
nodes = (
(110,192,o),
(112,201,o),
(114,210,c),
(123,243,o),
(131,277,o),
(140,311,c),
(142,320,o),
(145,329,o),
(149,337,c),
(155,353,o),
(168,364,o),
(183,372,c),
(192,376,o),
(201,375,o),
(207,369,c),
(213,363,o),
(213,355,o),
(208,348,c),
(204,341,o),
(204,333,o),
(203,326,c),
(197,295,o),
(187,265,o),
(181,234,c),
(175,204,o),
(169,175,o),
(160,145,c),
(156,131,o),
(152,118,o),
(146,104,c),
(143,98,o),
(140,92,o),
(135,87,c),
(118,67,o),
(92,67,o),
(75,87,c),
(66,97,o),
(61,109,o),
(57,122,c),
(42,164,o),
(35,208,o),
(30,252,c),
(27,271,o),
(26,290,o),
(25,309,c),
(25,321,o),
(26,333,o),
(30,345,c),
(31,350,o),
(33,354,o),
(36,358,c),
(48,373,o),
(66,372,o),
(75,355,c),
(80,345,o),
(82,334,o),
(83,323,c),
(88,281,o),
(93,239,o),
(101,197,c),
(102,192,o),
(103,188,o),
(105,181,c)
);
}
);
width = 222;
}
);
unicode = 118;
},
{
glyphname = w;
kernLeft = w;
kernRight = w;
lastChange = "2022-09-01 02:20:44 +0000";
layers = (
{
anchors = (
{
name = bottom;
pos = (192,0);
},
{
name = top;
pos = (182,344);
}
);
layerId = m01;
shapes = (
{
closed = 1;
nodes = (
(116,164,o),
(121,176,o),
(127,187,c),
(136,206,o),
(141,225,o),
(147,245,c),
(155,267,o),
(160,290,o),
(159,314,c),
(159,329,o),
(169,340,o),
(182,344,c),
(195,347,o),
(209,341,o),
(217,329,c),
(220,324,o),
(223,317,o),
(225,311,c),
(228,298,o),
(232,284,o),
(235,271,c),
(244,242,o),
(253,213,o),
(268,187,c),
(271,182,o),
(273,177,o),
(279,174,c),
(282,177,o),
(283,181,o),
(284,185,c),
(291,210,o),
(293,235,o),
(294,261,c),
(294,280,o),
(294,299,o),
(293,317,c),
(293,326,o),
(292,334,o),
(291,343,c),
(288,354,o),
(291,366,o),
(305,372,c),
(315,377,o),
(325,375,o),
(333,365,c),
(338,360,o),
(342,354,o),
(345,347,c),
(358,316,o),
(359,284,o),
(357,252,c),
(355,230,o),
(353,209,o),
(349,188,c),
(345,170,o),
(340,153,o),
(332,136,c),
(328,130,o),
(325,123,o),
(320,118,c),
(302,99,o),
(282,96,o),
(258,108,c),
(248,113,o),
(240,122,o),
(232,130,c),
(217,148,o),
(206,168,o),
(197,190,c),
(195,193,o),
(194,198,o),
(190,202,c),
(186,190,o),
(182,179,o),
(178,168,c),
(172,154,o),
(166,141,o),
(159,129,c),
(152,119,o),
(145,110,o),
(135,102,c),
(112,82,o),
(81,89,o),
(65,106,c),
(54,118,o),
(46,131,o),
(41,145,c),
(27,185,o),
(22,227,o),
(27,269,c),
(29,285,o),
(33,302,o),
(39,317,c),
(42,325,o),
(46,333,o),
(53,338,c),
(60,345,o),
(68,347,o),
(77,343,c),
(86,339,o),
(90,331,o),
(89,322,c),
(89,305,o),
(88,288,o),
(88,271,c),
(87,246,o),
(88,221,o),
(92,196,c),
(94,182,o),
(98,169,o),
(106,155,c)
);
}
);
width = 383;
}
);
unicode = 119;
},
{
glyphname = x;
lastChange = "2022-09-01 02:20:46 +0000";
layers = (
{
anchors = (
{
name = bottom;
pos = (130,0);
},
{
name = top;
pos = (130,800);
}
);
layerId = m01;
shapes = (
{
closed = 1;
nodes = (
(100,119,o),
(94,104,o),
(84,92,c),
(79,86,o),
(74,79,o),
(67,73,c),
(58,66,o),
(47,64,o),
(37,69,c),
(28,74,o),
(23,85,o),
(25,97,c),
(26,103,o),
(29,110,o),
(32,116,c),
(43,138,o),
(55,160,o),
(67,181,c),
(71,188,o),
(72,193,o),
(68,201,c),
(57,222,o),
(50,246,o),
(44,269,c),
(40,280,o),
(37,291,o),
(35,302,c),
(31,320,o),
(40,332,o),
(57,337,c),
(66,339,o),
(78,334,o),
(85,324,c),
(89,318,o),
(91,312,o),
(93,305,c),
(98,290,o),
(103,275,o),
(110,260,c),
(115,260,o),
(115,263,o),
(116,266,c),
(128,286,o),
(140,307,o),
(152,327,c),
(162,344,o),
(175,357,o),
(191,367,c),
(199,372,o),
(206,375,o),
(215,374,c),
(231,373,o),
(240,357,o),
(233,344,c),
(213,310,o),
(194,276,o),
(175,242,c),
(166,227,o),
(158,212,o),
(149,197,c),
(146,192,o),
(145,189,o),
(148,183,c),
(160,161,o),
(174,140,o),
(189,120,c),
(191,116,o),
(194,113,o),
(199,110,c),
(208,104,o),
(211,96,o),
(208,87,c),
(206,79,o),
(197,73,o),
(188,72,c),
(179,71,o),
(172,75,o),
(165,80,c),
(151,90,o),
(139,102,o),
(127,115,c),
(122,121,o),
(117,126,o),
(112,133,c)
);
}
);
width = 240;
}
);
unicode = 120;
},
{
glyphname = y;
kernLeft = y;
kernRight = y;
lastChange = "2022-09-01 02:22:45 +0000";
layers = (
{
anchors = (
{
name = bottom;
pos = (127,0);
},
{
name = top;
pos = (125,357);
}
);
layerId = m01;
shapes = (
{
closed = 1;
nodes = (
(162,173,o),
(156,162,o),
(148,152,c),
(138,141,o),
(127,130,o),
(113,124,c),
(97,118,o),
(82,119,o),
(68,129,c),
(56,137,o),
(49,149,o),
(43,162,c),
(31,187,o),
(26,215,o),
(25,242,c),
(25,263,o),
(26,284,o),
(32,304,c),
(34,312,o),
(37,318,o),
(42,324,c),
(47,329,o),
(54,332,o),
(62,330,c),
(70,328,o),
(73,322,o),
(74,314,c),
(76,302,o),
(75,290,o),
(76,278,c),
(76,246,o),
(78,215,o),
(86,184,c),
(88,177,o),
(89,167,o),
(97,165,c),
(105,163,o),
(110,171,o),
(115,176,c),
(128,188,o),
(135,203,o),
(142,219,c),
(153,240,o),
(159,262,o),
(165,285,c),
(167,293,o),
(166,301,o),
(166,309,c),
(166,321,o),
(167,333,o),
(168,345,c),
(169,352,o),
(171,358,o),
(174,363,c),
(185,378,o),
(207,377,o),
(215,360,c),
(221,349,o),
(222,337,o),
(223,324,c),
(227,292,o),
(228,259,o),
(228,226,c),
(228,176,o),
(228,125,o),
(227,75,c),
(226,46,o),
(224,17,o),
(217,-11,c),
(212,-32,o),
(203,-50,o),
(186,-65,c),
(174,-75,o),
(161,-79,o),
(146,-74,c),
(130,-69,o),
(122,-56,o),
(119,-41,c),
(115,-25,o),
(114,-8,o),
(116,8,c),
(118,15,o),
(120,22,o),
(125,27,c),
(128,31,o),
(133,34,o),
(138,32,c),
(144,30,o),
(147,27,o),
(148,21,c),
(148,18,o),
(149,14,o),
(149,11,c),
(149,2,o),
(152,-7,o),
(156,-14,c),
(161,-13,o),
(162,-9,o),
(163,-6,c),
(167,8,o),
(170,22,o),
(170,36,c),
(171,55,o),
(174,74,o),
(174,93,c),
(173,123,o),
(174,154,o),
(170,184,c)
);
}
);
width = 253;
}
);
unicode = 121;
},
{
glyphname = z;
kernLeft = z;
kernRight = z;
lastChange = "2022-09-01 02:22:49 +0000";
layers = (
{
anchors = (
{
name = bottom;
pos = (126,0);
},
{
name = center;
pos = (126,400);
},
{
name = top;
pos = (141,340);
}
);
layerId = m01;
shapes = (
{
closed = 1;
nodes = (
(106,160,o),
(119,160,o),
(133,159,c),
(156,159,o),
(178,155,o),
(200,146,c),
(206,143,o),
(211,139,o),
(214,133,c),
(219,123,o),
(213,114,o),
(203,115,c),
(198,115,o),
(194,116,o),
(190,116,c),
(174,118,o),
(158,115,o),
(143,112,c),
(119,107,o),
(95,103,o),
(71,105,c),
(59,106,o),
(49,109,o),
(40,116,c),
(26,126,o),
(22,140,o),
(26,156,c),
(28,165,o),
(32,172,o),
(37,179,c),
(60,208,o),
(88,232,o),
(115,256,c),
(130,268,o),
(145,281,o),
(158,295,c),
(160,296,o),
(162,298,o),
(162,301,c),
(142,301,o),
(123,297,o),
(104,293,c),
(92,291,o),
(80,288,o),
(68,286,c),
(64,285,o),
(59,284,o),
(55,285,c),
(48,286,o),
(41,289,o),
(38,297,c),
(35,305,o),
(37,312,o),
(42,318,c),
(48,325,o),
(55,329,o),
(62,332,c),
(94,345,o),
(127,354,o),
(161,354,c),
(174,354,o),
(187,352,o),
(199,348,c),
(224,339,o),
(233,316,o),
(221,293,c),
(216,283,o),
(210,275,o),
(202,267,c),
(187,252,o),
(170,239,o),
(154,224,c),
(144,215,o),
(132,206,o),
(122,197,c),
(111,186,o),
(100,175,o),
(89,160,c)
);
}
);
width = 251;
}
);
unicode = 122;
},
{
glyphname = zero;
lastChange = "2022-09-01 02:26:49 +0000";
layers = (
{
layerId = m01;
shapes = (
{
closed = 1;
nodes = (
(85,229,o),
(89,201,o),
(99,174,c),
(102,166,o),
(107,158,o),
(112,151,c),
(119,142,o),
(127,140,o),
(137,146,c),
(143,149,o),
(148,154,o),
(152,159,c),
(168,174,o),
(176,193,o),
(185,212,c),
(193,229,o),
(197,246,o),
(198,264,c),
(201,297,o),
(196,329,o),
(184,360,c),
(171,391,o),
(151,403,o),
(119,401,c),
(113,401,o),
(109,398,o),
(106,391,c),
(92,348,o),
(84,304,o),
(84,261,c)
);
},
{
closed = 1;
nodes = (
(248,226,o),
(228,178,o),
(195,135,c),
(184,121,o),
(172,109,o),
(157,100,c),
(129,82,o),
(95,86,o),
(71,109,c),
(61,119,o),
(53,131,o),
(46,144,c),
(35,168,o),
(29,192,o),
(27,218,c),
(20,275,o),
(28,331,o),
(50,384,c),
(57,403,o),
(67,420,o),
(82,434,c),
(93,444,o),
(106,451,o),
(122,444,c),
(126,442,o),
(130,443,o),
(134,443,c),
(176,444,o),
(207,425,o),
(225,388,c),
(237,365,o),
(243,340,o),
(245,314,c),
(246,304,o),
(248,293,o),
(248,283,c)
);
}
);
width = 273;
}
);
unicode = 48;
},
{
glyphname = one;
lastChange = "2022-09-01 02:26:51 +0000";
layers = (
{
layerId = m01;
shapes = (
{
closed = 1;
nodes = (
(70,223,o),
(73,186,o),
(73,149,c),
(73,135,o),
(73,120,o),
(76,105,c),
(78,98,o),
(75,92,o),
(70,89,c),
(65,87,o),
(59,88,o),
(54,94,c),
(51,96,o),
(50,99,o),
(49,102,c),
(45,112,o),
(43,123,o),
(42,133,c),
(38,166,o),
(35,198,o),
(33,231,c),
(32,260,o),
(29,289,o),
(27,318,c),
(25,352,o),
(23,386,o),
(29,420,c),
(30,427,o),
(33,433,o),
(36,438,c),
(40,444,o),
(46,448,o),
(53,447,c),
(61,446,o),
(66,441,o),
(68,434,c),
(72,422,o),
(73,410,o),
(73,398,c),
(74,365,o),
(73,333,o),
(72,300,c),
(72,287,o),
(72,273,o),
(72,260,c)
);
}
);
width = 102;
}
);
unicode = 49;
},
{
glyphname = two;
lastChange = "2022-09-01 02:24:51 +0000";
layers = (
{
layerId = m01;
shapes = (
{
closed = 1;
nodes = (
(136,157,o),
(147,160,o),
(159,159,c),
(184,159,o),
(206,149,o),
(228,138,c),
(237,133,o),
(241,125,o),
(239,118,c),
(237,110,o),
(230,104,o),
(220,103,c),
(208,102,o),
(195,104,o),
(183,105,c),
(148,106,o),
(113,100,o),
(79,92,c),
(73,90,o),
(67,89,o),
(60,89,c),
(49,89,o),
(40,93,o),
(35,103,c),
(30,114,o),
(32,124,o),
(40,132,c),
(48,142,o),
(57,151,o),
(66,160,c),
(98,194,o),
(124,232,o),
(144,274,c),
(155,296,o),
(164,318,o),
(167,342,c),
(168,355,o),
(169,367,o),
(164,379,c),
(159,390,o),
(153,394,o),
(141,392,c),
(134,391,o),
(128,388,o),
(122,384,c),
(99,369,o),
(78,349,o),
(64,324,c),
(62,320,o),
(61,316,o),
(59,311,c),
(55,300,o),
(43,296,o),
(34,305,c),
(26,312,o),
(24,321,o),
(25,331,c),
(27,348,o),
(35,362,o),
(44,376,c),
(59,400,o),
(78,419,o),
(102,433,c),
(113,439,o),
(125,444,o),
(138,446,c),
(177,452,o),
(205,428,o),
(216,400,c),
(223,381,o),
(223,362,o),
(221,343,c),
(215,310,o),
(203,280,o),
(187,252,c),
(171,223,o),
(152,195,o),
(131,169,c),
(128,166,o),
(125,163,o),
(123,157,c)
);
}
);
width = 265;
}
);
unicode = 50;
},
{
glyphname = three;
lastChange = "2022-09-01 02:25:15 +0000";
layers = (
{
layerId = m01;
shapes = (
{
closed = 1;
nodes = (
(165,327,o),
(172,325,o),
(179,323,c),
(207,314,o),
(227,295,o),
(239,268,c),
(250,244,o),
(253,217,o),
(246,190,c),
(236,148,o),
(210,121,o),
(170,106,c),
(149,98,o),
(127,92,o),
(104,89,c),
(94,88,o),
(85,89,o),
(76,91,c),
(65,94,o),
(58,102,o),
(55,114,c),
(53,121,o),
(55,128,o),
(61,133,c),
(67,137,o),
(73,137,o),
(79,133,c),
(82,131,o),
(86,131,o),
(90,132,c),
(116,139,o),
(141,149,o),
(163,165,c),
(183,180,o),
(196,199,o),
(198,224,c),
(201,252,o),
(186,276,o),
(154,282,c),
(142,284,o),
(129,282,o),
(116,283,c),
(90,286,o),
(78,308,o),
(93,330,c),
(100,340,o),
(109,349,o),
(117,359,c),
(127,369,o),
(136,380,o),
(144,392,c),
(145,393,o),
(147,395,o),
(146,397,c),
(144,399,o),
(142,398,o),
(140,398,c),
(114,391,o),
(89,382,o),
(68,364,c),
(64,360,o),
(60,355,o),
(58,349,c),
(55,338,o),
(47,335,o),
(37,341,c),
(26,348,o),
(22,363,o),
(28,378,c),
(33,392,o),
(44,403,o),
(55,411,c),
(82,431,o),
(113,442,o),
(145,446,c),
(154,448,o),
(161,446,o),
(169,444,c),
(191,438,o),
(203,419,o),
(198,396,c),
(195,380,o),
(186,366,o),
(176,353,c),
(170,346,o),
(163,338,o),
(157,330,c)
);
}
);
width = 275;
}
);
unicode = 51;
},
{
glyphname = four;
lastChange = "2022-09-01 02:25:34 +0000";
layers = (
{
layerId = m01;
shapes = (
{
closed = 1;
nodes = (
(98,266,o),
(115,270,o),
(132,274,c),
(137,274,o),
(142,276,o),
(148,276,c),
(154,276,o),
(155,280,o),
(155,285,c),
(154,314,o),
(156,344,o),
(158,373,c),
(160,391,o),
(162,410,o),
(168,427,c),
(170,433,o),
(172,438,o),
(175,443,c),
(180,451,o),
(188,455,o),
(198,453,c),
(205,452,o),
(212,445,o),
(213,435,c),
(215,421,o),
(215,408,o),
(215,395,c),
(213,362,o),
(211,329,o),
(208,296,c),
(206,270,o),
(203,244,o),
(201,217,c),
(199,200,o),
(198,182,o),
(197,164,c),
(195,144,o),
(193,124,o),
(193,104,c),
(193,92,o),
(181,85,o),
(170,91,c),
(164,95,o),
(161,101,o),
(159,107,c),
(156,117,o),
(157,127,o),
(156,137,c),
(155,165,o),
(155,193,o),
(155,221,c),
(155,224,o),
(156,227,o),
(154,230,c),
(152,232,o),
(150,230,o),
(148,229,c),
(122,219,o),
(94,214,o),
(67,204,c),
(61,202,o),
(53,201,o),
(46,203,c),
(31,207,o),
(23,220,o),
(26,236,c),
(30,249,o),
(34,261,o),
(38,274,c),
(46,304,o),
(55,334,o),
(64,364,c),
(69,383,o),
(75,402,o),
(82,421,c),
(83,426,o),
(86,432,o),
(89,437,c),
(94,445,o),
(101,448,o),
(108,446,c),
(114,444,o),
(118,438,o),
(118,429,c),
(119,417,o),
(117,405,o),
(115,393,c),
(107,350,o),
(94,309,o),
(81,267,c),
(80,266,o),
(80,264,o),
(79,261,c)
);
}
);
width = 240;
}
);
unicode = 52;
},
{
glyphname = five;
lastChange = "2022-09-01 02:25:52 +0000";
layers = (
{
layerId = m01;
shapes = (
{
closed = 1;
nodes = (
(86,318,o),
(92,322,o),
(98,325,c),
(154,345,o),
(206,292,o),
(199,243,c),
(195,219,o),
(187,198,o),
(173,179,c),
(151,150,o),
(125,126,o),
(97,104,c),
(92,101,o),
(88,98,o),
(83,96,c),
(67,89,o),
(50,98,o),
(49,115,c),
(48,124,o),
(52,129,o),
(60,132,c),
(63,133,o),
(66,134,o),
(69,137,c),
(95,166,o),
(120,197,o),
(133,235,c),
(135,241,o),
(136,247,o),
(137,254,c),
(138,262,o),
(136,270,o),
(128,275,c),
(122,280,o),
(115,278,o),
(108,275,c),
(98,270,o),
(90,263,o),
(82,256,c),
(76,251,o),
(70,246,o),
(63,244,c),
(47,240,o),
(32,249,o),
(27,266,c),
(24,277,o),
(25,288,o),
(25,300,c),
(25,332,o),
(27,365,o),
(33,397,c),
(34,403,o),
(35,409,o),
(38,415,c),
(42,423,o),
(48,429,o),
(58,428,c),
(63,428,o),
(66,431,o),
(70,432,c),
(110,444,o),
(150,445,o),
(190,438,c),
(194,437,o),
(198,435,o),
(201,433,c),
(205,431,o),
(208,427,o),
(207,422,c),
(206,416,o),
(202,413,o),
(196,412,c),
(159,405,o),
(123,395,o),
(85,390,c),
(73,388,o),
(73,388,o),
(74,376,c),
(75,357,o),
(76,337,o),
(77,317,c)
);
}
);
width = 232;
}
);
unicode = 53;
},
{
glyphname = six;
lastChange = "2022-09-01 02:26:05 +0000";
layers = (
{
layerId = m01;
shapes = (
{
closed = 1;
nodes = (
(166,216,o),
(165,217,o),
(164,216,c),
(160,215,o),
(155,213,o),
(151,211,c),
(127,199,o),
(106,182,o),
(93,158,c),
(89,151,o),
(90,145,o),
(95,140,c),
(100,134,o),
(105,136,o),
(111,139,c),
(114,140,o),
(116,142,o),
(119,144,c),
(132,152,o),
(141,163,o),
(149,174,c),
(159,186,o),
(167,199,o),
(169,216,c)
);
},
{
closed = 1;
nodes = (
(94,228,o),
(107,241,o),
(122,252,c),
(133,261,o),
(145,268,o),
(160,270,c),
(193,275,o),
(218,252,o),
(215,217,c),
(214,202,o),
(209,188,o),
(202,175,c),
(185,144,o),
(163,117,o),
(132,100,c),
(110,87,o),
(88,84,o),
(66,99,c),
(56,106,o),
(50,116,o),
(44,126,c),
(32,147,o),
(28,170,o),
(26,194,c),
(24,229,o),
(28,263,o),
(34,297,c),
(40,327,o),
(48,357,o),
(61,385,c),
(70,403,o),
(79,420,o),
(95,434,c),
(101,439,o),
(107,444,o),
(115,446,c),
(124,448,o),
(132,446,o),
(139,439,c),
(146,431,o),
(146,425,o),
(140,418,c),
(129,406,o),
(123,393,o),
(117,379,c),
(100,335,o),
(86,290,o),
(82,243,c),
(81,234,o),
(81,224,o),
(80,215,c)
);
}
);
width = 240;
}
);
unicode = 54;
},
{
glyphname = seven;
lastChange = "2022-09-01 02:26:23 +0000";
layers = (
{
layerId = m01;
shapes = (
{
closed = 1;
nodes = (
(137,397,o),
(114,393,o),
(91,387,c),
(79,383,o),
(67,381,o),
(54,381,c),
(49,380,o),
(43,380,o),
(39,383,c),
(30,387,o),
(24,396,o),
(25,406,c),
(26,415,o),
(33,421,o),
(41,423,c),
(52,426,o),
(64,429,o),
(76,432,c),
(108,439,o),
(141,443,o),
(173,446,c),
(182,447,o),
(190,447,o),
(199,444,c),
(212,440,o),
(220,429,o),
(220,415,c),
(220,408,o),
(219,401,o),
(216,394,c),
(211,382,o),
(205,370,o),
(198,359,c),
(178,324,o),
(158,290,o),
(139,255,c),
(122,224,o),
(106,193,o),
(93,160,c),
(89,148,o),
(84,137,o),
(80,125,c),
(78,117,o),
(75,110,o),
(77,102,c),
(78,97,o),
(75,93,o),
(70,90,c),
(66,88,o),
(62,89,o),
(58,92,c),
(51,97,o),
(49,105,o),
(48,113,c),
(48,126,o),
(51,139,o),
(55,151,c),
(64,185,o),
(76,219,o),
(89,252,c),
(107,301,o),
(132,347,o),
(158,392,c),
(159,394,o),
(160,396,o),
(161,399,c),
(161,399,o),
(161,400,o),
(162,402,c)
);
}
);
width = 245;
}
);
unicode = 55;
},
{
glyphname = eight;
lastChange = "2022-09-01 02:26:39 +0000";
layers = (
{
layerId = m01;
shapes = (
{
closed = 1;
nodes = (
(127,373,o),
(126,373,o),
(125,372,c),
(111,356,o),
(97,340,o),
(87,320,c),
(84,314,o),
(81,308,o),
(79,301,c),
(77,288,o),
(80,280,o),
(92,273,c),
(94,271,o),
(98,269,o),
(101,268,c),
(109,265,o),
(109,265,o),
(111,274,c),
(115,300,o),
(119,327,o),
(125,353,c),
(127,360,o),
(129,366,o),
(129,374,c)
);
},
{
closed = 1;
nodes = (
(136,196,o),
(135,195,o),
(134,194,c),
(129,186,o),
(122,185,o),
(114,187,c),
(106,190,o),
(103,197,o),
(102,204,c),
(101,208,o),
(102,212,o),
(102,216,c),
(102,218,o),
(102,221,o),
(99,222,c),
(97,222,o),
(95,220,o),
(94,218,c),
(83,195,o),
(74,172,o),
(73,146,c),
(73,132,o),
(76,131,o),
(88,137,c),
(89,138,o),
(91,138,o),
(92,139,c),
(110,150,o),
(124,165,o),
(134,183,c),
(136,187,o),
(139,191,o),
(137,197,c)
);
},
{
closed = 1;
nodes = (
(24,176,o),
(38,201,o),
(54,225,c),
(56,230,o),
(62,233,o),
(62,238,c),
(61,242,o),
(56,244,o),
(53,248,c),
(37,265,o),
(34,286,o),
(38,308,c),
(40,322,o),
(46,334,o),
(53,345,c),
(72,378,o),
(97,406,o),
(123,433,c),
(128,438,o),
(134,442,o),
(141,445,c),
(158,452,o),
(176,446,o),
(185,429,c),
(190,419,o),
(191,409,o),
(190,399,c),
(188,371,o),
(182,345,o),
(174,318,c),
(168,298,o),
(161,278,o),
(154,258,c),
(152,252,o),
(152,248,o),
(158,244,c),
(178,228,o),
(183,208,o),
(176,184,c),
(171,167,o),
(161,154,o),
(150,140,c),
(137,125,o),
(123,111,o),
(106,101,c),
(96,95,o),
(85,90,o),
(73,89,c),
(51,87,o),
(31,103,o),
(26,125,c),
(25,132,o),
(25,138,o),
(25,145,c)
);
}
);
width = 215;
}
);
unicode = 56;
},
{
glyphname = nine;
lastChange = "2022-09-01 02:26:40 +0000";
layers = (
{
layerId = m01;
shapes = (
{
closed = 1;
nodes = (
(98,280,o),
(105,286,o),
(115,298,c),
(132,320,o),
(141,346,o),
(146,374,c),
(148,383,o),
(145,386,o),
(136,383,c),
(132,383,o),
(129,381,o),
(126,378,c),
(103,362,o),
(91,338,o),
(84,311,c),
(82,299,o),
(81,287,o),
(86,275,c)
);
},
{
closed = 1;
nodes = (
(168,303,o),
(164,295,o),
(159,286,c),
(148,264,o),
(134,244,o),
(114,230,c),
(95,217,o),
(76,213,o),
(55,224,c),
(46,229,o),
(40,237,o),
(35,246,c),
(29,257,o),
(26,270,o),
(25,283,c),
(23,334,o),
(41,376,o),
(76,412,c),
(91,427,o),
(110,436,o),
(132,436,c),
(139,436,o),
(145,433,o),
(152,432,c),
(159,431,o),
(161,439,o),
(168,441,c),
(180,444,o),
(193,441,o),
(201,431,c),
(206,425,o),
(208,418,o),
(211,411,c),
(231,356,o),
(237,298,o),
(234,239,c),
(233,214,o),
(229,189,o),
(222,165,c),
(214,138,o),
(200,115,o),
(176,100,c),
(151,83,o),
(122,84,o),
(107,115,c),
(104,123,o),
(103,130,o),
(109,137,c),
(114,143,o),
(122,145,o),
(131,140,c),
(138,136,o),
(142,139,o),
(146,144,c),
(159,161,o),
(167,179,o),
(170,200,c),
(173,220,o),
(177,239,o),
(177,260,c),
(177,277,o),
(177,294,o),
(172,311,c)
);
}
);
width = 260;
}
);
unicode = 57;
},
{
glyphname = period;
lastChange = "2022-08-31 05:12:22 +0000";
layers = (
{
layerId = m01;
shapes = (
{
closed = 1;
nodes = (
(37,106,o),
(25,121,o),
(25,133,c),
(24,147,o),
(35,158,o),
(49,160,c),
(60,161,o),
(73,151,o),
(75,139,c),
(75,136,o),
(75,132,o),
(75,128,c),
(73,113,o),
(67,108,o),
(52,108,c)
);
}
);
width = 100;
}
);
unicode = 46;
},
{
glyphname = comma;
lastChange = "2022-08-31 05:12:22 +0000";
layers = (
{
layerId = m01;
shapes = (
{
closed = 1;
nodes = (
(82,126,o),
(82,122,o),
(80,117,c),
(73,99,o),
(64,81,o),
(56,63,c),
(53,57,o),
(49,53,o),
(43,50,c),
(38,48,o),
(33,47,o),
(29,51,c),
(24,54,o),
(24,59,o),
(26,65,c),
(32,88,o),
(37,111,o),
(43,134,c),
(44,137,o),
(45,140,o),
(46,144,c),
(49,151,o),
(54,156,o),
(63,156,c),
(71,156,o),
(77,151,o),
(80,144,c),
(82,140,o),
(82,135,o),
(82,132,c)
);
}
);
width = 107;
}
);
unicode = 44;
},
{
glyphname = colon;
lastChange = "2022-08-31 05:12:22 +0000";
layers = (
{
layerId = m01;
shapes = (
{
closed = 1;
nodes = (
(26,284,o),
(38,298,o),
(54,300,c),
(61,301,o),
(67,299,o),
(72,293,c),
(79,284,o),
(83,273,o),
(82,261,c),
(80,246,o),
(67,235,o),
(53,236,c),
(37,237,o),
(25,250,o),
(26,266,c)
);
},
{
closed = 1;
nodes = (
(36,143,o),
(24,155,o),
(25,171,c),
(25,186,o),
(38,199,o),
(52,199,c),
(67,199,o),
(80,185,o),
(80,169,c),
(79,154,o),
(67,142,o),
(53,142,c)
);
}
);
width = 107;
}
);
unicode = 58;
},
{
glyphname = semicolon;
lastChange = "2022-08-31 05:12:22 +0000";
layers = (
{
layerId = m01;
shapes = (
{
closed = 1;
nodes = (
(86,141,o),
(85,138,o),
(84,136,c),
(77,114,o),
(69,93,o),
(58,73,c),
(55,68,o),
(52,62,o),
(47,58,c),
(41,54,o),
(33,54,o),
(29,57,c),
(24,61,o),
(24,66,o),
(28,74,c),
(37,93,o),
(42,114,o),
(46,135,c),
(46,140,o),
(46,145,o),
(47,150,c),
(49,160,o),
(55,167,o),
(63,168,c),
(71,169,o),
(79,164,o),
(83,156,c),
(85,153,o),
(87,149,o),
(86,142,c)
);
},
{
closed = 1;
nodes = (
(110,271,l),
(110,268,o),
(110,265,o),
(110,262,c),
(109,249,o),
(99,239,o),
(86,238,c),
(73,236,o),
(62,244,o),
(58,257,c),
(54,269,o),
(60,283,o),
(72,288,c),
(78,291,o),
(85,293,o),
(92,294,c),
(102,296,o),
(109,290,o),
(110,280,c),
(110,277,o),
(110,274,o),
(110,271,c)
);
}
);
width = 135;
}
);
unicode = 59;
},
{
glyphname = exclam;
lastChange = "2022-08-31 05:12:22 +0000";
layers = (
{
layerId = m01;
shapes = (
{
closed = 1;
nodes = (
(37,348,o),
(37,385,o),
(37,421,c),
(38,462,o),
(38,503,o),
(40,544,c),
(41,573,o),
(44,603,o),
(47,632,c),
(48,640,o),
(50,648,o),
(54,655,c),
(59,666,o),
(69,672,o),
(79,671,c),
(92,670,o),
(99,662,o),
(103,651,c),
(107,639,o),
(106,626,o),
(105,614,c),
(103,592,o),
(104,570,o),
(103,549,c),
(102,514,o),
(97,481,o),
(94,447,c),
(93,430,o),
(93,413,o),
(91,397,c),
(87,371,o),
(87,344,o),
(84,318,c),
(82,303,o),
(82,288,o),
(80,272,c),
(77,243,o),
(75,213,o),
(72,183,c),
(72,177,o),
(70,171,o),
(67,165,c),
(64,158,o),
(59,155,o),
(52,156,c),
(46,156,o),
(41,160,o),
(39,167,c),
(36,178,o),
(36,189,o),
(36,200,c),
(36,237,o),
(35,274,o),
(37,324,c)
);
},
{
closed = 1;
nodes = (
(72,51,o),
(72,46,o),
(70,41,c),
(65,30,o),
(55,24,o),
(44,25,c),
(34,27,o),
(25,37,o),
(25,48,c),
(25,61,o),
(30,72,o),
(41,79,c),
(54,88,o),
(70,81,o),
(72,66,c),
(73,63,o),
(72,60,o),
(73,57,c)
);
}
);
width = 131;
}
);
unicode = 33;
},
{
glyphname = question;
lastChange = "2022-08-31 05:12:22 +0000";
layers = (
{
layerId = m01;
shapes = (
{
closed = 1;
nodes = (
(280,550,o),
(277,534,o),
(272,519,c),
(258,472,o),
(238,428,o),
(212,386,c),
(194,357,o),
(175,328,o),
(158,298,c),
(146,277,o),
(134,257,o),
(122,236,c),
(108,214,o),
(96,191,o),
(85,168,c),
(82,161,o),
(79,155,o),
(74,150,c),
(70,145,o),
(65,142,o),
(59,144,c),
(52,146,o),
(48,152,o),
(49,160,c),
(50,169,o),
(52,178,o),
(55,187,c),
(64,213,o),
(75,239,o),
(87,264,c),
(108,308,o),
(130,351,o),
(151,395,c),
(168,432,o),
(187,468,o),
(202,505,c),
(207,519,o),
(211,534,o),
(215,548,c),
(217,556,o),
(217,565,o),
(217,573,c),
(216,588,o),
(208,595,o),
(193,592,c),
(184,591,o),
(176,586,o),
(168,582,c),
(144,566,o),
(125,545,o),
(108,522,c),
(103,515,o),
(99,508,o),
(102,499,c),
(104,492,o),
(99,487,o),
(93,484,c),
(85,480,o),
(77,480,o),
(70,485,c),
(60,492,o),
(56,502,o),
(55,514,c),
(54,527,o),
(57,540,o),
(63,552,c),
(81,590,o),
(110,617,o),
(146,638,c),
(161,648,o),
(177,652,o),
(194,654,c),
(237,657,o),
(271,630,o),
(278,588,c),
(279,581,o),
(281,574,o),
(280,566,c)
);
},
{
closed = 1;
nodes = (
(52,65,o),
(53,64,o),
(55,64,c),
(72,62,o),
(78,55,o),
(75,41,c),
(72,23,o),
(58,12,o),
(43,16,c),
(30,19,o),
(23,31,o),
(25,44,c),
(26,56,o),
(38,66,o),
(51,65,c)
);
}
);
width = 305;
}
);
unicode = 63;
},
{
glyphname = bullet;
lastChange = "2022-08-31 05:21:16 +0000";
layers = (
{
layerId = m01;
shapes = (
{
closed = 1;
nodes = (
(87,294,o),
(97,276,o),
(96,260,c),
(95,237,o),
(75,223,o),
(57,224,c),
(38,226,o),
(24,244,o),
(25,265,c),
(26,280,o),
(41,295,o),
(54,295,c)
);
}
);
width = 121;
}
);
unicode = 8226;
},
{
glyphname = asterisk;
lastChange = "2022-08-31 05:12:22 +0000";
layers = (
{
layerId = m01;
shapes = (
{
closed = 1;
nodes = (
(106,464,o),
(107,476,o),
(107,488,c),
(108,496,o),
(108,504,o),
(110,512,c),
(111,515,o),
(112,518,o),
(113,520,c),
(117,528,o),
(123,531,o),
(130,530,c),
(138,529,o),
(143,524,o),
(143,515,c),
(144,506,o),
(143,497,o),
(142,488,c),
(141,481,o),
(140,474,o),
(141,465,c),
(154,477,o),
(165,487,o),
(175,499,c),
(182,507,o),
(189,510,o),
(194,507,c),
(201,503,o),
(203,495,o),
(200,485,c),
(198,479,o),
(195,473,o),
(191,467,c),
(177,450,o),
(163,433,o),
(148,416,c),
(143,409,o),
(143,409,o),
(149,403,c),
(155,398,o),
(162,393,o),
(167,387,c),
(173,379,o),
(174,372,o),
(169,367,c),
(164,362,o),
(154,362,o),
(147,369,c),
(143,373,o),
(140,378,o),
(132,378,c),
(130,367,o),
(128,356,o),
(126,345,c),
(125,340,o),
(123,335,o),
(120,331,c),
(117,327,o),
(113,324,o),
(108,326,c),
(102,328,o),
(101,332,o),
(102,338,c),
(102,345,o),
(103,353,o),
(104,362,c),
(97,359,o),
(95,354,o),
(91,351,c),
(85,345,o),
(81,339,o),
(75,334,c),
(72,330,o),
(68,327,o),
(64,325,c),
(53,317,o),
(40,318,o),
(32,326,c),
(23,335,o),
(23,348,o),
(30,359,c),
(35,366,o),
(41,372,o),
(48,378,c),
(54,383,o),
(61,389,o),
(67,395,c),
(69,398,o),
(76,401,o),
(75,404,c),
(73,409,o),
(73,415,o),
(69,419,c),
(67,420,o),
(66,422,o),
(64,424,c),
(58,431,o),
(57,444,o),
(62,451,c),
(68,459,o),
(79,463,o),
(89,459,c),
(94,457,o),
(99,454,o),
(105,452,c)
);
}
);
width = 226;
}
);
unicode = 42;
},
{
glyphname = numbersign;
lastChange = "2022-08-31 05:12:22 +0000";
layers = (
{
layerId = m01;
shapes = (
{
closed = 1;
nodes = (
(156,253,o),
(140,247,o),
(123,241,c),
(119,240,o),
(116,237,o),
(116,232,c),
(115,217,o),
(115,202,o),
(116,187,c),
(116,180,o),
(118,179,o),
(125,181,c),
(140,185,o),
(156,189,o),
(172,193,c),
(178,195,o),
(181,198,o),
(180,205,c),
(178,222,o),
(176,240,o),
(174,259,c)
);
},
{
closed = 1;
nodes = (
(80,116,o),
(75,113,o),
(69,112,c),
(60,110,o),
(53,113,o),
(48,120,c),
(42,126,o),
(43,135,o),
(49,143,c),
(56,154,o),
(67,159,o),
(77,165,c),
(80,167,o),
(82,168,o),
(82,172,c),
(82,173,o),
(82,174,o),
(82,175,c),
(79,191,o),
(80,207,o),
(77,223,c),
(71,223,o),
(68,220,o),
(63,219,c),
(47,213,o),
(31,221,o),
(26,238,c),
(23,247,o),
(32,265,o),
(43,272,c),
(50,276,o),
(57,280,o),
(64,283,c),
(72,285,o),
(73,289,o),
(73,296,c),
(71,318,o),
(71,339,o),
(75,361,c),
(77,372,o),
(81,381,o),
(92,385,c),
(103,389,o),
(115,384,o),
(119,373,c),
(122,364,o),
(122,356,o),
(122,347,c),
(122,333,o),
(122,319,o),
(122,304,c),
(135,307,o),
(149,310,o),
(162,312,c),
(168,313,o),
(170,316,o),
(170,322,c),
(170,335,o),
(171,348,o),
(172,361,c),
(173,370,o),
(175,377,o),
(181,383,c),
(195,398,o),
(219,393,o),
(225,373,c),
(228,365,o),
(230,356,o),
(229,347,c),
(229,344,o),
(229,341,o),
(230,338,c),
(232,322,o),
(230,324,o),
(245,323,c),
(255,323,o),
(264,320,o),
(271,312,c),
(275,307,o),
(279,300,o),
(275,292,c),
(271,285,o),
(265,282,o),
(257,283,c),
(255,283,o),
(252,283,o),
(250,283,c),
(232,281,o),
(230,278,o),
(229,261,c),
(228,245,o),
(227,229,o),
(226,212,c),
(226,207,o),
(227,204,o),
(234,205,c),
(240,206,o),
(247,204,o),
(254,202,c),
(261,200,o),
(267,194,o),
(266,187,c),
(266,180,o),
(262,175,o),
(254,173,c),
(247,171,o),
(240,169,o),
(233,167,c),
(228,166,o),
(226,164,o),
(226,159,c),
(226,130,o),
(223,100,o),
(229,71,c),
(230,63,o),
(228,57,o),
(221,54,c),
(214,51,o),
(206,53,o),
(201,60,c),
(196,67,o),
(194,75,o),
(193,83,c),
(190,106,o),
(187,128,o),
(185,151,c),
(179,152,o),
(175,149,o),
(171,148,c),
(156,143,o),
(141,137,o),
(125,132,c),
(121,131,o),
(118,129,o),
(118,123,c),
(120,107,o),
(121,91,o),
(124,75,c),
(125,72,o),
(126,71,o),
(128,69,c),
(133,64,o),
(133,59,o),
(130,54,c),
(127,49,o),
(120,47,o),
(114,49,c),
(106,51,o),
(102,57,o),
(99,63,c),
(94,75,o),
(92,87,o),
(90,99,c),
(89,105,o),
(88,110,o),
(87,116,c)
);
}
);
width = 302;
}
);
unicode = 35;
},
{
glyphname = slash;
lastChange = "2022-08-31 05:12:22 +0000";
layers = (
{
layerId = m01;
shapes = (
{
closed = 1;
nodes = (
(26,123,o),
(32,146,o),
(35,170,c),
(41,208,o),
(49,245,o),
(57,282,c),
(70,343,o),
(84,404,o),
(105,462,c),
(109,471,o),
(113,480,o),
(120,487,c),
(134,499,o),
(154,496,o),
(164,481,c),
(169,473,o),
(169,465,o),
(167,456,c),
(165,446,o),
(162,435,o),
(158,424,c),
(147,392,o),
(140,359,o),
(129,326,c),
(121,298,o),
(113,270,o),
(105,242,c),
(92,195,o),
(80,148,o),
(68,101,c),
(65,92,o),
(63,84,o),
(59,75,c),
(55,66,o),
(48,62,o),
(39,64,c),
(31,65,o),
(27,70,o),
(26,81,c),
(26,83,o),
(26,86,o),
(25,89,c),
(25,92,o),
(25,95,o),
(25,98,c)
);
}
);
width = 193;
}
);
unicode = 47;
},
{
glyphname = backslash;
lastChange = "2022-08-31 05:12:22 +0000";
layers = (
{
layerId = m01;
shapes = (
{
closed = 1;
nodes = (
(66,493,o),
(76,485,o),
(81,470,c),
(86,453,o),
(89,436,o),
(94,418,c),
(104,376,o),
(108,334,o),
(114,291,c),
(121,245,o),
(127,198,o),
(137,153,c),
(142,131,o),
(146,109,o),
(154,88,c),
(155,86,o),
(156,84,o),
(156,81,c),
(156,75,o),
(154,69,o),
(148,66,c),
(142,64,o),
(136,64,o),
(131,69,c),
(121,78,o),
(114,89,o),
(109,102,c),
(96,135,o),
(88,169,o),
(78,202,c),
(65,251,o),
(55,299,o),
(44,348,c),
(37,376,o),
(35,405,o),
(30,433,c),
(28,443,o),
(25,452,o),
(25,461,c),
(25,470,o),
(27,479,o),
(34,486,c),
(39,491,o),
(45,494,o),
(51,493,c)
);
}
);
width = 181;
}
);
unicode = 92;
},
{
glyphname = hyphen;
lastChange = "2022-08-31 05:21:16 +0000";
layers = (
{
layerId = m01;
shapes = (
{
closed = 1;
nodes = (
(112,292,o),
(130,293,o),
(147,289,c),
(158,286,o),
(168,282,o),
(176,275,c),
(182,271,o),
(184,264,o),
(181,257,c),
(178,251,o),
(173,247,o),
(166,247,c),
(165,247,o),
(163,247,o),
(162,248,c),
(132,253,o),
(103,249,o),
(73,246,c),
(69,245,o),
(65,244,o),
(61,243,c),
(51,241,o),
(42,242,o),
(33,249,c),
(25,257,o),
(23,266,o),
(26,275,c),
(29,284,o),
(36,290,o),
(46,291,c),
(56,293,o),
(68,294,o),
(79,294,c),
(84,294,o),
(89,294,o),
(96,294,c)
);
}
);
width = 207;
}
);
unicode = 45;
},
{
glyphname = underscore;
lastChange = "2022-08-31 05:12:22 +0000";
layers = (
{
layerId = m01;
shapes = (
{
closed = 1;
nodes = (
(316,58,o),
(317,52,o),
(313,45,c),
(309,39,o),
(303,39,o),
(297,40,c),
(263,48,o),
(228,44,o),
(194,44,c),
(152,43,o),
(110,37,o),
(68,35,c),
(59,34,o),
(51,34,o),
(42,37,c),
(33,40,o),
(27,46,o),
(25,56,c),
(24,65,o),
(28,73,o),
(37,79,c),
(46,84,o),
(56,87,o),
(65,89,c),
(113,100,o),
(162,105,o),
(206,102,c),
(235,101,o),
(259,98,o),
(281,88,c),
(293,83,o),
(303,73,o),
(311,63,c)
);
}
);
width = 340;
}
);
unicode = 95;
},
{
glyphname = parenleft;
lastChange = "2022-08-31 05:12:22 +0000";
layers = (
{
layerId = m01;
shapes = (
{
closed = 1;
nodes = (
(26,337,o),
(33,376,o),
(45,415,c),
(52,438,o),
(63,460,o),
(76,481,c),
(82,490,o),
(89,498,o),
(97,504,c),
(104,509,o),
(111,511,o),
(120,510,c),
(136,507,o),
(144,489,o),
(133,478,c),
(121,465,o),
(115,449,o),
(109,433,c),
(99,407,o),
(92,380,o),
(86,352,c),
(79,317,o),
(77,281,o),
(80,245,c),
(83,202,o),
(95,162,o),
(112,122,c),
(117,110,o),
(123,97,o),
(131,86,c),
(134,81,o),
(137,79,o),
(144,79,c),
(156,80,o),
(161,69,o),
(155,59,c),
(149,48,o),
(135,45,o),
(123,50,c),
(111,56,o),
(103,65,o),
(96,75,c),
(71,111,o),
(56,150,o),
(42,191,c),
(31,226,o),
(26,261,o),
(25,293,c)
);
}
);
width = 183;
}
);
unicode = 40;
},
{
glyphname = parenright;
lastChange = "2022-08-31 05:12:22 +0000";
layers = (
{
layerId = m01;
shapes = (
{
closed = 1;
nodes = (
(157,273,o),
(149,236,o),
(138,200,c),
(128,166,o),
(114,134,o),
(96,103,c),
(86,86,o),
(75,69,o),
(58,58,c),
(53,55,o),
(49,52,o),
(44,50,c),
(36,46,o),
(30,48,o),
(27,53,c),
(23,58,o),
(24,63,o),
(29,69,c),
(29,70,o),
(30,71,o),
(31,71,c),
(52,90,o),
(65,114,o),
(76,140,c),
(91,176,o),
(101,212,o),
(107,250,c),
(116,305,o),
(113,360,o),
(96,413,c),
(89,435,o),
(80,456,o),
(68,474,c),
(66,477,o),
(65,479,o),
(64,481,c),
(60,490,o),
(61,499,o),
(68,505,c),
(74,511,o),
(84,512,o),
(93,507,c),
(106,499,o),
(114,486,o),
(121,473,c),
(133,452,o),
(141,430,o),
(147,407,c),
(151,392,o),
(152,376,o),
(155,360,c),
(157,344,o),
(158,327,o),
(157,311,c)
);
}
);
width = 182;
}
);
unicode = 41;
},
{
glyphname = braceleft;
lastChange = "2022-08-31 05:12:22 +0000";
layers = (
{
layerId = m01;
shapes = (
{
closed = 1;
nodes = (
(55,168,o),
(55,185,o),
(57,201,c),
(57,206,o),
(56,209,o),
(50,209,c),
(36,211,o),
(28,219,o),
(25,230,c),
(23,241,o),
(29,252,o),
(41,259,c),
(47,263,o),
(53,266,o),
(59,267,c),
(66,268,o),
(71,273,o),
(74,278,c),
(80,287,o),
(83,297,o),
(84,307,c),
(86,334,o),
(84,362,o),
(80,389,c),
(77,413,o),
(74,437,o),
(76,461,c),
(78,488,o),
(101,527,o),
(140,536,c),
(152,539,o),
(163,537,o),
(172,528,c),
(182,519,o),
(182,504,o),
(173,497,c),
(170,494,o),
(166,491,o),
(161,493,c),
(154,496,o),
(150,491,o),
(146,487,c),
(138,479,o),
(136,468,o),
(135,458,c),
(134,440,o),
(138,424,o),
(139,407,c),
(141,385,o),
(144,363,o),
(145,342,c),
(147,312,o),
(143,284,o),
(128,258,c),
(125,253,o),
(122,248,o),
(118,244,c),
(111,238,o),
(109,230,o),
(109,221,c),
(111,196,o),
(106,172,o),
(108,148,c),
(109,122,o),
(112,96,o),
(123,72,c),
(125,69,o),
(126,67,o),
(128,64,c),
(131,59,o),
(133,59,o),
(136,63,c),
(139,68,o),
(142,74,o),
(145,79,c),
(148,82,o),
(150,86,o),
(153,89,c),
(157,92,o),
(161,92,o),
(165,90,c),
(169,88,o),
(172,83,o),
(170,79,c),
(165,62,o),
(161,43,o),
(146,31,c),
(130,17,o),
(107,17,o),
(92,33,c),
(77,49,o),
(67,69,o),
(61,91,c),
(56,111,o),
(54,131,o),
(53,150,c)
);
}
);
width = 205;
}
);
unicode = 123;
},
{
glyphname = braceright;
lastChange = "2022-08-31 05:12:22 +0000";
layers = (
{
layerId = m01;
shapes = (
{
closed = 1;
nodes = (
(132,276,o),
(134,278,o),
(137,278,c),
(153,281,o),
(168,270,o),
(166,254,c),
(163,231,o),
(169,211,o),
(173,189,c),
(176,167,o),
(182,146,o),
(184,124,c),
(185,114,o),
(185,103,o),
(184,93,c),
(181,61,o),
(157,40,o),
(130,34,c),
(110,29,o),
(89,30,o),
(69,36,c),
(62,39,o),
(55,42,o),
(50,48,c),
(43,55,o),
(41,64,o),
(46,72,c),
(50,80,o),
(56,81,o),
(67,80,c),
(89,77,o),
(109,84,o),
(125,98,c),
(135,106,o),
(135,119,o),
(135,131,c),
(134,148,o),
(131,164,o),
(127,180,c),
(124,191,o),
(121,202,o),
(118,214,c),
(117,219,o),
(115,222,o),
(109,223,c),
(89,226,o),
(78,241,o),
(72,259,c),
(65,280,o),
(65,302,o),
(66,324,c),
(68,358,o),
(72,391,o),
(76,425,c),
(77,436,o),
(78,447,o),
(79,458,c),
(79,467,o),
(78,468,o),
(68,466,c),
(63,465,o),
(57,464,o),
(51,465,c),
(39,465,o),
(29,473,o),
(26,484,c),
(23,495,o),
(27,507,o),
(38,513,c),
(57,523,o),
(77,529,o),
(99,526,c),
(119,523,o),
(130,510,o),
(136,492,c),
(142,475,o),
(142,458,o),
(140,440,c),
(137,404,o),
(133,367,o),
(129,331,c),
(127,313,o),
(128,295,o),
(129,278,c)
);
}
);
width = 210;
}
);
unicode = 125;
},
{
glyphname = bracketleft;
lastChange = "2022-08-31 05:12:22 +0000";
layers = (
{
layerId = m01;
shapes = (
{
closed = 1;
nodes = (
(28,314,o),
(27,362,o),
(26,411,c),
(25,434,o),
(24,457,o),
(30,480,c),
(33,490,o),
(37,499,o),
(43,507,c),
(60,529,o),
(98,526,o),
(112,503,c),
(115,498,o),
(116,493,o),
(113,488,c),
(110,483,o),
(105,483,o),
(100,484,c),
(78,487,o),
(78,486,o),
(80,465,c),
(82,445,o),
(84,424,o),
(84,404,c),
(85,329,o),
(85,254,o),
(85,179,c),
(85,153,o),
(82,128,o),
(81,102,c),
(81,92,o),
(82,91,o),
(92,92,c),
(99,93,o),
(107,93,o),
(114,96,c),
(120,99,o),
(127,99,o),
(133,93,c),
(137,88,o),
(138,80,o),
(133,73,c),
(117,51,o),
(96,38,o),
(70,36,c),
(47,34,o),
(29,53,o),
(30,76,c),
(32,120,o),
(31,163,o),
(30,207,c),
(30,226,o),
(29,246,o),
(29,258,c)
);
}
);
width = 161;
}
);
unicode = 91;
},
{
glyphname = bracketright;
lastChange = "2022-08-31 05:12:22 +0000";
layers = (
{
layerId = m01;
shapes = (
{
closed = 1;
nodes = (
(69,455,o),
(60,453,o),
(51,453,c),
(40,453,o),
(30,459,o),
(26,468,c),
(23,477,o),
(26,490,o),
(35,496,c),
(55,510,o),
(78,515,o),
(102,509,c),
(114,505,o),
(124,496,o),
(129,483,c),
(137,465,o),
(140,446,o),
(141,426,c),
(143,374,o),
(140,323,o),
(138,271,c),
(136,233,o),
(130,196,o),
(126,158,c),
(125,140,o),
(124,122,o),
(124,103,c),
(124,96,o),
(124,88,o),
(126,81,c),
(132,59,o),
(114,42,o),
(92,48,c),
(79,51,o),
(67,57,o),
(56,64,c),
(55,65,o),
(54,65,o),
(53,66,c),
(47,71,o),
(44,78,o),
(47,83,c),
(50,89,o),
(56,91,o),
(62,91,c),
(66,91,o),
(70,90,o),
(73,89,c),
(78,88,o),
(80,90,o),
(80,95,c),
(81,111,o),
(82,126,o),
(83,141,c),
(85,190,o),
(85,239,o),
(85,288,c),
(85,337,o),
(85,386,o),
(82,435,c),
(82,442,o),
(81,450,o),
(78,458,c)
);
}
);
width = 167;
}
);
unicode = 93;
},
{
glyphname = quotedblleft;
lastChange = "2022-08-31 05:12:22 +0000";
layers = (
{
layerId = m01;
shapes = (
{
closed = 1;
nodes = (
(72,521,o),
(76,547,o),
(84,572,c),
(86,578,o),
(88,584,o),
(93,589,c),
(99,594,o),
(106,597,o),
(114,593,c),
(122,590,o),
(126,584,o),
(126,575,c),
(127,569,o),
(124,563,o),
(122,557,c),
(111,532,o),
(103,507,o),
(97,481,c),
(95,472,o),
(91,468,o),
(85,468,c),
(79,468,o),
(74,472,o),
(71,480,c),
(71,481,o),
(70,483,o),
(70,485,c),
(70,488,o),
(70,491,o),
(70,495,c)
);
},
{
closed = 1;
nodes = (
(26,549,o),
(27,562,o),
(29,574,c),
(31,591,o),
(44,599,o),
(58,593,c),
(65,590,o),
(69,585,o),
(69,577,c),
(69,574,o),
(69,571,o),
(68,568,c),
(60,549,o),
(57,529,o),
(53,509,c),
(51,501,o),
(47,496,o),
(41,496,c),
(35,495,o),
(27,503,o),
(26,509,c),
(24,518,o),
(25,527,o),
(25,539,c)
);
}
);
width = 151;
}
);
unicode = 8220;
},
{
glyphname = quotedblright;
lastChange = "2022-08-31 05:12:22 +0000";
layers = (
{
layerId = m01;
shapes = (
{
closed = 1;
nodes = (
(72,521,o),
(76,547,o),
(84,572,c),
(86,578,o),
(88,584,o),
(93,589,c),
(99,594,o),
(106,597,o),
(114,593,c),
(122,590,o),
(126,584,o),
(126,575,c),
(127,569,o),
(124,563,o),
(122,557,c),
(111,532,o),
(103,507,o),
(97,481,c),
(95,472,o),
(91,468,o),
(85,468,c),
(79,468,o),
(74,472,o),
(71,480,c),
(71,481,o),
(70,483,o),
(70,485,c),
(70,488,o),
(70,491,o),
(70,495,c)
);
},
{
closed = 1;
nodes = (
(26,549,o),
(27,562,o),
(29,574,c),
(31,591,o),
(44,599,o),
(58,593,c),
(65,590,o),
(69,585,o),
(69,577,c),
(69,574,o),
(69,571,o),
(68,568,c),
(60,549,o),
(57,529,o),
(53,509,c),
(51,501,o),
(47,496,o),
(41,496,c),
(35,495,o),
(27,503,o),
(26,509,c),
(24,518,o),
(25,527,o),
(25,539,c)
);
}
);
width = 151;
}
);
unicode = 8221;
},
{
glyphname = quoteleft;
lastChange = "2022-08-31 05:12:22 +0000";
layers = (
{
layerId = m01;
shapes = (
{
closed = 1;
nodes = (
(67,595,o),
(77,582,o),
(74,566,c),
(71,553,o),
(69,541,o),
(66,528,c),
(65,522,o),
(64,517,o),
(66,511,c),
(67,504,o),
(65,498,o),
(59,494,c),
(53,490,o),
(46,491,o),
(40,495,c),
(33,499,o),
(28,506,o),
(27,514,c),
(23,535,o),
(25,556,o),
(30,577,c),
(32,588,o),
(42,595,o),
(53,595,c)
);
}
);
width = 100;
}
);
unicode = 8216;
},
{
glyphname = quoteright;
lastChange = "2022-08-31 05:12:22 +0000";
layers = (
{
layerId = m01;
shapes = (
{
closed = 1;
nodes = (
(67,595,o),
(77,582,o),
(74,566,c),
(71,553,o),
(69,541,o),
(66,528,c),
(65,522,o),
(64,517,o),
(66,511,c),
(67,504,o),
(65,498,o),
(59,494,c),
(53,490,o),
(46,491,o),
(40,495,c),
(33,499,o),
(28,506,o),
(27,514,c),
(23,535,o),
(25,556,o),
(30,577,c),
(32,588,o),
(42,595,o),
(53,595,c)
);
}
);
width = 100;
}
);
unicode = 8217;
},
{
glyphname = guillemetleft;
lastChange = "2022-08-31 05:21:16 +0000";
layers = (
{
layerId = m01;
shapes = (
{
closed = 1;
nodes = (
(268,247,o),
(277,241,o),
(287,235,c),
(305,224,o),
(323,212,o),
(339,197,c),
(356,181,o),
(373,166,o),
(395,157,c),
(403,154,o),
(405,145,o),
(399,138,c),
(394,131,o),
(386,129,o),
(378,131,c),
(369,132,o),
(361,135,o),
(353,138,c),
(332,146,o),
(310,152,o),
(290,161,c),
(275,168,o),
(261,178,o),
(247,186,c),
(231,195,o),
(215,205,o),
(199,214,c),
(173,228,o),
(172,257,o),
(194,275,c),
(230,305,o),
(267,335,o),
(299,370,c),
(311,383,o),
(324,395,o),
(337,408,c),
(342,413,o),
(348,418,o),
(355,422,c),
(363,427,o),
(374,427,o),
(381,421,c),
(389,415,o),
(392,406,o),
(388,396,c),
(383,382,o),
(373,370,o),
(364,358,c),
(333,319,o),
(296,287,o),
(257,253,c)
);
},
{
closed = 1;
nodes = (
(115,247,o),
(124,241,o),
(134,235,c),
(152,224,o),
(170,212,o),
(186,197,c),
(203,181,o),
(220,166,o),
(242,157,c),
(250,154,o),
(252,145,o),
(246,138,c),
(241,131,o),
(233,129,o),
(225,131,c),
(216,132,o),
(208,135,o),
(200,138,c),
(179,146,o),
(157,152,o),
(137,161,c),
(122,168,o),
(108,178,o),
(94,186,c),
(78,195,o),
(62,205,o),
(46,214,c),
(20,228,o),
(19,257,o),
(41,275,c),
(77,305,o),
(114,335,o),
(146,370,c),
(158,383,o),
(171,395,o),
(184,408,c),
(189,413,o),
(195,418,o),
(202,422,c),
(210,427,o),
(221,427,o),
(228,421,c),
(236,415,o),
(239,406,o),
(235,396,c),
(230,382,o),
(220,370,o),
(211,358,c),
(180,319,o),
(143,287,o),
(104,253,c)
);
}
);
width = 427;
}
);
unicode = 171;
},
{
glyphname = guillemetright;
lastChange = "2022-08-31 05:21:16 +0000";
layers = (
{
layerId = m01;
shapes = (
{
closed = 1;
nodes = (
(175,288,o),
(166,293,o),
(156,297,c),
(119,313,o),
(84,334,o),
(50,356,c),
(42,362,o),
(35,369,o),
(29,378,c),
(22,390,o),
(26,407,o),
(36,415,c),
(45,422,o),
(60,423,o),
(71,414,c),
(86,401,o),
(104,392,o),
(122,384,c),
(160,366,o),
(194,343,o),
(228,319,c),
(250,303,o),
(254,283,o),
(238,261,c),
(227,246,o),
(215,234,o),
(201,224,c),
(168,199,o),
(131,179,o),
(96,158,c),
(88,153,o),
(79,147,o),
(71,142,c),
(68,140,o),
(64,139,o),
(61,137,c),
(56,134,o),
(52,136,o),
(48,139,c),
(45,143,o),
(45,148,o),
(48,152,c),
(50,156,o),
(53,160,o),
(56,163,c),
(67,173,o),
(78,183,o),
(90,192,c),
(121,217,o),
(150,243,o),
(177,272,c),
(180,275,o),
(183,278,o),
(187,283,c)
);
},
{
closed = 1;
nodes = (
(354,288,o),
(344,293,o),
(335,297,c),
(297,313,o),
(263,334,o),
(229,356,c),
(220,362,o),
(213,369,o),
(208,378,c),
(200,390,o),
(205,407,o),
(215,415,c),
(224,422,o),
(239,423,o),
(249,414,c),
(265,401,o),
(283,392,o),
(301,384,c),
(338,366,o),
(373,343,o),
(406,319,c),
(429,303,o),
(432,283,o),
(416,261,c),
(406,246,o),
(394,234,o),
(380,224,c),
(347,199,o),
(310,179,o),
(275,158,c),
(266,153,o),
(258,147,o),
(249,142,c),
(246,140,o),
(243,139,o),
(239,137,c),
(234,134,o),
(230,136,o),
(227,139,c),
(223,143,o),
(223,148,o),
(226,152,c),
(229,156,o),
(231,160,o),
(235,163,c),
(246,173,o),
(257,183,o),
(269,192,c),
(299,217,o),
(329,243,o),
(356,272,c),
(359,275,o),
(361,278,o),
(365,283,c)
);
}
);
width = 451;
}
);
unicode = 187;
},
{
glyphname = guilsinglleft;
lastChange = "2022-08-31 05:21:16 +0000";
layers = (
{
layerId = m01;
shapes = (
{
closed = 1;
nodes = (
(115,247,o),
(124,241,o),
(133,235,c),
(152,224,o),
(170,212,o),
(186,197,c),
(202,181,o),
(220,166,o),
(242,157,c),
(250,154,o),
(252,145,o),
(246,138,c),
(241,131,o),
(233,129,o),
(225,131,c),
(216,132,o),
(208,135,o),
(200,138,c),
(179,146,o),
(157,152,o),
(137,161,c),
(121,168,o),
(108,178,o),
(94,186,c),
(78,195,o),
(62,205,o),
(46,214,c),
(20,228,o),
(19,257,o),
(41,275,c),
(77,305,o),
(113,335,o),
(146,370,c),
(158,383,o),
(171,395,o),
(184,408,c),
(189,413,o),
(195,418,o),
(202,422,c),
(210,427,o),
(221,427,o),
(228,421,c),
(236,415,o),
(239,406,o),
(235,396,c),
(229,382,o),
(220,370,o),
(211,358,c),
(180,319,o),
(143,287,o),
(104,253,c)
);
}
);
width = 274;
}
);
unicode = 8249;
},
{
glyphname = guilsinglright;
lastChange = "2022-08-31 05:21:16 +0000";
layers = (
{
layerId = m01;
shapes = (
{
closed = 1;
nodes = (
(175,288,o),
(166,293,o),
(156,297,c),
(119,313,o),
(84,334,o),
(50,356,c),
(42,362,o),
(35,369,o),
(29,378,c),
(22,390,o),
(26,407,o),
(36,415,c),
(45,422,o),
(60,423,o),
(70,414,c),
(86,401,o),
(104,392,o),
(122,384,c),
(160,366,o),
(194,343,o),
(228,319,c),
(250,303,o),
(254,283,o),
(238,261,c),
(227,246,o),
(215,234,o),
(201,224,c),
(168,199,o),
(131,179,o),
(96,158,c),
(88,153,o),
(79,147,o),
(71,142,c),
(68,140,o),
(64,139,o),
(61,137,c),
(56,134,o),
(52,136,o),
(48,139,c),
(44,143,o),
(45,148,o),
(48,152,c),
(50,156,o),
(53,160,o),
(56,163,c),
(67,173,o),
(78,183,o),
(90,192,c),
(121,217,o),
(150,243,o),
(177,272,c),
(180,275,o),
(183,278,o),
(186,283,c)
);
}
);
width = 273;
}
);
unicode = 8250;
},
{
glyphname = quotedbl;
lastChange = "2022-08-31 05:12:22 +0000";
layers = (
{
layerId = m01;
shapes = (
{
closed = 1;
nodes = (
(72,521,o),
(76,547,o),
(84,572,c),
(86,578,o),
(88,584,o),
(93,589,c),
(99,594,o),
(106,597,o),
(114,593,c),
(122,590,o),
(126,584,o),
(126,575,c),
(127,569,o),
(124,563,o),
(122,557,c),
(111,532,o),
(103,507,o),
(97,481,c),
(95,472,o),
(91,468,o),
(85,468,c),
(79,468,o),
(74,472,o),
(71,480,c),
(71,481,o),
(70,483,o),
(70,485,c),
(70,488,o),
(70,491,o),
(70,495,c)
);
},
{
closed = 1;
nodes = (
(26,549,o),
(27,562,o),
(29,574,c),
(31,591,o),
(44,599,o),
(58,593,c),
(65,590,o),
(69,585,o),
(69,577,c),
(69,574,o),
(69,571,o),
(68,568,c),
(60,549,o),
(57,529,o),
(53,509,c),
(51,501,o),
(47,496,o),
(41,496,c),
(35,495,o),
(27,503,o),
(26,509,c),
(24,518,o),
(25,527,o),
(25,539,c)
);
}
);
width = 151;
}
);
unicode = 34;
},
{
glyphname = quotesingle;
lastChange = "2022-08-31 05:12:22 +0000";
layers = (
{
layerId = m01;
shapes = (
{
closed = 1;
nodes = (
(67,595,o),
(77,582,o),
(74,566,c),
(71,553,o),
(69,541,o),
(66,528,c),
(65,522,o),
(64,517,o),
(66,511,c),
(67,504,o),
(65,498,o),
(59,494,c),
(53,490,o),
(46,491,o),
(40,495,c),
(33,499,o),
(28,506,o),
(27,514,c),
(23,535,o),
(25,556,o),
(30,577,c),
(32,588,o),
(42,595,o),
(53,595,c)
);
}
);
width = 100;
}
);
unicode = 39;
},
{
glyphname = at;
lastChange = "2022-08-31 05:12:22 +0000";
layers = (
{
layerId = m01;
shapes = (
{
closed = 1;
nodes = (
(239,223,o),
(241,222,o),
(242,223,c),
(265,234,o),
(278,254,o),
(288,277,c),
(290,282,o),
(288,283,o),
(282,282,c),
(256,279,o),
(234,250,o),
(237,222,c)
);
},
{
closed = 1;
nodes = (
(298,196,o),
(290,186,o),
(280,178,c),
(268,168,o),
(255,160,o),
(238,158,c),
(210,155,o),
(187,170,o),
(177,196,c),
(171,214,o),
(171,232,o),
(176,249,c),
(187,283,o),
(207,309,o),
(238,326,c),
(257,335,o),
(276,339,o),
(297,333,c),
(304,331,o),
(311,328,o),
(317,323,c),
(325,318,o),
(332,311,o),
(340,305,c),
(348,300,o),
(352,290,o),
(354,281,c),
(356,271,o),
(357,261,o),
(359,251,c),
(360,248,o),
(360,244,o),
(361,241,c),
(363,236,o),
(363,229,o),
(368,228,c),
(374,227,o),
(378,234,o),
(381,238,c),
(391,254,o),
(396,270,o),
(394,288,c),
(391,323,o),
(377,352,o),
(350,375,c),
(332,389,o),
(311,395,o),
(288,395,c),
(233,396,o),
(185,378,o),
(146,339,c),
(108,300,o),
(88,252,o),
(86,197,c),
(85,168,o),
(92,140,o),
(110,116,c),
(123,99,o),
(140,90,o),
(162,90,c),
(194,91,o),
(223,98,o),
(247,121,c),
(256,129,o),
(267,137,o),
(276,145,c),
(282,150,o),
(288,151,o),
(294,148,c),
(300,144,o),
(301,138,o),
(300,131,c),
(297,119,o),
(291,107,o),
(284,97,c),
(275,85,o),
(263,76,o),
(251,68,c),
(225,51,o),
(197,39,o),
(166,36,c),
(127,33,o),
(94,44,o),
(68,73,c),
(41,103,o),
(27,139,o),
(25,179,c),
(24,219,o),
(32,256,o),
(48,292,c),
(80,365,o),
(131,417,o),
(208,442,c),
(248,455,o),
(289,459,o),
(330,448,c),
(358,440,o),
(383,427,o),
(403,405,c),
(435,370,o),
(452,329,o),
(453,282,c),
(454,260,o),
(446,239,o),
(435,219,c),
(428,204,o),
(417,191,o),
(405,179,c),
(386,160,o),
(345,153,o),
(320,186,c),
(315,192,o),
(311,198,o),
(306,206,c)
);
}
);
width = 478;
}
);
unicode = 64;
},
{
glyphname = ampersand;
lastChange = "2022-08-31 05:12:22 +0000";
layers = (
{
layerId = m01;
shapes = (
{
closed = 1;
nodes = (
(177,314,o),
(178,317,o),
(179,321,c),
(185,337,o),
(190,353,o),
(191,370,c),
(193,385,o),
(194,400,o),
(188,414,c),
(186,419,o),
(186,425,o),
(179,427,c),
(165,389,o),
(166,351,o),
(172,311,c)
);
},
{
closed = 1;
nodes = (
(92,91,o),
(93,90,o),
(93,89,c),
(128,105,o),
(161,122,o),
(194,143,c),
(181,159,o),
(172,175,o),
(161,194,c),
(137,159,o),
(114,125,o),
(91,92,c)
);
},
{
closed = 1;
nodes = (
(244,365,o),
(237,342,o),
(229,318,c),
(220,295,o),
(209,272,o),
(196,251,c),
(192,244,o),
(191,238,o),
(194,232,c),
(203,212,o),
(215,194,o),
(227,177,c),
(231,172,o),
(233,171,o),
(237,176,c),
(242,181,o),
(246,187,o),
(249,193,c),
(251,198,o),
(251,202,o),
(249,206,c),
(245,212,o),
(245,218,o),
(250,223,c),
(255,228,o),
(261,227,o),
(267,224,c),
(280,219,o),
(285,210,o),
(286,197,c),
(288,180,o),
(282,166,o),
(274,152,c),
(273,149,o),
(271,146,o),
(269,143,c),
(266,139,o),
(266,136,o),
(270,134,c),
(281,126,o),
(291,119,o),
(301,111,c),
(306,108,o),
(310,105,o),
(314,100,c),
(321,89,o),
(315,75,o),
(302,73,c),
(288,72,o),
(276,77,o),
(264,83,c),
(254,88,o),
(245,94,o),
(236,102,c),
(231,106,o),
(227,106,o),
(222,102,c),
(193,80,o),
(161,63,o),
(129,47,c),
(112,38,o),
(94,31,o),
(76,27,c),
(69,25,o),
(62,25,o),
(56,25,c),
(33,27,o),
(20,45,o),
(27,67,c),
(30,75,o),
(34,82,o),
(39,89,c),
(51,106,o),
(64,122,o),
(75,139,c),
(98,170,o),
(120,202,o),
(138,237,c),
(140,240,o),
(141,243,o),
(140,248,c),
(126,293,o),
(120,339,o),
(122,386,c),
(122,408,o),
(126,430,o),
(135,450,c),
(153,489,o),
(191,493,o),
(217,466,c),
(236,445,o),
(243,419,o),
(244,391,c)
);
}
);
width = 342;
}
);
unicode = 38;
},
{
glyphname = trademark;
lastChange = "2022-08-31 05:21:16 +0000";
layers = (
{
layerId = m01;
shapes = (
{
closed = 1;
nodes = (
(372,539,o),
(372,508,o),
(369,477,c),
(368,461,o),
(367,445,o),
(366,429,c),
(365,425,o),
(365,420,o),
(364,416,c),
(362,411,o),
(358,408,o),
(352,408,c),
(346,408,o),
(343,411,o),
(341,417,c),
(339,423,o),
(338,429,o),
(336,435,c),
(330,457,o),
(324,479,o),
(318,502,c),
(311,488,o),
(303,476,o),
(287,474,c),
(272,473,o),
(262,481,o),
(250,490,c),
(246,475,o),
(247,462,o),
(249,448,c),
(249,445,o),
(251,443,o),
(252,441,c),
(256,435,o),
(254,422,o),
(249,417,c),
(245,412,o),
(238,412,o),
(232,417,c),
(228,421,o),
(226,426,o),
(224,432,c),
(212,470,o),
(203,510,o),
(205,551,c),
(205,554,o),
(205,556,o),
(206,559,c),
(207,568,o),
(209,578,o),
(220,581,c),
(230,585,o),
(241,583,o),
(250,576,c),
(255,571,o),
(260,565,o),
(264,558,c),
(270,545,o),
(278,533,o),
(287,520,c),
(296,537,o),
(307,550,o),
(311,568,c),
(312,572,o),
(313,576,o),
(315,580,c),
(322,597,o),
(343,600,o),
(354,585,c),
(358,580,o),
(360,574,o),
(362,569,c)
);
},
{
closed = 1;
nodes = (
(196,582,o),
(198,578,o),
(198,573,c),
(199,564,o),
(192,558,o),
(184,562,c),
(167,569,o),
(152,562,o),
(136,559,c),
(132,558,o),
(132,556,o),
(131,552,c),
(129,525,o),
(126,497,o),
(126,470,c),
(126,459,o),
(127,449,o),
(130,440,c),
(132,435,o),
(133,431,o),
(128,427,c),
(123,424,o),
(117,425,o),
(113,429,c),
(109,433,o),
(107,437,o),
(105,442,c),
(100,465,o),
(98,488,o),
(97,512,c),
(97,523,o),
(96,534,o),
(96,546,c),
(83,543,o),
(72,540,o),
(61,537,c),
(57,536,o),
(52,535,o),
(48,536,c),
(37,537,o),
(28,543,o),
(26,552,c),
(24,562,o),
(28,571,o),
(37,577,c),
(47,583,o),
(57,586,o),
(67,588,c),
(101,594,o),
(134,595,o),
(168,594,c),
(177,594,o),
(184,591,o),
(191,586,c)
);
}
);
width = 396;
}
);
unicode = 8482;
},
{
glyphname = degree;
lastChange = "2022-08-31 05:21:16 +0000";
layers = (
{
layerId = m01;
shapes = (
{
closed = 1;
nodes = (
(66,464,o),
(66,459,o),
(69,455,c),
(71,451,o),
(73,449,o),
(78,449,c),
(85,450,o),
(91,455,o),
(95,461,c),
(98,468,o),
(100,475,o),
(96,482,c),
(92,487,o),
(86,492,o),
(81,495,c),
(77,498,o),
(74,497,o),
(73,493,c),
(69,485,o),
(66,477,o),
(66,469,c)
);
},
{
closed = 1;
nodes = (
(24,485,o),
(31,501,o),
(44,513,c),
(54,523,o),
(65,527,o),
(79,520,c),
(88,516,o),
(98,514,o),
(106,509,c),
(130,491,o),
(134,470,o),
(117,446,c),
(109,433,o),
(97,423,o),
(82,418,c),
(56,410,o),
(30,427,o),
(25,455,c),
(25,459,o),
(25,463,o),
(25,466,c)
);
}
);
width = 152;
}
);
unicode = 176;
},
{
glyphname = bar;
lastChange = "2022-08-31 05:21:16 +0000";
layers = (
{
layerId = m01;
shapes = (
{
closed = 1;
nodes = (
(76,197,o),
(73,146,o),
(73,95,c),
(73,85,o),
(73,75,o),
(76,65,c),
(77,58,o),
(76,52,o),
(70,48,c),
(64,44,o),
(57,44,o),
(51,49,c),
(41,57,o),
(38,67,o),
(36,78,c),
(33,93,o),
(32,109,o),
(31,124,c),
(29,200,o),
(27,276,o),
(25,352,c),
(24,378,o),
(26,405,o),
(31,432,c),
(32,439,o),
(34,446,o),
(37,452,c),
(42,462,o),
(51,467,o),
(60,465,c),
(70,464,o),
(76,457,o),
(78,448,c),
(80,439,o),
(81,431,o),
(81,422,c),
(85,382,o),
(83,341,o),
(81,301,c),
(80,283,o),
(79,266,o),
(78,249,c)
);
}
);
width = 108;
}
);
unicode = 124;
},
{
glyphname = cent;
lastChange = "2022-08-31 05:21:16 +0000";
layers = (
{
layerId = m01;
shapes = (
{
closed = 1;
nodes = (
(94,243,o),
(91,274,o),
(89,306,c),
(69,285,o),
(78,232,o),
(96,212,c)
);
},
{
closed = 1;
nodes = (
(131,206,o),
(136,210,o),
(141,216,c),
(150,226,o),
(160,234,o),
(168,245,c),
(172,249,o),
(176,249,o),
(181,248,c),
(186,246,o),
(190,242,o),
(189,237,c),
(186,224,o),
(185,212,o),
(178,201,c),
(165,182,o),
(151,165,o),
(129,157,c),
(125,155,o),
(124,153,o),
(124,149,c),
(125,141,o),
(125,133,o),
(126,125,c),
(126,120,o),
(126,115,o),
(120,114,c),
(115,113,o),
(112,116,o),
(110,121,c),
(106,129,o),
(105,138,o),
(104,146,c),
(103,150,o),
(102,153,o),
(98,154,c),
(75,158,o),
(60,173,o),
(48,190,c),
(26,222,o),
(20,257,o),
(28,294,c),
(30,304,o),
(36,314,o),
(42,324,c),
(52,341,o),
(66,356,o),
(83,366,c),
(88,369,o),
(90,372,o),
(90,377,c),
(90,391,o),
(92,404,o),
(93,418,c),
(94,423,o),
(96,426,o),
(98,430,c),
(105,440,o),
(117,438,o),
(121,427,c),
(124,420,o),
(124,412,o),
(125,404,c),
(126,398,o),
(126,393,o),
(126,387,c),
(126,382,o),
(129,379,o),
(134,379,c),
(145,378,o),
(156,373,o),
(165,365,c),
(173,358,o),
(177,349,o),
(177,338,c),
(176,328,o),
(169,323,o),
(161,330,c),
(155,337,o),
(146,341,o),
(136,340,c),
(129,340,o),
(128,340,o),
(127,332,c),
(126,297,o),
(123,262,o),
(123,227,c),
(124,219,o),
(122,211,o),
(124,202,c)
);
}
);
width = 214;
}
);
unicode = 162;
},
{
glyphname = dollar;
lastChange = "2022-08-31 05:21:16 +0000";
layers = (
{
layerId = m01;
shapes = (
{
closed = 1;
nodes = (
(88,297,o),
(86,292,o),
(82,290,c),
(86,286,o),
(89,284,o),
(95,284,c),
(93,289,o),
(96,294,o),
(93,298,c)
);
},
{
closed = 1;
nodes = (
(142,215,o),
(137,216,o),
(132,217,c),
(130,218,o),
(128,217,o),
(128,214,c),
(128,212,o),
(128,209,o),
(130,207,c),
(135,209,o),
(141,211,o),
(148,214,c)
);
},
{
closed = 1;
nodes = (
(133,295,o),
(132,287,o),
(131,279,c),
(130,269,o),
(130,269,o),
(140,266,c),
(156,263,o),
(171,259,o),
(187,256,c),
(192,254,o),
(198,253,o),
(204,250,c),
(225,240,o),
(232,216,o),
(219,197,c),
(206,178,o),
(188,169,o),
(167,165,c),
(158,163,o),
(148,161,o),
(138,161,c),
(130,161,o),
(130,160,o),
(130,152,c),
(131,144,o),
(131,137,o),
(134,129,c),
(136,123,o),
(133,117,o),
(127,116,c),
(123,114,o),
(118,117,o),
(115,123,c),
(111,131,o),
(110,141,o),
(108,150,c),
(106,159,o),
(106,159,o),
(96,160,c),
(79,160,o),
(63,160,o),
(46,164,c),
(33,167,o),
(25,177,o),
(26,189,c),
(27,201,o),
(37,207,o),
(48,200,c),
(51,198,o),
(54,197,o),
(58,197,c),
(70,197,o),
(81,199,o),
(93,200,c),
(98,200,o),
(100,202,o),
(99,207,c),
(99,208,o),
(98,209,o),
(98,210,c),
(99,220,o),
(95,225,o),
(85,228,c),
(70,232,o),
(56,239,o),
(44,249,c),
(23,267,o),
(19,291,o),
(32,314,c),
(37,323,o),
(44,330,o),
(51,336,c),
(62,345,o),
(74,353,o),
(87,359,c),
(93,362,o),
(97,366,o),
(97,374,c),
(98,388,o),
(100,403,o),
(103,417,c),
(104,421,o),
(105,425,o),
(108,428,c),
(115,438,o),
(127,437,o),
(132,427,c),
(136,420,o),
(136,412,o),
(137,405,c),
(137,398,o),
(137,392,o),
(137,385,c),
(137,380,o),
(137,377,o),
(144,378,c),
(150,378,o),
(156,377,o),
(162,375,c),
(184,367,o),
(196,347,o),
(193,324,c),
(191,312,o),
(186,301,o),
(180,291,c),
(174,283,o),
(166,282,o),
(161,287,c),
(157,291,o),
(156,296,o),
(158,301,c),
(160,307,o),
(160,313,o),
(160,319,c),
(159,328,o),
(156,330,o),
(147,328,c),
(145,328,o),
(142,327,o),
(140,326,c),
(137,326,o),
(135,324,o),
(134,320,c),
(134,315,o),
(133,309,o),
(133,304,c),
(133,304,o),
(133,304,o),
(134,304,c)
);
}
);
width = 251;
}
);
unicode = 36;
},
{
glyphname = euro;
lastChange = "2022-08-31 05:21:16 +0000";
layers = (
{
layerId = m01;
shapes = (
{
closed = 1;
nodes = (
(112,326,o),
(115,328,o),
(119,328,c),
(130,330,o),
(141,331,o),
(152,330,c),
(157,329,o),
(164,328,o),
(166,322,c),
(169,316,o),
(169,310,o),
(164,305,c),
(160,301,o),
(155,296,o),
(148,299,c),
(144,301,o),
(141,300,o),
(138,299,c),
(127,294,o),
(115,290,o),
(104,286,c),
(98,284,o),
(96,281,o),
(96,275,c),
(96,266,o),
(96,258,o),
(96,248,c),
(107,249,o),
(118,252,o),
(128,255,c),
(137,257,o),
(147,258,o),
(156,260,c),
(162,261,o),
(167,258,o),
(169,253,c),
(171,247,o),
(168,243,o),
(164,240,c),
(154,233,o),
(143,230,o),
(132,226,c),
(123,224,o),
(115,221,o),
(106,218,c),
(102,217,o),
(100,215,o),
(102,212,c),
(106,200,o),
(107,188,o),
(113,177,c),
(116,173,o),
(118,169,o),
(121,166,c),
(125,163,o),
(129,161,o),
(134,163,c),
(140,166,o),
(146,169,o),
(150,173,c),
(160,182,o),
(169,192,o),
(175,204,c),
(177,208,o),
(179,212,o),
(178,217,c),
(176,221,o),
(178,224,o),
(182,225,c),
(186,227,o),
(190,225,o),
(192,221,c),
(196,209,o),
(203,197,o),
(199,183,c),
(190,153,o),
(172,132,o),
(143,121,c),
(122,114,o),
(104,119,o),
(88,133,c),
(78,141,o),
(71,152,o),
(65,163,c),
(62,170,o),
(59,177,o),
(57,185,c),
(54,194,o),
(51,202,o),
(44,209,c),
(38,214,o),
(38,221,o),
(43,227,c),
(46,231,o),
(46,236,o),
(46,241,c),
(45,247,o),
(45,254,o),
(45,261,c),
(45,265,o),
(44,267,o),
(39,268,c),
(23,272,o),
(20,285,o),
(32,296,c),
(34,298,o),
(36,301,o),
(39,302,c),
(48,305,o),
(50,312,o),
(52,320,c),
(59,347,o),
(69,373,o),
(86,396,c),
(98,411,o),
(113,423,o),
(131,430,c),
(151,437,o),
(176,427,o),
(185,408,c),
(186,406,o),
(187,404,o),
(187,402,c),
(188,394,o),
(183,389,o),
(175,390,c),
(173,391,o),
(171,392,o),
(169,393,c),
(157,399,o),
(147,395,o),
(139,386,c),
(124,369,o),
(113,350,o),
(107,328,c)
);
}
);
width = 225;
}
);
unicode = 8364;
},
{
glyphname = sterling;
lastChange = "2022-08-31 05:21:16 +0000";
layers = (
{
layerId = m01;
shapes = (
{
closed = 1;
nodes = (
(119,211,o),
(136,210,o),
(153,208,c),
(158,207,o),
(163,207,o),
(167,204,c),
(176,200,o),
(177,189,o),
(170,182,c),
(167,179,o),
(163,177,o),
(159,176,c),
(147,172,o),
(135,168,o),
(123,164,c),
(111,159,o),
(99,154,o),
(90,144,c),
(90,144,o),
(89,143,o),
(88,142,c),
(79,136,o),
(69,134,o),
(63,139,c),
(55,145,o),
(52,152,o),
(55,162,c),
(57,173,o),
(56,183,o),
(55,193,c),
(54,209,o),
(52,225,o),
(51,241,c),
(50,251,o),
(49,251,o),
(40,253,c),
(33,254,o),
(28,257,o),
(26,264,c),
(23,272,o),
(26,277,o),
(32,282,c),
(33,283,o),
(35,285,o),
(37,286,c),
(46,289,o),
(48,295,o),
(47,304,c),
(47,323,o),
(48,342,o),
(54,360,c),
(61,386,o),
(76,405,o),
(104,412,c),
(119,416,o),
(134,413,o),
(145,401,c),
(152,394,o),
(155,386,o),
(154,377,c),
(154,372,o),
(152,368,o),
(147,367,c),
(143,367,o),
(141,370,o),
(140,373,c),
(139,374,o),
(139,375,o),
(138,376,c),
(130,389,o),
(116,390,o),
(106,377,c),
(100,370,o),
(98,360,o),
(97,351,c),
(95,339,o),
(94,326,o),
(94,313,c),
(95,306,o),
(95,306,o),
(103,306,c),
(111,307,o),
(119,307,o),
(126,306,c),
(132,305,o),
(137,304,o),
(141,300,c),
(146,295,o),
(148,287,o),
(146,281,c),
(143,275,o),
(138,274,o),
(128,276,c),
(118,278,o),
(109,274,o),
(99,271,c),
(96,270,o),
(96,267,o),
(97,265,c),
(98,245,o),
(100,225,o),
(101,203,c)
);
}
);
width = 200;
}
);
unicode = 163;
},
{
glyphname = yen;
lastChange = "2022-08-31 05:21:16 +0000";
layers = (
{
layerId = m01;
shapes = (
{
closed = 1;
nodes = (
(149,293,o),
(158,294,o),
(167,296,c),
(174,297,o),
(179,295,o),
(181,290,c),
(183,285,o),
(181,280,o),
(175,276,c),
(167,270,o),
(157,267,o),
(147,264,c),
(124,257,o),
(124,258,o),
(116,235,c),
(115,233,o),
(115,231,o),
(114,228,c),
(123,229,o),
(130,231,o),
(137,233,c),
(141,234,o),
(145,236,o),
(149,237,c),
(155,238,o),
(160,236,o),
(162,231,c),
(165,226,o),
(162,222,o),
(159,218,c),
(151,211,o),
(142,207,o),
(132,203,c),
(123,201,o),
(115,198,o),
(106,196,c),
(101,195,o),
(98,192,o),
(97,187,c),
(95,180,o),
(91,172,o),
(91,164,c),
(91,160,o),
(89,155,o),
(87,151,c),
(85,147,o),
(82,144,o),
(77,144,c),
(72,144,o),
(68,147,o),
(66,151,c),
(65,155,o),
(64,158,o),
(64,162,c),
(64,166,o),
(64,169,o),
(64,172,c),
(64,182,o),
(64,182,o),
(54,183,c),
(50,183,o),
(47,184,o),
(44,185,c),
(37,188,o),
(33,194,o),
(34,202,c),
(34,209,o),
(38,214,o),
(44,217,c),
(50,220,o),
(56,220,o),
(62,220,c),
(68,220,o),
(70,222,o),
(71,228,c),
(71,232,o),
(72,236,o),
(73,240,c),
(67,242,o),
(62,238,o),
(56,239,c),
(48,241,o),
(43,244,o),
(41,252,c),
(38,259,o),
(42,264,o),
(47,268,c),
(55,276,o),
(66,279,o),
(77,281,c),
(80,282,o),
(84,281,o),
(87,284,c),
(85,289,o),
(81,291,o),
(77,294,c),
(55,312,o),
(39,334,o),
(29,361,c),
(26,369,o),
(25,377,o),
(25,385,c),
(25,387,o),
(25,389,o),
(26,391,c),
(27,398,o),
(32,405,o),
(39,406,c),
(46,407,o),
(52,403,o),
(55,397,c),
(62,384,o),
(69,372,o),
(76,359,c),
(83,346,o),
(90,332,o),
(99,318,c),
(104,323,o),
(105,328,o),
(107,333,c),
(116,353,o),
(127,373,o),
(138,392,c),
(140,396,o),
(143,399,o),
(147,402,c),
(155,409,o),
(166,405,o),
(168,395,c),
(169,389,o),
(168,384,o),
(167,379,c),
(162,356,o),
(155,333,o),
(146,311,c),
(144,305,o),
(142,300,o),
(139,291,c)
);
}
);
width = 207;
}
);
unicode = 165;
},
{
glyphname = plus;
lastChange = "2022-08-31 05:12:22 +0000";
layers = (
{
layerId = m01;
shapes = (
{
closed = 1;
nodes = (
(161,302,o),
(171,305,o),
(181,305,c),
(190,305,o),
(199,306,o),
(209,306,c),
(215,307,o),
(221,304,o),
(223,298,c),
(225,291,o),
(221,286,o),
(216,282,c),
(209,277,o),
(200,274,o),
(191,273,c),
(177,270,o),
(162,265,o),
(148,263,c),
(141,262,o),
(139,258,o),
(137,252,c),
(132,232,o),
(127,212,o),
(122,192,c),
(119,181,o),
(115,170,o),
(109,161,c),
(107,158,o),
(105,154,o),
(102,152,c),
(98,148,o),
(93,147,o),
(88,149,c),
(82,152,o),
(79,157,o),
(79,163,c),
(79,166,o),
(80,170,o),
(81,174,c),
(87,195,o),
(87,217,o),
(91,238,c),
(92,246,o),
(89,248,o),
(82,246,c),
(72,242,o),
(62,241,o),
(51,241,c),
(38,242,o),
(28,250,o),
(26,262,c),
(23,273,o),
(30,284,o),
(42,290,c),
(57,296,o),
(74,297,o),
(91,298,c),
(98,298,o),
(101,300,o),
(102,307,c),
(105,323,o),
(108,338,o),
(111,354,c),
(113,361,o),
(115,367,o),
(118,373,c),
(124,384,o),
(132,389,o),
(142,388,c),
(151,386,o),
(159,378,o),
(161,367,c),
(162,357,o),
(162,348,o),
(159,339,c),
(156,327,o),
(154,316,o),
(151,304,c)
);
}
);
width = 249;
}
);
unicode = 43;
},
{
glyphname = minus;
lastChange = "2022-08-31 05:12:22 +0000";
layers = (
{
layerId = m01;
shapes = (
{
closed = 1;
nodes = (
(112,292,o),
(130,293,o),
(147,289,c),
(158,286,o),
(168,282,o),
(176,275,c),
(182,271,o),
(184,264,o),
(181,257,c),
(178,251,o),
(173,247,o),
(166,247,c),
(165,247,o),
(163,247,o),
(162,248,c),
(132,253,o),
(103,249,o),
(73,246,c),
(69,245,o),
(65,244,o),
(61,243,c),
(51,241,o),
(42,242,o),
(33,249,c),
(25,257,o),
(23,266,o),
(26,275,c),
(29,284,o),
(36,290,o),
(46,291,c),
(56,293,o),
(68,294,o),
(79,294,c),
(84,294,o),
(89,294,o),
(96,294,c)
);
}
);
width = 207;
}
);
unicode = 8722;
},
{
glyphname = multiply;
lastChange = "2022-08-31 05:12:22 +0000";
layers = (
{
layerId = m01;
shapes = (
{
closed = 1;
nodes = (
(87,374,o),
(98,367,o),
(102,355,c),
(105,340,o),
(114,329,o),
(120,315,c),
(122,309,o),
(124,309,o),
(129,314,c),
(142,328,o),
(155,342,o),
(168,356,c),
(172,359,o),
(176,363,o),
(180,366,c),
(184,370,o),
(189,369,o),
(194,366,c),
(199,362,o),
(198,357,o),
(196,352,c),
(195,350,o),
(193,348,o),
(192,346,c),
(176,325,o),
(161,305,o),
(145,285,c),
(141,279,o),
(142,275,o),
(146,271,c),
(155,262,o),
(163,253,o),
(173,245,c),
(176,242,o),
(179,239,o),
(184,239,c),
(190,238,o),
(193,234,o),
(194,228,c),
(194,221,o),
(189,215,o),
(183,213,c),
(177,211,o),
(171,213,o),
(165,216,c),
(152,222,o),
(141,230,o),
(129,238,c),
(118,245,o),
(118,245,o),
(111,235,c),
(97,215,o),
(83,196,o),
(67,178,c),
(64,174,o),
(60,169,o),
(56,166,c),
(50,162,o),
(43,160,o),
(36,164,c),
(29,168,o),
(25,174,o),
(25,183,c),
(26,194,o),
(32,204,o),
(38,212,c),
(51,229,o),
(64,245,o),
(78,261,c),
(86,269,o),
(86,270,o),
(78,278,c),
(62,294,o),
(52,314,o),
(48,336,c),
(44,353,o),
(54,369,o),
(69,373,c),
(72,373,o),
(74,374,o),
(75,374,c)
);
}
);
width = 223;
}
);
unicode = 215;
},
{
glyphname = divide;
lastChange = "2022-08-31 05:12:22 +0000";
layers = (
{
layerId = m01;
shapes = (
{
closed = 1;
nodes = (
(230,295,o),
(228,290,o),
(222,284,c),
(215,279,o),
(207,276,o),
(199,274,c),
(167,265,o),
(134,259,o),
(102,253,c),
(91,251,o),
(80,248,o),
(69,247,c),
(62,245,o),
(54,245,o),
(46,247,c),
(33,251,o),
(25,259,o),
(25,271,c),
(24,282,o),
(32,292,o),
(45,297,c),
(55,300,o),
(66,300,o),
(77,301,c),
(82,301,o),
(87,301,o),
(92,301,c),
(92,300,o),
(92,300,o),
(92,300,c),
(131,303,o),
(169,307,o),
(208,310,c),
(209,310,o),
(210,311,o),
(212,311,c),
(220,311,o),
(225,308,o),
(228,301,c)
);
},
{
closed = 1;
nodes = (
(120,229,o),
(124,226,o),
(127,222,c),
(130,215,o),
(133,207,o),
(134,200,c),
(133,185,o),
(122,173,o),
(108,171,c),
(96,169,o),
(83,179,o),
(79,193,c),
(76,206,o),
(84,220,o),
(96,225,c),
(102,227,o),
(109,227,o),
(115,228,c)
);
},
{
closed = 1;
nodes = (
(93,316,o),
(80,329,o),
(81,343,c),
(81,355,o),
(92,366,o),
(104,365,c),
(119,364,o),
(128,354,o),
(129,335,c),
(129,324,o),
(119,316,o),
(107,316,c)
);
}
);
width = 254;
}
);
unicode = 247;
},
{
glyphname = equal;
lastChange = "2022-08-31 05:12:22 +0000";
layers = (
{
layerId = m01;
shapes = (
{
closed = 1;
nodes = (
(189,245,o),
(191,239,o),
(188,234,c),
(185,229,o),
(181,227,o),
(175,226,c),
(148,224,o),
(121,218,o),
(94,211,c),
(83,208,o),
(71,204,o),
(59,204,c),
(43,203,o),
(36,209,o),
(32,219,c),
(28,229,o),
(35,244,o),
(46,250,c),
(60,257,o),
(74,262,o),
(90,261,c),
(99,260,o),
(108,261,o),
(117,261,c),
(135,260,o),
(152,261,o),
(170,259,c),
(176,258,o),
(182,255,o),
(186,249,c)
);
},
{
closed = 1;
nodes = (
(39,277,o),
(32,279,o),
(27,287,c),
(23,292,o),
(25,302,o),
(30,309,c),
(36,316,o),
(43,322,o),
(52,325,c),
(74,333,o),
(97,332,o),
(124,332,c),
(135,332,o),
(151,332,o),
(166,330,c),
(171,330,o),
(176,328,o),
(180,325,c),
(185,323,o),
(188,318,o),
(187,313,c),
(186,307,o),
(183,304,o),
(177,304,c),
(169,302,o),
(161,301,o),
(152,299,c),
(129,297,o),
(107,293,o),
(85,286,c),
(73,282,o),
(61,281,o),
(48,278,c)
);
}
);
width = 214;
}
);
unicode = 61;
},
{
glyphname = greater;
lastChange = "2022-08-31 05:12:22 +0000";
layers = (
{
layerId = m01;
shapes = (
{
closed = 1;
nodes = (
(175,288,o),
(166,293,o),
(156,297,c),
(119,313,o),
(84,334,o),
(50,356,c),
(42,362,o),
(35,369,o),
(29,378,c),
(22,390,o),
(26,407,o),
(36,415,c),
(45,422,o),
(60,423,o),
(70,414,c),
(86,401,o),
(104,392,o),
(122,384,c),
(160,366,o),
(194,343,o),
(228,319,c),
(250,303,o),
(254,283,o),
(238,261,c),
(227,246,o),
(215,234,o),
(201,224,c),
(168,199,o),
(131,179,o),
(96,158,c),
(88,153,o),
(79,147,o),
(71,142,c),
(68,140,o),
(64,139,o),
(61,137,c),
(56,134,o),
(52,136,o),
(48,139,c),
(44,143,o),
(45,148,o),
(48,152,c),
(50,156,o),
(53,160,o),
(56,163,c),
(67,173,o),
(78,183,o),
(90,192,c),
(121,217,o),
(150,243,o),
(177,272,c),
(180,275,o),
(183,278,o),
(186,283,c)
);
}
);
width = 273;
}
);
unicode = 62;
},
{
glyphname = less;
lastChange = "2022-08-31 05:12:22 +0000";
layers = (
{
layerId = m01;
shapes = (
{
closed = 1;
nodes = (
(115,247,o),
(124,241,o),
(133,235,c),
(152,224,o),
(170,212,o),
(186,197,c),
(202,181,o),
(220,166,o),
(242,157,c),
(250,154,o),
(252,145,o),
(246,138,c),
(241,131,o),
(233,129,o),
(225,131,c),
(216,132,o),
(208,135,o),
(200,138,c),
(179,146,o),
(157,152,o),
(137,161,c),
(121,168,o),
(108,178,o),
(94,186,c),
(78,195,o),
(62,205,o),
(46,214,c),
(20,228,o),
(19,257,o),
(41,275,c),
(77,305,o),
(113,335,o),
(146,370,c),
(158,383,o),
(171,395,o),
(184,408,c),
(189,413,o),
(195,418,o),
(202,422,c),
(210,427,o),
(221,427,o),
(228,421,c),
(236,415,o),
(239,406,o),
(235,396,c),
(229,382,o),
(220,370,o),
(211,358,c),
(180,319,o),
(143,287,o),
(104,253,c)
);
}
);
width = 274;
}
);
unicode = 60;
},
{
glyphname = plusminus;
lastChange = "2022-08-31 05:21:16 +0000";
layers = (
{
layerId = m01;
shapes = (
{
closed = 1;
nodes = (
(221,329,o),
(225,325,o),
(225,319,c),
(225,313,o),
(219,309,o),
(212,309,c),
(188,312,o),
(166,303,o),
(143,300,c),
(137,299,o),
(135,297,o),
(136,291,c),
(136,286,o),
(136,282,o),
(137,277,c),
(137,262,o),
(138,248,o),
(141,234,c),
(142,226,o),
(140,221,o),
(134,219,c),
(128,216,o),
(122,218,o),
(118,223,c),
(112,229,o),
(108,236,o),
(107,244,c),
(104,258,o),
(99,271,o),
(98,285,c),
(97,291,o),
(96,294,o),
(89,292,c),
(79,290,o),
(70,289,o),
(60,287,c),
(54,286,o),
(47,286,o),
(41,287,c),
(33,287,o),
(27,292,o),
(26,299,c),
(24,306,o),
(27,312,o),
(32,316,c),
(36,319,o),
(41,321,o),
(46,323,c),
(58,327,o),
(70,329,o),
(82,331,c),
(88,332,o),
(91,335,o),
(90,341,c),
(89,353,o),
(89,364,o),
(92,375,c),
(94,383,o),
(96,389,o),
(101,395,c),
(107,404,o),
(116,407,o),
(126,404,c),
(136,402,o),
(141,394,o),
(141,383,c),
(141,371,o),
(140,359,o),
(139,347,c),
(138,338,o),
(138,338,o),
(147,338,c),
(164,338,o),
(180,337,o),
(197,335,c),
(203,335,o),
(210,334,o),
(216,331,c)
);
},
{
closed = 1;
nodes = (
(186,189,o),
(193,185,o),
(197,178,c),
(200,175,o),
(200,171,o),
(198,168,c),
(195,164,o),
(192,163,o),
(188,164,c),
(162,170,o),
(138,164,o),
(113,158,c),
(99,154,o),
(86,149,o),
(71,147,c),
(67,147,o),
(63,146,o),
(59,147,c),
(51,149,o),
(46,154,o),
(44,161,c),
(42,169,o),
(45,176,o),
(51,181,c),
(55,183,o),
(59,185,o),
(64,186,c),
(76,189,o),
(87,191,o),
(99,192,c),
(115,192,o),
(132,192,o),
(148,192,c),
(148,192,o),
(148,193,o),
(148,193,c),
(158,192,o),
(168,192,o),
(178,190,c)
);
}
);
width = 250;
}
);
unicode = 177;
},
{
glyphname = asciitilde;
lastChange = "2022-08-31 05:12:22 +0000";
layers = (
{
layerId = m01;
shapes = (
{
closed = 1;
nodes = (
(167,214,o),
(137,227,o),
(112,250,c),
(105,256,o),
(99,263,o),
(93,270,c),
(87,277,o),
(86,277,o),
(81,271,c),
(73,263,o),
(67,254,o),
(63,244,c),
(61,239,o),
(61,235,o),
(62,230,c),
(63,219,o),
(59,212,o),
(51,210,c),
(41,207,o),
(32,211,o),
(28,221,c),
(23,235,o),
(25,248,o),
(30,261,c),
(36,280,o),
(46,296,o),
(60,311,c),
(75,326,o),
(95,331,o),
(112,324,c),
(123,319,o),
(133,311,o),
(142,301,c),
(154,290,o),
(166,280,o),
(181,274,c),
(184,273,o),
(187,271,o),
(190,271,c),
(211,265,o),
(218,268,o),
(222,293,c),
(224,300,o),
(225,306,o),
(232,310,c),
(241,314,o),
(251,311,o),
(256,301,c),
(275,259,o),
(261,217,o),
(210,215,c),
(207,214,o),
(204,215,o),
(201,215,c)
);
}
);
width = 289;
}
);
unicode = 126;
},
{
glyphname = asciicircum;
lastChange = "2022-08-31 05:21:16 +0000";
layers = (
{
layerId = m01;
shapes = (
{
closed = 1;
nodes = (
(83,424,o),
(75,405,o),
(67,387,c),
(64,381,o),
(62,375,o),
(58,369,c),
(53,361,o),
(45,358,o),
(38,360,c),
(29,362,o),
(25,370,o),
(25,380,c),
(26,383,o),
(27,387,o),
(28,390,c),
(39,427,o),
(54,463,o),
(69,498,c),
(80,523,o),
(108,526,o),
(125,504,c),
(134,493,o),
(139,479,o),
(143,465,c),
(148,443,o),
(154,421,o),
(161,399,c),
(164,387,o),
(169,376,o),
(173,365,c),
(173,363,o),
(174,360,o),
(175,358,c),
(176,348,o),
(169,341,o),
(159,343,c),
(151,344,o),
(146,349,o),
(141,355,c),
(134,365,o),
(129,376,o),
(124,386,c),
(115,403,o),
(106,420,o),
(98,436,c),
(96,438,o),
(96,441,o),
(91,443,c)
);
}
);
width = 200;
}
);
unicode = 94;
},
{
glyphname = percent;
lastChange = "2022-08-31 05:12:22 +0000";
layers = (
{
layerId = m01;
shapes = (
{
closed = 1;
nodes = (
(318,436,o),
(315,428,o),
(312,420,c),
(299,382,o),
(280,347,o),
(261,312,c),
(228,251,o),
(187,195,o),
(147,139,c),
(132,118,o),
(118,96,o),
(101,76,c),
(97,72,o),
(93,67,o),
(89,63,c),
(80,55,o),
(71,54,o),
(63,60,c),
(56,66,o),
(54,75,o),
(58,85,c),
(60,90,o),
(62,94,o),
(64,98,c),
(91,145,o),
(118,193,o),
(146,240,c),
(163,270,o),
(182,300,o),
(199,330,c),
(211,350,o),
(221,370,o),
(232,390,c),
(242,410,o),
(253,430,o),
(263,451,c),
(265,456,o),
(268,461,o),
(272,465,c),
(281,474,o),
(293,476,o),
(303,472,c),
(313,467,o),
(319,458,o),
(318,442,c)
);
},
{
closed = 1;
nodes = (
(81,351,o),
(81,349,o),
(81,347,c),
(81,337,o),
(84,336,o),
(92,342,c),
(107,352,o),
(118,365,o),
(124,383,c),
(128,396,o),
(123,405,o),
(110,409,c),
(104,411,o),
(101,411,o),
(97,405,c),
(86,390,o),
(82,372,o),
(81,356,c)
);
},
{
closed = 1;
nodes = (
(55,280,o),
(41,291,o),
(32,308,c),
(24,323,o),
(23,339,o),
(27,356,c),
(32,380,o),
(42,402,o),
(62,419,c),
(65,421,o),
(67,424,o),
(68,427,c),
(71,439,o),
(79,445,o),
(90,448,c),
(112,454,o),
(134,451,o),
(153,437,c),
(169,424,o),
(175,406,o),
(173,386,c),
(171,356,o),
(154,332,o),
(134,311,c),
(125,301,o),
(115,293,o),
(103,287,c),
(94,283,o),
(85,280,o),
(77,281,c)
);
},
{
closed = 1;
nodes = (
(302,180,o),
(294,155,o),
(298,128,c),
(312,144,o),
(320,163,o),
(323,183,c),
(324,192,o),
(320,200,o),
(311,205,c)
);
},
{
closed = 1;
nodes = (
(338,241,o),
(375,212,o),
(368,170,c),
(364,148,o),
(353,128,o),
(340,109,c),
(333,99,o),
(326,90,o),
(315,82,c),
(289,64,o),
(261,70,o),
(247,99,c),
(237,120,o),
(238,142,o),
(242,164,c),
(246,182,o),
(252,198,o),
(264,212,c),
(268,216,o),
(270,221,o),
(273,225,c),
(281,238,o),
(293,242,o),
(305,243,c)
);
}
);
width = 394;
}
);
unicode = 37;
},
{
glyphname = perthousand;
lastChange = "2022-08-31 05:21:16 +0000";
layers = (
{
layerId = m01;
shapes = (
{
closed = 1;
nodes = (
(274,431,o),
(269,419,o),
(265,407,c),
(243,355,o),
(217,306,o),
(189,258,c),
(160,207,o),
(136,153,o),
(115,99,c),
(112,92,o),
(110,86,o),
(110,78,c),
(111,71,o),
(108,66,o),
(101,64,c),
(95,62,o),
(89,64,o),
(85,69,c),
(80,73,o),
(78,79,o),
(77,86,c),
(76,96,o),
(77,106,o),
(80,116,c),
(93,161,o),
(108,204,o),
(124,247,c),
(142,292,o),
(161,336,o),
(183,379,c),
(193,400,o),
(205,420,o),
(215,441,c),
(219,449,o),
(223,457,o),
(229,463,c),
(238,472,o),
(249,475,o),
(260,470,c),
(269,466,o),
(275,455,o),
(275,444,c)
);
},
{
closed = 1;
nodes = (
(79,388,o),
(77,369,o),
(77,348,c),
(87,351,o),
(94,357,o),
(98,364,c),
(111,382,o),
(110,390,o),
(93,404,c),
(92,404,o),
(91,404,o),
(90,405,c)
);
},
{
closed = 1;
nodes = (
(138,340,o),
(118,314,o),
(84,301,c),
(59,291,o),
(29,305,o),
(25,339,c),
(25,342,o),
(25,344,o),
(25,347,c),
(27,373,o),
(36,396,o),
(58,413,c),
(61,415,o),
(63,418,o),
(64,422,c),
(67,435,o),
(75,440,o),
(88,439,c),
(111,438,o),
(138,418,o),
(146,396,c),
(148,389,o),
(149,382,o),
(147,375,c)
);
},
{
closed = 1;
nodes = (
(366,199,o),
(362,206,o),
(356,211,c),
(354,213,o),
(352,214,o),
(349,213,c),
(347,212,o),
(346,210,o),
(346,207,c),
(346,201,o),
(346,194,o),
(346,188,c),
(346,179,o),
(344,169,o),
(349,159,c),
(359,168,o),
(363,178,o),
(365,190,c)
);
},
{
closed = 1;
nodes = (
(411,204,o),
(411,190,o),
(406,177,c),
(397,155,o),
(383,135,o),
(364,121,c),
(344,107,o),
(323,108,o),
(308,132,c),
(302,142,o),
(300,154,o),
(300,168,c),
(301,187,o),
(305,207,o),
(320,222,c),
(323,225,o),
(325,229,o),
(326,232,c),
(335,249,o),
(349,255,o),
(366,249,c),
(382,243,o),
(395,232,o),
(404,217,c)
);
},
{
closed = 1;
nodes = (
(266,167,o),
(262,188,o),
(244,203,c),
(243,186,o),
(239,172,o),
(246,157,c)
);
},
{
closed = 1;
nodes = (
(294,201,o),
(297,192,o),
(297,179,c),
(298,152,o),
(274,126,o),
(249,119,c),
(228,114,o),
(205,130,o),
(199,153,c),
(194,172,o),
(199,190,o),
(210,206,c),
(213,211,o),
(214,215,o),
(213,221,c),
(211,238,o),
(225,250,o),
(242,244,c),
(260,237,o),
(274,226,o),
(287,211,c)
);
}
);
width = 435;
}
);
unicode = 8240;
},
{
glyphname = dieresiscomb;
lastChange = "2022-08-31 05:32:11 +0000";
layers = (
{
anchors = (
{
name = _top;
pos = (63,374);
},
{
name = top;
pos = (64,375);
}
);
layerId = m01;
shapes = (
{
closed = 1;
nodes = (
(117,445,o),
(107,435,o),
(96,435,c),
(85,436,o),
(76,445,o),
(76,457,c),
(77,468,o),
(86,477,o),
(97,477,c),
(108,477,o),
(118,467,o),
(117,455,c)
);
},
{
closed = 1;
nodes = (
(34,438,o),
(26,445,o),
(25,455,c),
(25,465,o),
(32,473,o),
(42,474,c),
(51,475,o),
(60,467,o),
(61,457,c),
(61,447,o),
(53,439,o),
(44,438,c)
);
}
);
width = 142;
}
);
unicode = 776;
},
{
glyphname = dotaccentcomb;
lastChange = "2022-08-31 05:32:02 +0000";
layers = (
{
anchors = (
{
name = _top;
pos = (44,384);
},
{
name = top;
pos = (46,383);
}
);
layerId = m01;
shapes = (
{
closed = 1;
nodes = (
(34,434,o),
(26,443,o),
(25,454,c),
(25,466,o),
(35,478,o),
(47,478,c),
(59,478,o),
(65,471,o),
(66,455,c),
(66,445,o),
(55,435,o),
(45,435,c)
);
}
);
width = 91;
}
);
unicode = 775;
},
{
glyphname = gravecomb;
lastChange = "2022-08-31 05:31:50 +0000";
layers = (
{
anchors = (
{
name = _top;
pos = (56,379);
},
{
name = top;
pos = (58,381);
}
);
layerId = m01;
shapes = (
{
closed = 1;
nodes = (
(25,509,o),
(35,516,o),
(47,510,c),
(50,508,o),
(53,505,o),
(56,502,c),
(64,493,o),
(68,482,o),
(73,472,c),
(80,454,o),
(88,436,o),
(96,419,c),
(97,417,o),
(98,415,o),
(99,413,c),
(100,409,o),
(99,406,o),
(96,403,c),
(93,400,o),
(89,400,o),
(85,401,c),
(79,403,o),
(75,407,o),
(72,412,c),
(64,424,o),
(56,435,o),
(50,447,c),
(43,457,o),
(36,467,o),
(30,478,c),
(28,484,o),
(26,490,o),
(25,495,c)
);
}
);
width = 124;
}
);
unicode = 768;
},
{
glyphname = acutecomb;
lastChange = "2022-08-31 05:31:41 +0000";
layers = (
{
anchors = (
{
name = _top;
pos = (67,379);
},
{
name = top;
pos = (61,377);
}
);
layerId = m01;
shapes = (
{
closed = 1;
nodes = (
(29,400,o),
(23,409,o),
(25,418,c),
(26,420,o),
(27,421,o),
(27,423,c),
(45,454,o),
(66,482,o),
(92,507,c),
(94,509,o),
(96,510,o),
(98,511,c),
(104,514,o),
(110,510,o),
(110,504,c),
(109,501,o),
(108,498,o),
(107,495,c),
(92,467,o),
(78,438,o),
(58,413,c),
(53,407,o),
(47,401,o),
(39,400,c)
);
}
);
width = 135;
}
);
unicode = 769;
},
{
glyphname = hungarumlautcomb;
lastChange = "2022-08-31 05:31:30 +0000";
layers = (
{
anchors = (
{
name = _top;
pos = (73,374);
},
{
name = top;
pos = (73,371);
}
);
layerId = m01;
shapes = (
{
closed = 1;
nodes = (
(73,485,o),
(72,479,o),
(69,473,c),
(63,456,o),
(57,440,o),
(51,424,c),
(49,418,o),
(47,413,o),
(42,409,c),
(39,406,o),
(34,404,o),
(30,408,c),
(25,410,o),
(24,414,o),
(25,419,c),
(31,443,o),
(37,467,o),
(44,492,c),
(44,495,o),
(46,498,o),
(49,501,c),
(53,506,o),
(59,508,o),
(64,505,c),
(71,503,o),
(73,498,o),
(73,494,c)
);
},
{
closed = 1;
nodes = (
(116,477,o),
(111,466,o),
(105,457,c),
(97,443,o),
(89,430,o),
(81,418,c),
(79,415,o),
(77,413,o),
(75,411,c),
(72,408,o),
(69,406,o),
(65,409,c),
(61,411,o),
(60,415,o),
(61,419,c),
(62,423,o),
(63,427,o),
(65,431,c),
(72,449,o),
(80,468,o),
(86,487,c),
(87,491,o),
(89,494,o),
(91,497,c),
(96,504,o),
(101,506,o),
(107,504,c),
(112,502,o),
(117,495,o),
(117,489,c)
);
}
);
width = 142;
}
);
unicode = 779;
},
{
glyphname = caroncomb.alt;
lastChange = "2022-08-31 05:31:12 +0000";
layers = (
{
anchors = (
{
name = _topright;
pos = (51,358);
}
);
layerId = m01;
shapes = (
{
closed = 1;
nodes = (
(29,400,o),
(23,409,o),
(25,418,c),
(26,420,o),
(27,421,o),
(27,423,c),
(45,454,o),
(66,482,o),
(92,507,c),
(94,509,o),
(96,510,o),
(98,511,c),
(104,514,o),
(110,510,o),
(110,504,c),
(109,501,o),
(108,498,o),
(107,495,c),
(92,467,o),
(78,438,o),
(58,413,c),
(53,407,o),
(47,401,o),
(39,400,c)
);
}
);
width = 135;
}
);
},
{
glyphname = circumflexcomb;
lastChange = "2022-08-31 05:31:06 +0000";
layers = (
{
anchors = (
{
name = _top;
pos = (89,357);
},
{
name = top;
pos = (85,359);
}
);
layerId = m01;
shapes = (
{
closed = 1;
nodes = (
(78,456,o),
(75,444,o),
(69,433,c),
(65,426,o),
(62,419,o),
(58,412,c),
(53,402,o),
(46,399,o),
(37,401,c),
(29,403,o),
(25,411,o),
(25,421,c),
(26,426,o),
(27,431,o),
(29,435,c),
(37,459,o),
(46,483,o),
(57,506,c),
(62,517,o),
(70,525,o),
(83,526,c),
(96,526,o),
(106,519,o),
(112,508,c),
(119,497,o),
(124,485,o),
(127,472,c),
(132,449,o),
(136,426,o),
(141,403,c),
(141,401,o),
(142,400,o),
(142,398,c),
(143,394,o),
(142,390,o),
(138,388,c),
(134,386,o),
(131,386,o),
(127,388,c),
(122,392,o),
(120,397,o),
(118,402,c),
(110,421,o),
(101,439,o),
(92,457,c),
(90,460,o),
(89,464,o),
(86,466,c)
);
}
);
width = 167;
}
);
unicode = 770;
},
{
glyphname = caroncomb;
lastChange = "2022-08-31 05:30:58 +0000";
layers = (
{
anchors = (
{
name = _top;
pos = (80,358);
},
{
name = top;
pos = (82,360);
}
);
layerId = m01;
shapes = (
{
closed = 1;
nodes = (
(86,450,o),
(89,458,o),
(92,466,c),
(98,484,o),
(111,497,o),
(124,511,c),
(126,513,o),
(129,514,o),
(132,513,c),
(135,512,o),
(137,509,o),
(137,505,c),
(137,503,o),
(137,501,o),
(136,499,c),
(126,475,o),
(122,450,o),
(112,426,c),
(109,418,o),
(106,409,o),
(100,402,c),
(86,385,o),
(66,386,o),
(56,406,c),
(46,429,o),
(38,452,o),
(31,476,c),
(30,481,o),
(28,486,o),
(27,491,c),
(25,496,o),
(25,502,o),
(25,507,c),
(26,515,o),
(32,521,o),
(39,522,c),
(45,523,o),
(50,520,o),
(54,512,c),
(60,498,o),
(65,483,o),
(70,468,c),
(74,460,o),
(76,451,o),
(80,441,c)
);
}
);
width = 162;
}
);
unicode = 780;
},
{
glyphname = brevecomb;
lastChange = "2022-08-31 05:32:22 +0000";
layers = (
{
anchors = (
{
name = _top;
pos = (66,372);
},
{
name = top;
pos = (61,370);
}
);
layerId = m01;
shapes = (
{
closed = 1;
nodes = (
(97,487,o),
(98,488,o),
(101,487,c),
(103,486,o),
(104,484,o),
(104,481,c),
(104,479,o),
(105,414,o),
(65,414,c),
(32,414,o),
(25,479,o),
(25,483,c),
(26,489,o),
(32,494,o),
(36,495,c),
(41,496,o),
(44,494,o),
(47,487,c),
(48,481,o),
(50,450,o),
(66,450,c),
(91,450,o),
(90,479,o),
(95,485,c)
);
}
);
width = 129;
}
);
unicode = 774;
},
{
glyphname = ringcomb;
lastChange = "2022-08-31 05:32:27 +0000";
layers = (
{
anchors = (
{
name = _top;
pos = (81,377);
},
{
name = top;
pos = (80,371);
}
);
layerId = m01;
shapes = (
{
closed = 1;
nodes = (
(62,446,o),
(69,442,o),
(82,448,c),
(83,448,o),
(84,449,o),
(85,449,c),
(101,458,o),
(101,463,o),
(87,473,c),
(81,477,o),
(75,482,o),
(68,479,c),
(62,475,o),
(63,467,o),
(62,461,c)
);
},
{
closed = 1;
nodes = (
(27,469,o),
(31,485,o),
(44,498,c),
(49,503,o),
(54,505,o),
(60,504,c),
(68,502,o),
(75,502,o),
(83,502,c),
(96,501,o),
(108,496,o),
(117,487,c),
(133,471,o),
(132,454,o),
(117,437,c),
(107,426,o),
(96,418,o),
(83,412,c),
(64,405,o),
(46,408,o),
(33,423,c),
(26,431,o),
(25,441,o),
(25,451,c)
);
}
);
width = 154;
}
);
unicode = 778;
},
{
glyphname = tildecomb;
lastChange = "2022-08-31 05:32:36 +0000";
layers = (
{
anchors = (
{
name = _top;
pos = (112,380);
},
{
name = top;
pos = (109,378);
}
);
layerId = m01;
shapes = (
{
closed = 1;
nodes = (
(124,421,o),
(107,428,o),
(95,443,c),
(91,447,o),
(87,452,o),
(84,457,c),
(78,464,o),
(75,465,o),
(68,459,c),
(59,451,o),
(52,442,o),
(48,431,c),
(48,430,o),
(47,430,o),
(47,429,c),
(44,420,o),
(40,417,o),
(34,418,c),
(28,419,o),
(24,426,o),
(25,434,c),
(25,436,o),
(25,438,o),
(26,440,c),
(34,461,o),
(47,478,o),
(67,489,c),
(81,498,o),
(97,493,o),
(109,478,c),
(113,472,o),
(118,465,o),
(124,460,c),
(132,452,o),
(142,450,o),
(153,451,c),
(166,453,o),
(174,467,o),
(170,479,c),
(170,480,o),
(169,480,o),
(169,480,c),
(166,485,o),
(164,489,o),
(169,493,c),
(174,497,o),
(179,494,o),
(183,491,c),
(192,483,o),
(203,462,o),
(197,447,c),
(193,439,o),
(188,432,o),
(180,428,c),
(168,423,o),
(156,420,o),
(143,420,c)
);
}
);
width = 224;
}
);
unicode = 771;
},
{
glyphname = macroncomb;
lastChange = "2022-08-31 05:32:42 +0000";
layers = (
{
anchors = (
{
name = _top;
pos = (95,383);
},
{
name = top;
pos = (96,389);
}
);
layerId = m01;
shapes = (
{
closed = 1;
nodes = (
(63,435,o),
(51,434,o),
(40,437,c),
(30,439,o),
(25,445,o),
(25,453,c),
(24,462,o),
(29,467,o),
(39,469,c),
(42,470,o),
(45,470,o),
(47,470,c),
(69,469,o),
(90,474,o),
(112,477,c),
(118,478,o),
(124,478,o),
(131,478,c),
(141,477,o),
(148,470,o),
(149,461,c),
(150,453,o),
(144,444,o),
(135,440,c),
(131,439,o),
(128,438,o),
(124,438,c),
(107,437,o),
(91,435,o),
(75,434,c)
);
}
);
width = 174;
}
);
unicode = 772;
},
{
glyphname = commaturnedabovecomb;
lastChange = "2022-08-31 05:32:50 +0000";
layers = (
{
anchors = (
{
name = _top;
pos = (47,383);
},
{
name = top;
pos = (47,381);
}
);
layerId = m01;
shapes = (
{
closed = 1;
nodes = (
(25,450,o),
(46,488,o),
(58,496,c),
(63,498,o),
(68,502,o),
(73,497,c),
(77,492,o),
(75,487,o),
(71,483,c),
(64,473,o),
(63,461,o),
(61,449,c),
(60,444,o),
(60,439,o),
(59,434,c),
(59,431,o),
(58,428,o),
(57,425,c),
(54,417,o),
(48,412,o),
(41,413,c),
(34,413,o),
(27,421,o),
(26,429,c),
(25,431,o),
(25,433,o),
(25,434,c)
);
}
);
width = 100;
}
);
unicode = 786;
},
{
glyphname = commaaccentcomb;
lastChange = "2022-08-31 05:33:14 +0000";
layers = (
{
anchors = (
{
name = _bottom;
pos = (85,148);
},
{
name = bottom;
pos = (88,148);
}
);
layerId = m01;
shapes = (
{
closed = 1;
nodes = (
(29,11,o),
(23,19,o),
(25,28,c),
(26,30,o),
(27,31,o),
(27,33,c),
(45,64,o),
(66,92,o),
(92,117,c),
(94,119,o),
(96,120,o),
(98,121,c),
(104,124,o),
(110,120,o),
(110,114,c),
(109,111,o),
(109,108,o),
(107,105,c),
(92,77,o),
(78,48,o),
(58,23,c),
(53,17,o),
(47,11,o),
(39,10,c)
);
}
);
width = 135;
}
);
unicode = 806;
},
{
glyphname = cedillacomb;
lastChange = "2022-08-31 05:33:21 +0000";
layers = (
{
anchors = (
{
name = _bottom;
pos = (59,133);
},
{
name = bottom;
pos = (58,131);
}
);
layerId = m01;
shapes = (
{
closed = 1;
nodes = (
(55,26,o),
(48,26,o),
(41,27,c),
(37,28,o),
(33,30,o),
(30,33,c),
(26,37,o),
(24,42,o),
(25,48,c),
(27,54,o),
(31,57,o),
(37,58,c),
(50,61,o),
(62,66,o),
(72,75,c),
(78,81,o),
(78,84,o),
(70,87,c),
(66,88,o),
(60,89,o),
(55,90,c),
(46,93,o),
(38,97,o),
(35,108,c),
(33,118,o),
(37,128,o),
(45,136,c),
(53,144,o),
(62,142,o),
(66,131,c),
(68,123,o),
(72,121,o),
(79,119,c),
(98,114,o),
(112,102,o),
(122,85,c),
(130,70,o),
(123,46,o),
(108,36,c),
(97,29,o),
(82,25,o),
(61,25,c)
);
}
);
width = 150;
}
);
unicode = 807;
},
{
glyphname = ogonekcomb;
lastChange = "2022-08-31 05:33:26 +0000";
layers = (
{
anchors = (
{
name = _ogonek;
pos = (83,125);
}
);
layerId = m01;
shapes = (
{
closed = 1;
nodes = (
(24,82,o),
(47,122,o),
(71,130,c),
(77,133,o),
(83,134,o),
(90,132,c),
(101,129,o),
(103,120,o),
(95,112,c),
(84,102,o),
(76,91,o),
(72,76,c),
(72,74,o),
(71,72,o),
(71,70,c),
(69,60,o),
(72,57,o),
(82,60,c),
(97,64,o),
(111,70,o),
(121,83,c),
(124,88,o),
(127,92,o),
(134,89,c),
(139,87,o),
(143,77,o),
(140,72,c),
(137,66,o),
(134,60,o),
(129,56,c),
(116,43,o),
(101,32,o),
(85,24,c),
(50,6,o),
(24,36,o),
(25,61,c)
);
}
);
width = 166;
}
);
unicode = 808;
},
{
glyphname = commaaccentcomb.loclMAH;
lastChange = "2022-08-31 05:33:40 +0000";
layers = (
{
anchors = (
{
name = _bottom;
pos = (67,135);
},
{
name = bottom;
pos = (67,137);
}
);
layerId = m01;
shapes = (
{
closed = 1;
nodes = (
(29,13,o),
(23,21,o),
(25,30,c),
(26,32,o),
(27,33,o),
(27,35,c),
(45,66,o),
(66,94,o),
(92,119,c),
(94,121,o),
(96,122,o),
(98,123,c),
(104,126,o),
(110,122,o),
(110,116,c),
(109,113,o),
(109,110,o),
(107,107,c),
(92,79,o),
(78,50,o),
(58,25,c),
(53,19,o),
(47,13,o),
(39,12,c)
);
}
);
width = 135;
}
);
},
{
glyphname = dieresis;
lastChange = "2022-08-31 05:26:48 +0000";
layers = (
{
layerId = m01;
shapes = (
{
closed = 1;
nodes = (
(117,445,o),
(107,435,o),
(96,435,c),
(85,436,o),
(76,445,o),
(76,457,c),
(77,468,o),
(86,477,o),
(97,477,c),
(108,477,o),
(118,467,o),
(117,455,c)
);
},
{
closed = 1;
nodes = (
(34,438,o),
(26,445,o),
(25,455,c),
(25,465,o),
(32,473,o),
(42,474,c),
(51,475,o),
(60,467,o),
(61,457,c),
(61,447,o),
(53,439,o),
(44,438,c)
);
}
);
width = 142;
}
);
unicode = 168;
},
{
glyphname = dotaccent;
lastChange = "2022-08-31 05:26:48 +0000";
layers = (
{
layerId = m01;
shapes = (
{
closed = 1;
nodes = (
(34,434,o),
(26,443,o),
(25,454,c),
(25,466,o),
(35,478,o),
(47,478,c),
(59,478,o),
(65,471,o),
(66,455,c),
(66,445,o),
(55,435,o),
(45,435,c)
);
}
);
width = 91;
}
);
unicode = 729;
},
{
glyphname = grave;
lastChange = "2022-08-31 05:26:48 +0000";
layers = (
{
layerId = m01;
shapes = (
{
closed = 1;
nodes = (
(25,509,o),
(35,516,o),
(47,510,c),
(50,508,o),
(53,505,o),
(56,502,c),
(64,493,o),
(68,482,o),
(73,472,c),
(80,454,o),
(88,436,o),
(96,419,c),
(97,417,o),
(98,415,o),
(99,413,c),
(100,409,o),
(99,406,o),
(96,403,c),
(93,400,o),
(89,400,o),
(85,401,c),
(79,403,o),
(75,407,o),
(72,412,c),
(64,424,o),
(56,435,o),
(50,447,c),
(43,457,o),
(36,467,o),
(30,478,c),
(28,484,o),
(26,490,o),
(25,495,c)
);
}
);
width = 124;
}
);
unicode = 96;
},
{
glyphname = acute;
lastChange = "2022-08-31 05:26:48 +0000";
layers = (
{
layerId = m01;
shapes = (
{
closed = 1;
nodes = (
(29,400,o),
(23,409,o),
(25,418,c),
(26,420,o),
(27,421,o),
(27,423,c),
(45,454,o),
(66,482,o),
(92,507,c),
(94,509,o),
(96,510,o),
(98,511,c),
(104,514,o),
(110,510,o),
(110,504,c),
(109,501,o),
(108,498,o),
(107,495,c),
(92,467,o),
(78,438,o),
(58,413,c),
(53,407,o),
(47,401,o),
(39,400,c)
);
}
);
width = 135;
}
);
unicode = 180;
},
{
glyphname = hungarumlaut;
lastChange = "2022-08-31 05:26:48 +0000";
layers = (
{
layerId = m01;
shapes = (
{
closed = 1;
nodes = (
(73,485,o),
(72,479,o),
(69,473,c),
(63,456,o),
(57,440,o),
(51,424,c),
(49,418,o),
(47,413,o),
(42,409,c),
(39,406,o),
(34,404,o),
(30,408,c),
(25,410,o),
(24,414,o),
(25,419,c),
(31,443,o),
(37,467,o),
(44,492,c),
(44,495,o),
(46,498,o),
(49,501,c),
(53,506,o),
(59,508,o),
(64,505,c),
(71,503,o),
(73,498,o),
(73,494,c)
);
},
{
closed = 1;
nodes = (
(116,477,o),
(111,466,o),
(105,457,c),
(97,443,o),
(89,430,o),
(81,418,c),
(79,415,o),
(77,413,o),
(75,411,c),
(72,408,o),
(69,406,o),
(65,409,c),
(61,411,o),
(60,415,o),
(61,419,c),
(62,423,o),
(63,427,o),
(65,431,c),
(72,449,o),
(80,468,o),
(86,487,c),
(87,491,o),
(89,494,o),
(91,497,c),
(96,504,o),
(101,506,o),
(107,504,c),
(112,502,o),
(117,495,o),
(117,489,c)
);
}
);
width = 142;
}
);
unicode = 733;
},
{
glyphname = circumflex;
lastChange = "2022-08-31 05:26:48 +0000";
layers = (
{
layerId = m01;
shapes = (
{
closed = 1;
nodes = (
(78,456,o),
(75,444,o),
(69,433,c),
(65,426,o),
(62,419,o),
(58,412,c),
(53,402,o),
(46,399,o),
(37,401,c),
(29,403,o),
(25,411,o),
(25,421,c),
(26,426,o),
(27,431,o),
(29,435,c),
(37,459,o),
(46,483,o),
(57,506,c),
(62,517,o),
(70,525,o),
(83,526,c),
(96,526,o),
(106,519,o),
(112,508,c),
(119,497,o),
(124,485,o),
(127,472,c),
(132,449,o),
(136,426,o),
(141,403,c),
(141,401,o),
(142,400,o),
(142,398,c),
(143,394,o),
(142,390,o),
(138,388,c),
(134,386,o),
(131,386,o),
(127,388,c),
(122,392,o),
(120,397,o),
(118,402,c),
(110,421,o),
(101,439,o),
(92,457,c),
(90,460,o),
(89,464,o),
(86,466,c)
);
}
);
width = 167;
}
);
unicode = 710;
},
{
glyphname = caron;
lastChange = "2022-08-31 05:26:48 +0000";
layers = (
{
layerId = m01;
shapes = (
{
closed = 1;
nodes = (
(86,450,o),
(89,458,o),
(92,466,c),
(98,484,o),
(111,497,o),
(124,511,c),
(126,513,o),
(129,514,o),
(132,513,c),
(135,512,o),
(137,509,o),
(137,505,c),
(137,503,o),
(137,501,o),
(136,499,c),
(126,475,o),
(122,450,o),
(112,426,c),
(109,418,o),
(106,409,o),
(100,402,c),
(86,385,o),
(66,386,o),
(56,406,c),
(46,429,o),
(38,452,o),
(31,476,c),
(30,481,o),
(28,486,o),
(27,491,c),
(25,496,o),
(25,502,o),
(25,507,c),
(26,515,o),
(32,521,o),
(39,522,c),
(45,523,o),
(50,520,o),
(54,512,c),
(60,498,o),
(65,483,o),
(70,468,c),
(74,460,o),
(76,451,o),
(80,441,c)
);
}
);
width = 162;
}
);
unicode = 711;
},
{
glyphname = breve;
lastChange = "2022-08-31 05:26:48 +0000";
layers = (
{
layerId = m01;
shapes = (
{
closed = 1;
nodes = (
(97,487,o),
(98,488,o),
(101,487,c),
(103,486,o),
(104,484,o),
(104,481,c),
(104,479,o),
(105,414,o),
(65,414,c),
(32,414,o),
(25,479,o),
(25,483,c),
(26,489,o),
(32,494,o),
(36,495,c),
(41,496,o),
(44,494,o),
(47,487,c),
(48,481,o),
(50,450,o),
(66,450,c),
(91,450,o),
(90,479,o),
(95,485,c)
);
}
);
width = 129;
}
);
unicode = 728;
},
{
glyphname = ring;
lastChange = "2022-08-31 05:26:48 +0000";
layers = (
{
layerId = m01;
shapes = (
{
closed = 1;
nodes = (
(62,446,o),
(69,442,o),
(82,448,c),
(83,448,o),
(84,449,o),
(85,449,c),
(101,458,o),
(101,463,o),
(87,473,c),
(81,477,o),
(75,482,o),
(68,479,c),
(62,475,o),
(63,467,o),
(62,461,c)
);
},
{
closed = 1;
nodes = (
(27,469,o),
(31,485,o),
(44,498,c),
(49,503,o),
(54,505,o),
(60,504,c),
(68,502,o),
(75,502,o),
(83,502,c),
(96,501,o),
(108,496,o),
(117,487,c),
(133,471,o),
(132,454,o),
(117,437,c),
(107,426,o),
(96,418,o),
(83,412,c),
(64,405,o),
(46,408,o),
(33,423,c),
(26,431,o),
(25,441,o),
(25,451,c)
);
}
);
width = 154;
}
);
unicode = 730;
},
{
glyphname = tilde;
lastChange = "2022-08-31 05:26:48 +0000";
layers = (
{
layerId = m01;
shapes = (
{
closed = 1;
nodes = (
(124,421,o),
(107,428,o),
(95,443,c),
(91,447,o),
(87,452,o),
(84,457,c),
(78,464,o),
(75,465,o),
(68,459,c),
(59,451,o),
(52,442,o),
(48,431,c),
(48,430,o),
(47,430,o),
(47,429,c),
(44,420,o),
(40,417,o),
(34,418,c),
(28,419,o),
(24,426,o),
(25,434,c),
(25,436,o),
(25,438,o),
(26,440,c),
(34,461,o),
(47,478,o),
(67,489,c),
(81,498,o),
(97,493,o),
(109,478,c),
(113,472,o),
(118,465,o),
(124,460,c),
(132,452,o),
(142,450,o),
(153,451,c),
(166,453,o),
(174,467,o),
(170,479,c),
(170,480,o),
(169,480,o),
(169,480,c),
(166,485,o),
(164,489,o),
(169,493,c),
(174,497,o),
(179,494,o),
(183,491,c),
(192,483,o),
(203,462,o),
(197,447,c),
(193,439,o),
(188,432,o),
(180,428,c),
(168,423,o),
(156,420,o),
(143,420,c)
);
}
);
width = 224;
}
);
unicode = 732;
},
{
glyphname = macron;
lastChange = "2022-08-31 05:26:48 +0000";
layers = (
{
layerId = m01;
shapes = (
{
closed = 1;
nodes = (
(63,435,o),
(51,434,o),
(40,437,c),
(30,439,o),
(25,445,o),
(25,453,c),
(24,462,o),
(29,467,o),
(39,469,c),
(42,470,o),
(45,470,o),
(47,470,c),
(69,469,o),
(90,474,o),
(112,477,c),
(118,478,o),
(124,478,o),
(131,478,c),
(141,477,o),
(148,470,o),
(149,461,c),
(150,453,o),
(144,444,o),
(135,440,c),
(131,439,o),
(128,438,o),
(124,438,c),
(107,437,o),
(91,435,o),
(75,434,c)
);
}
);
width = 174;
}
);
unicode = 175;
},
{
glyphname = cedilla;
lastChange = "2022-08-31 05:26:48 +0000";
layers = (
{
layerId = m01;
shapes = (
{
closed = 1;
nodes = (
(55,26,o),
(48,26,o),
(41,27,c),
(37,28,o),
(33,30,o),
(30,33,c),
(26,37,o),
(24,42,o),
(25,48,c),
(27,54,o),
(31,57,o),
(37,58,c),
(50,61,o),
(62,66,o),
(72,75,c),
(78,81,o),
(78,84,o),
(70,87,c),
(66,88,o),
(60,89,o),
(55,90,c),
(46,93,o),
(38,97,o),
(35,108,c),
(33,118,o),
(37,128,o),
(45,136,c),
(53,144,o),
(62,142,o),
(66,131,c),
(68,123,o),
(72,121,o),
(79,119,c),
(98,114,o),
(112,102,o),
(122,85,c),
(130,70,o),
(123,46,o),
(108,36,c),
(97,29,o),
(82,25,o),
(61,25,c)
);
}
);
width = 150;
}
);
unicode = 184;
},
{
glyphname = ogonek;
lastChange = "2022-08-31 05:26:48 +0000";
layers = (
{
layerId = m01;
shapes = (
{
closed = 1;
nodes = (
(24,82,o),
(47,122,o),
(71,130,c),
(77,133,o),
(83,134,o),
(90,132,c),
(101,129,o),
(103,120,o),
(95,112,c),
(84,102,o),
(76,91,o),
(72,76,c),
(72,74,o),
(71,72,o),
(71,70,c),
(69,60,o),
(72,57,o),
(82,60,c),
(97,64,o),
(111,70,o),
(121,83,c),
(124,88,o),
(127,92,o),
(134,89,c),
(139,87,o),
(143,77,o),
(140,72,c),
(137,66,o),
(134,60,o),
(129,56,c),
(116,43,o),
(101,32,o),
(85,24,c),
(50,6,o),
(24,36,o),
(25,61,c)
);
}
